DrVivihand-Regular.ufo
<glyph name="exclam" format="2">
  <advance width="786"/>
  <unicode hex="0021"/>
  <outline>
    <contour>
      <point x="452" y="399" type="curve" smooth="yes"/>
      <point x="484" y="399"/>
      <point x="524" y="416"/>
      <point x="553" y="429" type="curve"/>
      <point x="540" y="458"/>
      <point x="529" y="490"/>
      <point x="529" y="522" type="curve" smooth="yes"/>
      <point x="529" y="598"/>
      <point x="594" y="795"/>
      <point x="619" y="877" type="curve" smooth="yes"/>
      <point x="659" y="1009"/>
      <point x="723" y="1202"/>
      <point x="723" y="1338" type="curve" smooth="yes"/>
      <point x="723" y="1443"/>
      <point x="680" y="1510"/>
      <point x="568" y="1510" type="curve" smooth="yes"/>
      <point x="511" y="1510"/>
      <point x="442" y="1484"/>
      <point x="390" y="1461" type="curve"/>
      <point x="472" y="1366"/>
      <point x="489" y="1230"/>
      <point x="489" y="1109" type="curve" smooth="yes"/>
      <point x="489" y="983"/>
      <point x="471" y="858"/>
      <point x="446" y="735" type="curve" smooth="yes"/>
      <point x="429" y="649"/>
      <point x="401" y="564"/>
      <point x="401" y="475" type="curve" smooth="yes"/>
      <point x="401" y="441"/>
      <point x="409" y="399"/>
    </contour>
    <contour>
      <point x="385" y="-25" type="curve" smooth="yes"/>
      <point x="437" y="-25"/>
      <point x="488" y="-10"/>
      <point x="537" y="7" type="curve"/>
      <point x="557" y="54"/>
      <point x="580" y="109"/>
      <point x="580" y="161" type="curve" smooth="yes"/>
      <point x="580" y="241"/>
      <point x="518" y="263"/>
      <point x="449" y="263" type="curve" smooth="yes"/>
      <point x="393" y="263"/>
      <point x="338" y="248"/>
      <point x="285" y="230" type="curve"/>
      <point x="272" y="179"/>
      <point x="256" y="127"/>
      <point x="256" y="73" type="curve" smooth="yes"/>
      <point x="256" y="-11"/>
      <point x="314" y="-25"/>
    </contour>
  </outline>
</glyph>
<glyph name="quotedbl" format="2">
  <advance width="831"/>
  <unicode hex="0022"/>
  <outline>
    <contour>
      <point x="376" y="1045" type="curve" smooth="yes"/>
      <point x="418" y="1045"/>
      <point x="458" y="1062"/>
      <point x="496" y="1078" type="curve"/>
      <point x="472" y="1113"/>
      <point x="440" y="1157"/>
      <point x="440" y="1202" type="curve" smooth="yes"/>
      <point x="440" y="1290"/>
      <point x="516" y="1376"/>
      <point x="516" y="1479" type="curve" smooth="yes"/>
      <point x="516" y="1507"/>
      <point x="510" y="1548"/>
      <point x="474" y="1548" type="curve" smooth="yes"/>
      <point x="414" y="1548"/>
      <point x="356" y="1527"/>
      <point x="304" y="1498" type="curve"/>
      <point x="325" y="1465"/>
      <point x="345" y="1427"/>
      <point x="345" y="1387" type="curve" smooth="yes"/>
      <point x="345" y="1358"/>
      <point x="334" y="1331"/>
      <point x="326" y="1304" type="curve" smooth="yes"/>
      <point x="310" y="1253"/>
      <point x="300" y="1200"/>
      <point x="300" y="1146" type="curve" smooth="yes"/>
      <point x="300" y="1095"/>
      <point x="316" y="1045"/>
    </contour>
    <contour>
      <point x="789" y="1045" type="curve" smooth="yes"/>
      <point x="830" y="1045"/>
      <point x="869" y="1061"/>
      <point x="906" y="1076" type="curve"/>
      <point x="883" y="1111"/>
      <point x="853" y="1160"/>
      <point x="853" y="1203" type="curve" smooth="yes"/>
      <point x="853" y="1290"/>
      <point x="929" y="1376"/>
      <point x="929" y="1479" type="curve" smooth="yes"/>
      <point x="929" y="1507"/>
      <point x="923" y="1548"/>
      <point x="887" y="1548" type="curve" smooth="yes"/>
      <point x="827" y="1548"/>
      <point x="769" y="1527"/>
      <point x="717" y="1498" type="curve"/>
      <point x="738" y="1464"/>
      <point x="760" y="1426"/>
      <point x="760" y="1385" type="curve" smooth="yes"/>
      <point x="760" y="1357"/>
      <point x="748" y="1329"/>
      <point x="740" y="1303" type="curve" smooth="yes"/>
      <point x="725" y="1252"/>
      <point x="713" y="1200"/>
      <point x="713" y="1147" type="curve" smooth="yes"/>
      <point x="713" y="1096"/>
      <point x="729" y="1045"/>
    </contour>
  </outline>
</glyph>
<glyph name="numbersign" format="2">
  <advance width="1382"/>
  <unicode hex="0023"/>
  <outline>
    <contour>
      <point x="886" y="180" type="curve" smooth="yes"/>
      <point x="886" y="84"/>
      <point x="914" y="-12"/>
      <point x="1028" y="-12" type="curve" smooth="yes"/>
      <point x="1084" y="-12"/>
      <point x="1132" y="38"/>
      <point x="1158" y="84" type="curve"/>
      <point x="1098" y="136"/>
      <point x="1078" y="211"/>
      <point x="1078" y="288" type="curve" smooth="yes"/>
      <point x="1078" y="386"/>
      <point x="1096" y="483"/>
      <point x="1115" y="578" type="curve" smooth="yes"/>
      <point x="1147" y="739"/>
      <point x="1189" y="898"/>
      <point x="1228" y="1058" type="curve" smooth="yes"/>
      <point x="1253" y="1159"/>
      <point x="1281" y="1261"/>
      <point x="1281" y="1366" type="curve" smooth="yes"/>
      <point x="1281" y="1438"/>
      <point x="1260" y="1508"/>
      <point x="1175" y="1508" type="curve" smooth="yes"/>
      <point x="1125" y="1508"/>
      <point x="1071" y="1482"/>
      <point x="1030" y="1454" type="curve"/>
      <point x="1065" y="1396"/>
      <point x="1076" y="1328"/>
      <point x="1076" y="1261" type="curve" smooth="yes"/>
      <point x="1076" y="1154"/>
      <point x="1058" y="1047"/>
      <point x="1035" y="943" type="curve" smooth="yes"/>
      <point x="908" y="365" type="line" smooth="yes"/>
      <point x="895" y="304"/>
      <point x="886" y="242"/>
    </contour>
    <contour>
      <point x="326" y="179" type="curve" smooth="yes"/>
      <point x="326" y="83"/>
      <point x="354" y="-12"/>
      <point x="468" y="-12" type="curve" smooth="yes"/>
      <point x="525" y="-12"/>
      <point x="572" y="38"/>
      <point x="598" y="84" type="curve"/>
      <point x="538" y="136"/>
      <point x="518" y="213"/>
      <point x="518" y="290" type="curve" smooth="yes"/>
      <point x="518" y="397"/>
      <point x="543" y="502"/>
      <point x="563" y="607" type="curve" smooth="yes"/>
      <point x="592" y="759"/>
      <point x="632" y="909"/>
      <point x="669" y="1059" type="curve" smooth="yes"/>
      <point x="694" y="1160"/>
      <point x="721" y="1262"/>
      <point x="721" y="1367" type="curve" smooth="yes"/>
      <point x="721" y="1452"/>
      <point x="697" y="1508"/>
      <point x="603" y="1508" type="curve" smooth="yes"/>
      <point x="563" y="1508"/>
      <point x="504" y="1476"/>
      <point x="471" y="1454" type="curve"/>
      <point x="505" y="1397"/>
      <point x="516" y="1329"/>
      <point x="516" y="1263" type="curve" smooth="yes"/>
      <point x="516" y="1155"/>
      <point x="499" y="1049"/>
      <point x="476" y="944" type="curve" smooth="yes"/>
      <point x="352" y="387" type="line" smooth="yes"/>
      <point x="337" y="319"/>
      <point x="326" y="249"/>
    </contour>
    <contour>
      <point x="272" y="615" type="curve" smooth="yes"/>
      <point x="200" y="615"/>
      <point x="170" y="552"/>
      <point x="170" y="488" type="curve" smooth="yes"/>
      <point x="170" y="454"/>
      <point x="179" y="419"/>
      <point x="199" y="391" type="curve"/>
      <point x="240" y="410"/>
      <point x="312" y="412"/>
      <point x="357" y="412" type="curve" smooth="yes"/>
      <point x="632" y="412"/>
      <point x="907" y="404"/>
      <point x="1182" y="404" type="curve" smooth="yes"/>
      <point x="1280" y="404"/>
      <point x="1378" y="431"/>
      <point x="1378" y="548" type="curve" smooth="yes"/>
      <point x="1378" y="577"/>
      <point x="1370" y="605"/>
      <point x="1353" y="629" type="curve"/>
      <point x="1266" y="600"/>
      <point x="1055" y="597"/>
      <point x="957" y="597" type="curve" smooth="yes"/>
      <point x="772" y="597"/>
      <point x="586" y="604"/>
      <point x="401" y="610" type="curve" smooth="yes"/>
      <point x="358" y="611"/>
      <point x="315" y="615"/>
    </contour>
    <contour>
      <point x="1036" y="1050" type="curve" smooth="yes"/>
      <point x="807" y="1050"/>
      <point x="579" y="1068"/>
      <point x="350" y="1068" type="curve" smooth="yes"/>
      <point x="278" y="1068"/>
      <point x="247" y="1006"/>
      <point x="247" y="942" type="curve" smooth="yes"/>
      <point x="247" y="907"/>
      <point x="257" y="873"/>
      <point x="276" y="844" type="curve"/>
      <point x="320" y="864"/>
      <point x="398" y="865"/>
      <point x="447" y="865" type="curve" smooth="yes"/>
      <point x="587" y="865" type="line" smooth="yes"/>
      <point x="816" y="865"/>
      <point x="1044" y="858"/>
      <point x="1273" y="858" type="curve" smooth="yes"/>
      <point x="1366" y="858"/>
      <point x="1456" y="893"/>
      <point x="1456" y="1001" type="curve" smooth="yes"/>
      <point x="1456" y="1030"/>
      <point x="1448" y="1058"/>
      <point x="1431" y="1082" type="curve"/>
      <point x="1343" y="1053"/>
      <point x="1134" y="1050"/>
    </contour>
  </outline>
</glyph>
<glyph name="dollar" format="2">
  <advance width="1382"/>
  <unicode hex="0024"/>
  <outline>
    <contour>
      <point x="1312" y="1322" type="curve" smooth="yes"/>
      <point x="1312" y="1472"/>
      <point x="1019" y="1494"/>
      <point x="900" y="1494" type="curve" smooth="yes"/>
      <point x="643" y="1494"/>
      <point x="283" y="1415"/>
      <point x="283" y="1093" type="curve" smooth="yes"/>
      <point x="283" y="937"/>
      <point x="400" y="836"/>
      <point x="530" y="768" type="curve" smooth="yes"/>
      <point x="674" y="693"/>
      <point x="818" y="626"/>
      <point x="958" y="540" type="curve" smooth="yes"/>
      <point x="1056" y="478"/>
      <point x="1155" y="396"/>
      <point x="1155" y="305" type="curve" smooth="yes"/>
      <point x="1155" y="162"/>
      <point x="857" y="123"/>
      <point x="752" y="123" type="curve" smooth="yes"/>
      <point x="585" y="123"/>
      <point x="281" y="183"/>
      <point x="208" y="356" type="curve"/>
      <point x="162" y="333"/>
      <point x="145" y="261"/>
      <point x="145" y="214" type="curve" smooth="yes"/>
      <point x="145" y="11"/>
      <point x="527" y="-28"/>
      <point x="675" y="-28" type="curve" smooth="yes"/>
      <point x="934" y="-28"/>
      <point x="1327" y="68"/>
      <point x="1327" y="392" type="curve" smooth="yes"/>
      <point x="1327" y="571"/>
      <point x="1181" y="663"/>
      <point x="1045" y="750" type="curve" smooth="yes"/>
      <point x="913" y="836"/>
      <point x="749" y="903"/>
      <point x="608" y="979" type="curve" smooth="yes"/>
      <point x="523" y="1026"/>
      <point x="439" y="1090"/>
      <point x="439" y="1166" type="curve" smooth="yes"/>
      <point x="441" y="1327"/>
      <point x="664" y="1356"/>
      <point x="788" y="1356" type="curve" smooth="yes"/>
      <point x="928" y="1356"/>
      <point x="1152" y="1309"/>
      <point x="1195" y="1161" type="curve"/>
      <point x="1281" y="1184"/>
      <point x="1312" y="1273"/>
    </contour>
    <contour>
      <point x="898" y="1674" type="curve" smooth="yes"/>
      <point x="859" y="1674"/>
      <point x="832" y="1641"/>
      <point x="814" y="1611" type="curve" smooth="yes"/>
      <point x="743" y="1495"/>
      <point x="736" y="1361"/>
      <point x="727" y="1229" type="curve" smooth="yes"/>
      <point x="711" y="980"/>
      <point x="712" y="730"/>
      <point x="694" y="481" type="curve" smooth="yes"/>
      <point x="686" y="371"/>
      <point x="674" y="261"/>
      <point x="656" y="152" type="curve" smooth="yes"/>
      <point x="633" y="17"/>
      <point x="626" y="-5"/>
      <point x="504" y="-74" type="curve"/>
      <point x="507" y="-97"/>
      <point x="519" y="-175"/>
      <point x="550" y="-175" type="curve" smooth="yes"/>
      <point x="649" y="-175"/>
      <point x="710" y="-76"/>
      <point x="735" y="8" type="curve" smooth="yes"/>
      <point x="765" y="109"/>
      <point x="771" y="255"/>
      <point x="779" y="360" type="curve" smooth="yes"/>
      <point x="808" y="750"/>
      <point x="808" y="1110"/>
      <point x="889" y="1494" type="curve" smooth="yes"/>
      <point x="897" y="1532"/>
      <point x="940" y="1608"/>
      <point x="980" y="1619" type="curve"/>
      <point x="963" y="1636"/>
      <point x="923" y="1674"/>
    </contour>
  </outline>
</glyph>
<glyph name="percent" format="2">
  <advance width="1703"/>
  <unicode hex="0025"/>
  <outline>
    <contour>
      <point x="424" y="628" type="curve" smooth="yes"/>
      <point x="694" y="628"/>
      <point x="836" y="925"/>
      <point x="836" y="1161" type="curve" smooth="yes"/>
      <point x="836" y="1335"/>
      <point x="764" y="1508"/>
      <point x="564" y="1508" type="curve" smooth="yes"/>
      <point x="293" y="1508"/>
      <point x="152" y="1208"/>
      <point x="152" y="972" type="curve" smooth="yes"/>
      <point x="152" y="797"/>
      <point x="224" y="628"/>
    </contour>
    <contour>
      <point x="1357" y="-53" type="curve" smooth="yes"/>
      <point x="1627" y="-53"/>
      <point x="1768" y="245"/>
      <point x="1768" y="481" type="curve" smooth="yes"/>
      <point x="1768" y="655"/>
      <point x="1697" y="827"/>
      <point x="1497" y="827" type="curve" smooth="yes"/>
      <point x="1227" y="827"/>
      <point x="1085" y="527"/>
      <point x="1085" y="292" type="curve" smooth="yes"/>
      <point x="1085" y="117"/>
      <point x="1157" y="-53"/>
    </contour>
    <contour>
      <point x="620" y="-45" type="curve" smooth="yes"/>
      <point x="656" y="-45"/>
      <point x="731" y="10"/>
      <point x="761" y="32" type="curve"/>
      <point x="742" y="62"/>
      <point x="727" y="96"/>
      <point x="727" y="132" type="curve" smooth="yes"/>
      <point x="727" y="137"/>
      <point x="728" y="143"/>
      <point x="729" y="148" type="curve" smooth="yes"/>
      <point x="826" y="526"/>
      <point x="1435" y="1190"/>
      <point x="1435" y="1436" type="curve" smooth="yes"/>
      <point x="1435" y="1483"/>
      <point x="1413" y="1510"/>
      <point x="1365" y="1510" type="curve" smooth="yes"/>
      <point x="1329" y="1510"/>
      <point x="1283" y="1487"/>
      <point x="1252" y="1469" type="curve"/>
      <point x="1253" y="1450"/>
      <point x="1254" y="1430"/>
      <point x="1254" y="1411" type="curve" smooth="yes"/>
      <point x="1254" y="1401"/>
      <point x="1253" y="1391"/>
      <point x="1251" y="1381" type="curve" smooth="yes"/>
      <point x="1153" y="980"/>
      <point x="541" y="317"/>
      <point x="541" y="40" type="curve" smooth="yes"/>
      <point x="541" y="-13"/>
      <point x="565" y="-45"/>
    </contour>
    <contour>
      <point x="1415" y="92" type="curve" smooth="yes"/>
      <point x="1263" y="92"/>
      <point x="1209" y="212"/>
      <point x="1209" y="346" type="curve" smooth="yes"/>
      <point x="1209" y="485"/>
      <point x="1270" y="683"/>
      <point x="1439" y="683" type="curve" smooth="yes"/>
      <point x="1590" y="683"/>
      <point x="1644" y="564"/>
      <point x="1644" y="430" type="curve" smooth="yes"/>
      <point x="1644" y="292"/>
      <point x="1584" y="92"/>
    </contour>
    <contour>
      <point x="482" y="774" type="curve" smooth="yes"/>
      <point x="330" y="774"/>
      <point x="277" y="894"/>
      <point x="277" y="1028" type="curve" smooth="yes"/>
      <point x="277" y="1167"/>
      <point x="337" y="1365"/>
      <point x="506" y="1365" type="curve" smooth="yes"/>
      <point x="657" y="1365"/>
      <point x="711" y="1245"/>
      <point x="711" y="1111" type="curve" smooth="yes"/>
      <point x="711" y="973"/>
      <point x="650" y="774"/>
    </contour>
  </outline>
</glyph>
<glyph name="ampersand" format="2">
  <advance width="1769"/>
  <unicode hex="0026"/>
  <outline>
    <contour>
      <point x="822" y="-33" type="curve" smooth="yes"/>
      <point x="1099" y="-33"/>
      <point x="1502" y="77"/>
      <point x="1570" y="389" type="curve" smooth="yes"/>
      <point x="1574" y="407"/>
      <point x="1575" y="426"/>
      <point x="1575" y="445" type="curve" smooth="yes"/>
      <point x="1575" y="497"/>
      <point x="1560" y="548"/>
      <point x="1545" y="597" type="curve"/>
      <point x="1391" y="546" type="line"/>
      <point x="1412" y="496"/>
      <point x="1428" y="443"/>
      <point x="1428" y="389" type="curve" smooth="yes"/>
      <point x="1428" y="331"/>
      <point x="1409" y="307"/>
      <point x="1367" y="271" type="curve" smooth="yes"/>
      <point x="1240" y="163"/>
      <point x="1027" y="134"/>
      <point x="866" y="134" type="curve" smooth="yes"/>
      <point x="704" y="134"/>
      <point x="399" y="200"/>
      <point x="399" y="402" type="curve" smooth="yes"/>
      <point x="399" y="645"/>
      <point x="847" y="732"/>
      <point x="1031" y="752" type="curve"/>
      <point x="1049" y="783"/>
      <point x="1064" y="820"/>
      <point x="1064" y="857" type="curve" smooth="yes"/>
      <point x="1064" y="893"/>
      <point x="1050" y="899"/>
      <point x="1019" y="905" type="curve" smooth="yes"/>
      <point x="979" y="913"/>
      <point x="937" y="912"/>
      <point x="896" y="916" type="curve" smooth="yes"/>
      <point x="768" y="929"/>
      <point x="492" y="995"/>
      <point x="492" y="1160" type="curve" smooth="yes"/>
      <point x="492" y="1331"/>
      <point x="784" y="1366"/>
      <point x="910" y="1366" type="curve" smooth="yes"/>
      <point x="1070" y="1366"/>
      <point x="1274" y="1330"/>
      <point x="1338" y="1160" type="curve"/>
      <point x="1405" y="1169"/>
      <point x="1445" y="1235"/>
      <point x="1445" y="1298" type="curve" smooth="yes"/>
      <point x="1445" y="1477"/>
      <point x="1059" y="1510"/>
      <point x="931" y="1510" type="curve" smooth="yes"/>
      <point x="703" y="1510"/>
      <point x="306" y="1442"/>
      <point x="306" y="1145" type="curve" smooth="yes"/>
      <point x="306" y="954"/>
      <point x="499" y="858"/>
      <point x="660" y="818" type="curve"/>
      <point x="449" y="760"/>
      <point x="196" y="617"/>
      <point x="196" y="368" type="curve" smooth="yes"/>
      <point x="196" y="68"/>
      <point x="578" y="-33"/>
    </contour>
    <contour>
      <point x="1877" y="803" type="curve"/>
      <point x="1875" y="806" type="line"/>
      <point x="1808" y="788"/>
      <point x="1743" y="775"/>
      <point x="1675" y="762" type="curve" smooth="yes"/>
      <point x="1558" y="740"/>
      <point x="1440" y="716"/>
      <point x="1323" y="695" type="curve" smooth="yes"/>
      <point x="1177" y="669"/>
      <point x="872" y="636"/>
      <point x="822" y="469" type="curve" smooth="yes"/>
      <point x="817" y="452"/>
      <point x="814" y="433"/>
      <point x="811" y="416" type="curve"/>
      <point x="1104" y="488"/>
      <point x="1427" y="505"/>
      <point x="1710" y="598" type="curve" smooth="yes"/>
      <point x="1811" y="631"/>
      <point x="1874" y="692"/>
    </contour>
  </outline>
</glyph>
<glyph name="quotesingle" format="2">
  <advance width="532"/>
  <unicode hex="0027"/>
  <outline>
    <contour>
      <point x="423" y="1045" type="curve" smooth="yes"/>
      <point x="467" y="1045"/>
      <point x="509" y="1060"/>
      <point x="549" y="1075" type="curve"/>
      <point x="525" y="1107"/>
      <point x="480" y="1165"/>
      <point x="480" y="1206" type="curve" smooth="yes"/>
      <point x="480" y="1289"/>
      <point x="560" y="1377"/>
      <point x="560" y="1481" type="curve" smooth="yes"/>
      <point x="560" y="1507"/>
      <point x="555" y="1548"/>
      <point x="521" y="1548" type="curve" smooth="yes"/>
      <point x="456" y="1548"/>
      <point x="393" y="1527"/>
      <point x="336" y="1499" type="curve"/>
      <point x="359" y="1468"/>
      <point x="392" y="1421"/>
      <point x="392" y="1381" type="curve" smooth="yes"/>
      <point x="392" y="1356"/>
      <point x="380" y="1327"/>
      <point x="372" y="1303" type="curve" smooth="yes"/>
      <point x="356" y="1253"/>
      <point x="344" y="1201"/>
      <point x="344" y="1148" type="curve" smooth="yes"/>
      <point x="344" y="1095"/>
      <point x="361" y="1045"/>
    </contour>
  </outline>
</glyph>
<glyph name="parenleft" format="2">
  <advance width="1329"/>
  <unicode hex="0028"/>
  <outline>
    <contour>
      <point x="995" y="-212" type="curve" smooth="yes"/>
      <point x="1106" y="-212"/>
      <point x="1193" y="-139"/>
      <point x="1238" y="-42" type="curve"/>
      <point x="837" y="-22"/>
      <point x="533" y="221"/>
      <point x="533" y="641" type="curve" smooth="yes"/>
      <point x="533" y="1089"/>
      <point x="950" y="1357"/>
      <point x="1345" y="1442" type="curve"/>
      <point x="1337" y="1472"/>
      <point x="1300" y="1578"/>
      <point x="1261" y="1578" type="curve" smooth="yes"/>
      <point x="964" y="1578"/>
      <point x="651" y="1280"/>
      <point x="510" y="1038" type="curve" smooth="yes"/>
      <point x="425" y="892"/>
      <point x="371" y="728"/>
      <point x="371" y="558" type="curve" smooth="yes"/>
      <point x="371" y="203"/>
      <point x="599" y="-212"/>
    </contour>
  </outline>
</glyph>
<glyph name="parenright" format="2">
  <advance width="1095"/>
  <unicode hex="0029"/>
  <outline>
    <contour>
      <point x="102" y="-213" type="curve" smooth="yes"/>
      <point x="395" y="-213"/>
      <point x="702" y="87"/>
      <point x="840" y="326" type="curve" smooth="yes"/>
      <point x="926" y="474"/>
      <point x="978" y="639"/>
      <point x="978" y="811" type="curve" smooth="yes"/>
      <point x="978" y="1158"/>
      <point x="760" y="1576"/>
      <point x="369" y="1576" type="curve" smooth="yes"/>
      <point x="257" y="1576"/>
      <point x="174" y="1503"/>
      <point x="128" y="1406" type="curve"/>
      <point x="532" y="1385"/>
      <point x="815" y="1132"/>
      <point x="815" y="726" type="curve" smooth="yes"/>
      <point x="815" y="281"/>
      <point x="412" y="10"/>
      <point x="18" y="-77" type="curve"/>
      <point x="26" y="-108"/>
      <point x="63" y="-213"/>
    </contour>
  </outline>
</glyph>
<glyph name="asterisk" format="2">
  <advance width="993"/>
  <unicode hex="002A"/>
  <outline>
    <contour>
      <point x="567" y="738" type="curve" smooth="yes"/>
      <point x="626" y="738"/>
      <point x="683" y="760"/>
      <point x="733" y="790" type="curve"/>
      <point x="698" y="840"/>
      <point x="683" y="910"/>
      <point x="683" y="971" type="curve" smooth="yes"/>
      <point x="683" y="994"/>
      <point x="685" y="1016"/>
      <point x="691" y="1038" type="curve"/>
      <point x="806" y="1023"/>
      <point x="919" y="847"/>
      <point x="1034" y="847" type="curve" smooth="yes"/>
      <point x="1080" y="847"/>
      <point x="1100" y="1006"/>
      <point x="1100" y="1042" type="curve" smooth="yes"/>
      <point x="1100" y="1048" type="line"/>
      <point x="1014" y="1057"/>
      <point x="930" y="1080"/>
      <point x="850" y="1112" type="curve"/>
      <point x="929" y="1124"/>
      <point x="1165" y="1157"/>
      <point x="1165" y="1264" type="curve" smooth="yes"/>
      <point x="1165" y="1314"/>
      <point x="1124" y="1364"/>
      <point x="1075" y="1374" type="curve"/>
      <point x="1009" y="1322"/>
      <point x="926" y="1299"/>
      <point x="846" y="1276" type="curve" smooth="yes"/>
      <point x="809" y="1266"/>
      <point x="760" y="1253"/>
      <point x="728" y="1232" type="curve"/>
      <point x="764" y="1329"/>
      <point x="800" y="1344"/>
      <point x="800" y="1459" type="curve" smooth="yes"/>
      <point x="800" y="1492"/>
      <point x="803" y="1550"/>
      <point x="756" y="1550" type="curve" smooth="yes"/>
      <point x="700" y="1550"/>
      <point x="645" y="1531"/>
      <point x="597" y="1502" type="curve"/>
      <point x="620" y="1441"/>
      <point x="636" y="1377"/>
      <point x="636" y="1312" type="curve" smooth="yes"/>
      <point x="636" y="1291"/>
      <point x="635" y="1269"/>
      <point x="631" y="1248" type="curve"/>
      <point x="520" y="1269"/>
      <point x="403" y="1440"/>
      <point x="290" y="1440" type="curve" smooth="yes"/>
      <point x="245" y="1440"/>
      <point x="224" y="1280"/>
      <point x="224" y="1245" type="curve" smooth="yes"/>
      <point x="224" y="1239" type="line"/>
      <point x="308" y="1230"/>
      <point x="388" y="1204"/>
      <point x="466" y="1174" type="curve"/>
      <point x="387" y="1161"/>
      <point x="159" y="1131"/>
      <point x="159" y="1023" type="curve" smooth="yes"/>
      <point x="159" y="972"/>
      <point x="200" y="925"/>
      <point x="250" y="915" type="curve"/>
      <point x="316" y="965"/>
      <point x="397" y="988"/>
      <point x="475" y="1011" type="curve" smooth="yes"/>
      <point x="514" y="1022"/>
      <point x="557" y="1033"/>
      <point x="592" y="1054" type="curve"/>
      <point x="574" y="985"/>
      <point x="524" y="853"/>
      <point x="524" y="788" type="curve" smooth="yes"/>
      <point x="524" y="761"/>
      <point x="538" y="738"/>
    </contour>
  </outline>
</glyph>
<glyph name="plus" format="2">
  <advance width="1382"/>
  <unicode hex="002B"/>
  <outline>
    <contour>
      <point x="819" y="349" type="curve" smooth="yes"/>
      <point x="858" y="349"/>
      <point x="896" y="372"/>
      <point x="922" y="400" type="curve"/>
      <point x="892" y="437"/>
      <point x="881" y="483"/>
      <point x="881" y="530" type="curve" smooth="yes"/>
      <point x="881" y="573"/>
      <point x="888" y="615"/>
      <point x="896" y="657" type="curve"/>
      <point x="926" y="657"/>
      <point x="955" y="655"/>
      <point x="985" y="655" type="curve" smooth="yes"/>
      <point x="1068" y="655"/>
      <point x="1224" y="656"/>
      <point x="1224" y="770" type="curve" smooth="yes"/>
      <point x="1224" y="795"/>
      <point x="1217" y="819"/>
      <point x="1202" y="839" type="curve"/>
      <point x="1136" y="806"/>
      <point x="1000" y="803"/>
      <point x="924" y="803" type="curve"/>
      <point x="938" y="872"/>
      <point x="959" y="940"/>
      <point x="959" y="1011" type="curve" smooth="yes"/>
      <point x="959" y="1065"/>
      <point x="944" y="1120"/>
      <point x="880" y="1120" type="curve" smooth="yes"/>
      <point x="846" y="1120"/>
      <point x="812" y="1109"/>
      <point x="785" y="1089" type="curve"/>
      <point x="798" y="1059"/>
      <point x="802" y="1025"/>
      <point x="802" y="993" type="curve" smooth="yes"/>
      <point x="802" y="931"/>
      <point x="786" y="871"/>
      <point x="775" y="810" type="curve"/>
      <point x="703" y="812"/>
      <point x="631" y="820"/>
      <point x="559" y="820" type="curve" smooth="yes"/>
      <point x="499" y="820"/>
      <point x="451" y="791"/>
      <point x="451" y="726" type="curve" smooth="yes"/>
      <point x="451" y="693"/>
      <point x="462" y="661"/>
      <point x="479" y="633" type="curve"/>
      <point x="533" y="659"/>
      <point x="602" y="662"/>
      <point x="661" y="662" type="curve" smooth="yes"/>
      <point x="688" y="662"/>
      <point x="715" y="661"/>
      <point x="742" y="660" type="curve"/>
      <point x="733" y="604"/>
      <point x="721" y="550"/>
      <point x="721" y="493" type="curve" smooth="yes"/>
      <point x="721" y="426"/>
      <point x="737" y="349"/>
    </contour>
  </outline>
</glyph>
<glyph name="comma" format="2">
  <advance width="714"/>
  <unicode hex="002C"/>
  <outline>
    <contour>
      <point x="84" y="-108" type="curve"/>
      <point x="86" y="-124"/>
      <point x="83" y="-141"/>
      <point x="83" y="-157" type="curve" smooth="yes"/>
      <point x="83" y="-194"/>
      <point x="92" y="-228"/>
      <point x="136" y="-228" type="curve" smooth="yes"/>
      <point x="333" y="-228"/>
      <point x="583" y="-73"/>
      <point x="583" y="143" type="curve" smooth="yes"/>
      <point x="583" y="210"/>
      <point x="556" y="263"/>
      <point x="482" y="263" type="curve" smooth="yes"/>
      <point x="403" y="263"/>
      <point x="283" y="210"/>
      <point x="211" y="176" type="curve"/>
      <point x="261" y="151"/>
      <point x="368" y="88"/>
      <point x="368" y="25" type="curve" smooth="yes"/>
      <point x="368" y="-103"/>
      <point x="171" y="-96"/>
    </contour>
  </outline>
</glyph>
<glyph name="hyphen" format="2">
  <advance width="985"/>
  <unicode hex="002D"/>
  <outline>
    <contour>
      <point x="151" y="575" type="curve"/>
      <point x="176" y="583"/>
      <point x="203" y="584"/>
      <point x="229" y="584" type="curve" smooth="yes"/>
      <point x="357" y="584"/>
      <point x="483" y="558"/>
      <point x="611" y="558" type="curve" smooth="yes"/>
      <point x="731" y="558"/>
      <point x="881" y="577"/>
      <point x="881" y="730" type="curve" smooth="yes"/>
      <point x="881" y="743"/>
      <point x="881" y="758"/>
      <point x="868" y="765" type="curve"/>
      <point x="832" y="758"/>
      <point x="795" y="758"/>
      <point x="758" y="758" type="curve" smooth="yes"/>
      <point x="727" y="758"/>
      <point x="697" y="759"/>
      <point x="666" y="759" type="curve" smooth="yes"/>
      <point x="523" y="759"/>
      <point x="380" y="779"/>
      <point x="237" y="779" type="curve" smooth="yes"/>
      <point x="166" y="779"/>
      <point x="113" y="741"/>
      <point x="113" y="666" type="curve" smooth="yes"/>
      <point x="113" y="632"/>
      <point x="127" y="599"/>
    </contour>
  </outline>
</glyph>
<glyph name="period" format="2">
  <advance width="673"/>
  <unicode hex="002E"/>
  <outline>
    <contour>
      <point x="318" y="-25" type="curve" smooth="yes"/>
      <point x="372" y="-25"/>
      <point x="424" y="-10"/>
      <point x="474" y="7" type="curve"/>
      <point x="497" y="55"/>
      <point x="521" y="108"/>
      <point x="521" y="162" type="curve" smooth="yes"/>
      <point x="521" y="242"/>
      <point x="458" y="263"/>
      <point x="389" y="263" type="curve" smooth="yes"/>
      <point x="333" y="263"/>
      <point x="278" y="248"/>
      <point x="225" y="230" type="curve"/>
      <point x="209" y="179"/>
      <point x="195" y="127"/>
      <point x="195" y="73" type="curve" smooth="yes"/>
      <point x="195" y="-7"/>
      <point x="249" y="-25"/>
    </contour>
  </outline>
</glyph>
<glyph name="slash" format="2">
  <advance width="934"/>
  <unicode hex="002F"/>
  <outline>
    <contour>
      <point x="142" y="-213" type="curve" smooth="yes"/>
      <point x="229" y="-213"/>
      <point x="300" y="-107"/>
      <point x="340" y="-41" type="curve" smooth="yes"/>
      <point x="424" y="97"/>
      <point x="465" y="253"/>
      <point x="505" y="409" type="curve" smooth="yes"/>
      <point x="575" y="685"/>
      <point x="648" y="968"/>
      <point x="777" y="1224" type="curve" smooth="yes"/>
      <point x="849" y="1367"/>
      <point x="923" y="1436"/>
      <point x="1076" y="1486" type="curve"/>
      <point x="1069" y="1537"/>
      <point x="1037" y="1609"/>
      <point x="976" y="1609" type="curve" smooth="yes"/>
      <point x="700" y="1609"/>
      <point x="578" y="1120"/>
      <point x="525" y="909" type="curve" smooth="yes"/>
      <point x="457" y="638"/>
      <point x="386" y="354"/>
      <point x="243" y="111" type="curve" smooth="yes"/>
      <point x="178" y="0"/>
      <point x="87" y="-80"/>
      <point x="-15" y="-155" type="curve"/>
      <point x="27" y="-180"/>
      <point x="93" y="-213"/>
    </contour>
  </outline>
</glyph>
<glyph name="zero" format="2">
  <advance width="1382"/>
  <unicode hex="0030"/>
  <outline>
    <contour>
      <point x="662" y="-28" type="curve" smooth="yes"/>
      <point x="1154" y="-28"/>
      <point x="1467" y="410"/>
      <point x="1467" y="873" type="curve" smooth="yes"/>
      <point x="1467" y="1230"/>
      <point x="1287" y="1510"/>
      <point x="904" y="1510" type="curve" smooth="yes"/>
      <point x="409" y="1510"/>
      <point x="97" y="1064"/>
      <point x="97" y="601" type="curve" smooth="yes"/>
      <point x="97" y="243"/>
      <point x="280" y="-28"/>
    </contour>
    <contour>
      <point x="769" y="144" type="curve" smooth="yes"/>
      <point x="439" y="144"/>
      <point x="285" y="360"/>
      <point x="285" y="673" type="curve" smooth="yes"/>
      <point x="285" y="979"/>
      <point x="440" y="1338"/>
      <point x="794" y="1338" type="curve" smooth="yes"/>
      <point x="1124" y="1338"/>
      <point x="1279" y="1125"/>
      <point x="1279" y="811" type="curve" smooth="yes"/>
      <point x="1279" y="502"/>
      <point x="1126" y="144"/>
    </contour>
  </outline>
</glyph>
<glyph name="one" format="2">
  <advance width="1382"/>
  <unicode hex="0031"/>
  <outline>
    <contour>
      <point x="946" y="-13" type="curve" smooth="yes"/>
      <point x="994" y="-13"/>
      <point x="1085" y="47"/>
      <point x="1124" y="76" type="curve"/>
      <point x="1016" y="148"/>
      <point x="972" y="254"/>
      <point x="972" y="381" type="curve" smooth="yes"/>
      <point x="972" y="445"/>
      <point x="983" y="508"/>
      <point x="995" y="571" type="curve" smooth="yes"/>
      <point x="1034" y="776"/>
      <point x="1089" y="977"/>
      <point x="1131" y="1181" type="curve" smooth="yes"/>
      <point x="1141" y="1231"/>
      <point x="1149" y="1281"/>
      <point x="1149" y="1333" type="curve" smooth="yes"/>
      <point x="1149" y="1434"/>
      <point x="1111" y="1510"/>
      <point x="999" y="1510" type="curve" smooth="yes"/>
      <point x="916" y="1510"/>
      <point x="826" y="1446"/>
      <point x="758" y="1403" type="curve" smooth="yes"/>
      <point x="568" y="1284"/>
      <point x="430" y="1220"/>
      <point x="206" y="1185" type="curve"/>
      <point x="254" y="1126"/>
      <point x="336" y="1027"/>
      <point x="418" y="1027" type="curve" smooth="yes"/>
      <point x="590" y="1027"/>
      <point x="787" y="1216"/>
      <point x="913" y="1319" type="curve"/>
      <point x="922" y="1278"/>
      <point x="924" y="1240"/>
      <point x="924" y="1198" type="curve" smooth="yes"/>
      <point x="924" y="997"/>
      <point x="880" y="798"/>
      <point x="837" y="603" type="curve" smooth="yes"/>
      <point x="808" y="472"/>
      <point x="770" y="341"/>
      <point x="770" y="206" type="curve" smooth="yes"/>
      <point x="770" y="87"/>
      <point x="810" y="-13"/>
    </contour>
  </outline>
</glyph>
<glyph name="two" format="2">
  <advance width="1382"/>
  <unicode hex="0032"/>
  <outline>
    <contour>
      <point x="75" y="61" type="curve"/>
      <point x="103" y="12"/>
      <point x="149" y="-32"/>
      <point x="208" y="-34" type="curve"/>
      <point x="255" y="26"/>
      <point x="365" y="23"/>
      <point x="448" y="27" type="curve" smooth="yes"/>
      <point x="532" y="31"/>
      <point x="620" y="31"/>
      <point x="681" y="31" type="curve" smooth="yes"/>
      <point x="882" y="31"/>
      <point x="1091" y="39"/>
      <point x="1289" y="-5" type="curve"/>
      <point x="1290" y="8"/>
      <point x="1290" y="21"/>
      <point x="1290" y="34" type="curve" smooth="yes"/>
      <point x="1290" y="226"/>
      <point x="1158" y="235"/>
      <point x="1004" y="235" type="curve" smooth="yes"/>
      <point x="847" y="235"/>
      <point x="691" y="221"/>
      <point x="537" y="195" type="curve" smooth="yes"/>
      <point x="492" y="187"/>
      <point x="428" y="177"/>
      <point x="387" y="163" type="curve"/>
      <point x="416" y="116" type="line"/>
      <point x="458" y="197"/>
      <point x="542" y="265"/>
      <point x="625" y="328" type="curve" smooth="yes"/>
      <point x="902" y="539"/>
      <point x="1315" y="875"/>
      <point x="1315" y="1177" type="curve" smooth="yes"/>
      <point x="1315" y="1459"/>
      <point x="966" y="1510"/>
      <point x="750" y="1510" type="curve" smooth="yes"/>
      <point x="566" y="1510"/>
      <point x="227" y="1458"/>
      <point x="227" y="1215" type="curve" smooth="yes"/>
      <point x="227" y="1149"/>
      <point x="269" y="1116"/>
      <point x="332" y="1110" type="curve"/>
      <point x="349" y="1292"/>
      <point x="560" y="1350"/>
      <point x="713" y="1350" type="curve" smooth="yes"/>
      <point x="851" y="1350"/>
      <point x="1099" y="1301"/>
      <point x="1099" y="1123" type="curve" smooth="yes"/>
      <point x="1099" y="943"/>
      <point x="814" y="664"/>
      <point x="535" y="429" type="curve" smooth="yes"/>
      <point x="350" y="273"/>
      <point x="169" y="137"/>
    </contour>
  </outline>
</glyph>
<glyph name="three" format="2">
  <advance width="1382"/>
  <unicode hex="0033"/>
  <outline>
    <contour>
      <point x="1265" y="1169" type="curve" smooth="yes"/>
      <point x="1265" y="1448"/>
      <point x="956" y="1510"/>
      <point x="734" y="1510" type="curve" smooth="yes"/>
      <point x="579" y="1510"/>
      <point x="228" y="1469"/>
      <point x="228" y="1258" type="curve" smooth="yes"/>
      <point x="228" y="1200"/>
      <point x="264" y="1166"/>
      <point x="320" y="1160" type="curve"/>
      <point x="393" y="1317"/>
      <point x="535" y="1350"/>
      <point x="694" y="1350" type="curve" smooth="yes"/>
      <point x="823" y="1350"/>
      <point x="1052" y="1294"/>
      <point x="1052" y="1131" type="curve" smooth="yes"/>
      <point x="1052" y="884"/>
      <point x="625" y="893"/>
      <point x="470" y="854" type="curve"/>
      <point x="434" y="831"/>
      <point x="425" y="790"/>
      <point x="425" y="748" type="curve" smooth="yes"/>
      <point x="425" y="724"/>
      <point x="428" y="699"/>
      <point x="431" y="678" type="curve"/>
      <point x="443" y="676"/>
      <point x="455" y="675"/>
      <point x="468" y="675" type="curve" smooth="yes"/>
      <point x="521" y="675"/>
      <point x="574" y="691"/>
      <point x="625" y="703" type="curve" smooth="yes"/>
      <point x="846" y="754"/>
      <point x="1265" y="890"/>
    </contour>
    <contour>
      <point x="520" y="-28" type="curve" smooth="yes"/>
      <point x="824" y="-28"/>
      <point x="1304" y="124"/>
      <point x="1304" y="501" type="curve" smooth="yes"/>
      <point x="1304" y="703"/>
      <point x="1117" y="791"/>
      <point x="943" y="818" type="curve"/>
      <point x="638" y="707" type="line"/>
      <point x="646" y="707"/>
      <point x="654" y="707"/>
      <point x="662" y="706" type="curve" smooth="yes"/>
      <point x="808" y="691"/>
      <point x="1088" y="635"/>
      <point x="1088" y="444" type="curve" smooth="yes"/>
      <point x="1088" y="217"/>
      <point x="766" y="139"/>
      <point x="587" y="139" type="curve" smooth="yes"/>
      <point x="437" y="139"/>
      <point x="242" y="173"/>
      <point x="190" y="338" type="curve"/>
      <point x="124" y="331"/>
      <point x="100" y="271"/>
      <point x="89" y="214" type="curve"/>
      <point x="132" y="30"/>
      <point x="356" y="-28"/>
    </contour>
  </outline>
</glyph>
<glyph name="four" format="2">
  <advance width="1382"/>
  <unicode hex="0034"/>
  <outline>
    <contour>
      <point x="1249" y="480" type="curve" smooth="yes"/>
      <point x="1148" y="465"/>
      <point x="1111" y="467"/>
      <point x="966" y="479" type="curve" smooth="yes"/>
      <point x="691" y="501"/>
      <point x="513" y="474"/>
      <point x="297" y="441" type="curve"/>
      <point x="296" y="432" type="line"/>
      <point x="541" y="663"/>
      <point x="959" y="1071"/>
      <point x="959" y="1405" type="curve" smooth="yes"/>
      <point x="959" y="1462"/>
      <point x="941" y="1510"/>
      <point x="876" y="1510" type="curve" smooth="yes"/>
      <point x="817" y="1510"/>
      <point x="734" y="1467"/>
      <point x="683" y="1439" type="curve"/>
      <point x="707" y="1401"/>
      <point x="726" y="1359"/>
      <point x="726" y="1313" type="curve" smooth="yes"/>
      <point x="726" y="1298"/>
      <point x="724" y="1283"/>
      <point x="721" y="1268" type="curve" smooth="yes"/>
      <point x="639" y="923"/>
      <point x="242" y="550"/>
      <point x="-38" y="346" type="curve"/>
      <point x="-9" y="308"/>
      <point x="27" y="264"/>
      <point x="78" y="258" type="curve"/>
      <point x="157" y="287" type="line" smooth="yes"/>
      <point x="235" y="316"/>
      <point x="612" y="321"/>
      <point x="716" y="321" type="curve" smooth="yes"/>
      <point x="936" y="321"/>
      <point x="1148" y="316"/>
      <point x="1371" y="282" type="curve" smooth="yes"/>
      <point x="1373" y="282"/>
      <point x="1375" y="283"/>
      <point x="1377" y="283" type="curve"/>
      <point x="1380" y="304"/>
      <point x="1382" y="325"/>
      <point x="1382" y="346" type="curve" smooth="yes"/>
      <point x="1382" y="432"/>
      <point x="1335" y="492"/>
    </contour>
    <contour>
      <point x="961" y="157" type="curve" smooth="yes"/>
      <point x="961" y="52"/>
      <point x="1006" y="-12"/>
      <point x="1117" y="-12" type="curve" smooth="yes"/>
      <point x="1172" y="-12"/>
      <point x="1256" y="36"/>
      <point x="1303" y="64" type="curve"/>
      <point x="1209" y="99"/>
      <point x="1183" y="158"/>
      <point x="1183" y="225" type="curve" smooth="yes"/>
      <point x="1183" y="277"/>
      <point x="1199" y="334"/>
      <point x="1211" y="389" type="curve" smooth="yes"/>
      <point x="1228" y="465"/>
      <point x="1255" y="594"/>
      <point x="1255" y="669" type="curve" smooth="yes"/>
      <point x="1255" y="748"/>
      <point x="1217" y="790"/>
      <point x="1137" y="790" type="curve" smooth="yes"/>
      <point x="1082" y="790"/>
      <point x="1024" y="770"/>
      <point x="973" y="750" type="curve"/>
      <point x="1025" y="707"/>
      <point x="1041" y="657"/>
      <point x="1041" y="604" type="curve" smooth="yes"/>
      <point x="1041" y="548"/>
      <point x="1022" y="489"/>
      <point x="1007" y="433" type="curve" smooth="yes"/>
      <point x="982" y="342"/>
      <point x="961" y="253"/>
    </contour>
  </outline>
</glyph>
<glyph name="five" format="2">
  <advance width="1382"/>
  <unicode hex="0035"/>
  <outline>
    <contour>
      <point x="540" y="-28" type="curve" smooth="yes"/>
      <point x="847" y="-28"/>
      <point x="1311" y="118"/>
      <point x="1311" y="500" type="curve" smooth="yes"/>
      <point x="1311" y="843"/>
      <point x="692" y="914"/>
      <point x="442" y="822" type="curve"/>
      <point x="448" y="813" type="line"/>
      <point x="484" y="959"/>
      <point x="547" y="1145"/>
      <point x="547" y="1318" type="curve" smooth="yes"/>
      <point x="547" y="1397"/>
      <point x="522" y="1513"/>
      <point x="420" y="1513" type="curve" smooth="yes"/>
      <point x="371" y="1513"/>
      <point x="312" y="1486"/>
      <point x="270" y="1462" type="curve"/>
      <point x="323" y="1384"/>
      <point x="339" y="1288"/>
      <point x="339" y="1196" type="curve" smooth="yes"/>
      <point x="339" y="1077"/>
      <point x="314" y="959"/>
      <point x="288" y="844" type="curve" smooth="yes"/>
      <point x="275" y="787"/>
      <point x="254" y="730"/>
      <point x="258" y="671" type="curve"/>
      <point x="282" y="673"/>
      <point x="306" y="678"/>
      <point x="329" y="683" type="curve" smooth="yes"/>
      <point x="425" y="702"/>
      <point x="523" y="710"/>
      <point x="621" y="710" type="curve" smooth="yes"/>
      <point x="782" y="710"/>
      <point x="1096" y="665"/>
      <point x="1096" y="451" type="curve" smooth="yes"/>
      <point x="1096" y="220"/>
      <point x="789" y="139"/>
      <point x="604" y="139" type="curve" smooth="yes"/>
      <point x="453" y="139"/>
      <point x="270" y="177"/>
      <point x="222" y="343" type="curve"/>
      <point x="159" y="328"/>
      <point x="119" y="272"/>
      <point x="119" y="208" type="curve" smooth="yes"/>
      <point x="119" y="44"/>
      <point x="412" y="-28"/>
    </contour>
    <contour>
      <point x="495" y="1327" type="line"/>
      <point x="653" y="1256"/>
      <point x="831" y="1247"/>
      <point x="1002" y="1247" type="curve" smooth="yes"/>
      <point x="1173" y="1247"/>
      <point x="1327" y="1282"/>
      <point x="1289" y="1491" type="curve"/>
      <point x="1030" y="1409"/>
      <point x="610" y="1494"/>
      <point x="482" y="1429" type="curve"/>
    </contour>
  </outline>
</glyph>
<glyph name="six" format="2">
  <advance width="1382"/>
  <unicode hex="0036"/>
  <outline>
    <contour>
      <point x="657" y="-28" type="curve" smooth="yes"/>
      <point x="961" y="-28"/>
      <point x="1326" y="156"/>
      <point x="1326" y="500" type="curve" smooth="yes"/>
      <point x="1326" y="770"/>
      <point x="1058" y="878"/>
      <point x="826" y="878" type="curve" smooth="yes"/>
      <point x="720" y="878"/>
      <point x="613" y="864"/>
      <point x="511" y="835" type="curve"/>
      <point x="484" y="797"/>
      <point x="461" y="747"/>
      <point x="461" y="700" type="curve" smooth="yes"/>
      <point x="461" y="689"/>
      <point x="462" y="679"/>
      <point x="465" y="668" type="curve"/>
      <point x="548" y="704"/>
      <point x="662" y="721"/>
      <point x="752" y="721" type="curve" smooth="yes"/>
      <point x="922" y="721"/>
      <point x="1108" y="649"/>
      <point x="1108" y="451" type="curve" smooth="yes"/>
      <point x="1108" y="236"/>
      <point x="887" y="144"/>
      <point x="702" y="144" type="curve" smooth="yes"/>
      <point x="414" y="144"/>
      <point x="301" y="358"/>
      <point x="301" y="619" type="curve" smooth="yes"/>
      <point x="301" y="992"/>
      <point x="524" y="1326"/>
      <point x="923" y="1326" type="curve" smooth="yes"/>
      <point x="1030" y="1326"/>
      <point x="1138" y="1301"/>
      <point x="1234" y="1252" type="curve"/>
      <point x="1272" y="1275"/>
      <point x="1284" y="1327"/>
      <point x="1284" y="1368" type="curve" smooth="yes"/>
      <point x="1284" y="1493"/>
      <point x="1094" y="1510"/>
      <point x="1003" y="1510" type="curve" smooth="yes"/>
      <point x="500" y="1510"/>
      <point x="115" y="1058"/>
      <point x="115" y="570" type="curve" smooth="yes"/>
      <point x="115" y="228"/>
      <point x="295" y="-28"/>
    </contour>
  </outline>
</glyph>
<glyph name="seven" format="2">
  <advance width="1382"/>
  <unicode hex="0037"/>
  <outline>
    <contour>
      <point x="549" y="-28" type="curve" smooth="yes"/>
      <point x="609" y="-28"/>
      <point x="695" y="15"/>
      <point x="747" y="44" type="curve"/>
      <point x="719" y="98"/>
      <point x="706" y="159"/>
      <point x="706" y="219" type="curve" smooth="yes"/>
      <point x="706" y="393"/>
      <point x="803" y="580"/>
      <point x="887" y="729" type="curve" smooth="yes"/>
      <point x="1041" y="1000"/>
      <point x="1262" y="1247"/>
      <point x="1524" y="1418" type="curve"/>
      <point x="1497" y="1456"/>
      <point x="1453" y="1504"/>
      <point x="1404" y="1510" type="curve"/>
      <point x="1234" y="1384"/>
      <point x="1079" y="1234"/>
      <point x="943" y="1072" type="curve" smooth="yes"/>
      <point x="737" y="827"/>
      <point x="462" y="411"/>
      <point x="462" y="83" type="curve" smooth="yes"/>
      <point x="462" y="25"/>
      <point x="481" y="-28"/>
    </contour>
    <contour>
      <point x="1396" y="1386" type="curve"/>
      <point x="1329" y="1480" type="line"/>
      <point x="1138" y="1459"/>
      <point x="946" y="1448"/>
      <point x="754" y="1448" type="curve" smooth="yes"/>
      <point x="560" y="1448"/>
      <point x="367" y="1460"/>
      <point x="176" y="1486" type="curve"/>
      <point x="173" y="1467"/>
      <point x="171" y="1447"/>
      <point x="171" y="1427" type="curve" smooth="yes"/>
      <point x="171" y="1255"/>
      <point x="342" y="1247"/>
      <point x="472" y="1247" type="curve" smooth="yes"/>
      <point x="704" y="1247"/>
      <point x="989" y="1248"/>
    </contour>
  </outline>
</glyph>
<glyph name="eight" format="2">
  <advance width="1382"/>
  <unicode hex="0038"/>
  <outline>
    <contour>
      <point x="651" y="-28" type="curve" smooth="yes"/>
      <point x="903" y="-28"/>
      <point x="1302" y="64"/>
      <point x="1302" y="382" type="curve" smooth="yes"/>
      <point x="1302" y="613"/>
      <point x="1026" y="727"/>
      <point x="850" y="809" type="curve" smooth="yes"/>
      <point x="735" y="862"/>
      <point x="425" y="999"/>
      <point x="425" y="1145" type="curve" smooth="yes"/>
      <point x="425" y="1303"/>
      <point x="683" y="1341"/>
      <point x="801" y="1341" type="curve" smooth="yes"/>
      <point x="910" y="1341"/>
      <point x="1128" y="1323"/>
      <point x="1162" y="1194" type="curve"/>
      <point x="1164" y="1219" type="line"/>
      <point x="1124" y="1093"/>
      <point x="1045" y="969"/>
      <point x="945" y="882" type="curve"/>
      <point x="948" y="848"/>
      <point x="967" y="814"/>
      <point x="1001" y="802" type="curve"/>
      <point x="1173" y="866"/>
      <point x="1345" y="1004"/>
      <point x="1345" y="1203" type="curve" smooth="yes"/>
      <point x="1345" y="1443"/>
      <point x="1057" y="1510"/>
      <point x="866" y="1510" type="curve" smooth="yes"/>
      <point x="610" y="1510"/>
      <point x="230" y="1420"/>
      <point x="230" y="1100" type="curve" smooth="yes"/>
      <point x="230" y="852"/>
      <point x="517" y="724"/>
      <point x="707" y="635" type="curve" smooth="yes"/>
      <point x="801" y="591"/>
      <point x="1102" y="459"/>
      <point x="1102" y="339" type="curve" smooth="yes"/>
      <point x="1102" y="172"/>
      <point x="784" y="140"/>
      <point x="663" y="140" type="curve" smooth="yes"/>
      <point x="542" y="140"/>
      <point x="271" y="186"/>
      <point x="271" y="347" type="curve" smooth="yes"/>
      <point x="271" y="492"/>
      <point x="496" y="613"/>
      <point x="637" y="691" type="curve"/>
      <point x="624" y="789" type="line"/>
      <point x="521" y="755"/>
      <point x="414" y="728"/>
      <point x="319" y="673" type="curve" smooth="yes"/>
      <point x="187" y="597"/>
      <point x="89" y="479"/>
      <point x="89" y="321" type="curve" smooth="yes"/>
      <point x="89" y="45"/>
      <point x="434" y="-28"/>
    </contour>
  </outline>
</glyph>
<glyph name="colon" format="2">
  <advance width="673"/>
  <unicode hex="003A"/>
  <outline>
    <contour>
      <point x="352" y="-25" type="curve" smooth="yes"/>
      <point x="405" y="-25"/>
      <point x="457" y="-10"/>
      <point x="507" y="7" type="curve"/>
      <point x="531" y="54"/>
      <point x="555" y="107"/>
      <point x="555" y="161" type="curve" smooth="yes"/>
      <point x="555" y="241"/>
      <point x="492" y="263"/>
      <point x="423" y="263" type="curve" smooth="yes"/>
      <point x="367" y="263"/>
      <point x="312" y="248"/>
      <point x="259" y="230" type="curve"/>
      <point x="243" y="179"/>
      <point x="229" y="127"/>
      <point x="229" y="73" type="curve" smooth="yes"/>
      <point x="229" y="-7"/>
      <point x="282" y="-25"/>
    </contour>
    <contour>
      <point x="384" y="829" type="curve" smooth="yes"/>
      <point x="437" y="829"/>
      <point x="489" y="844"/>
      <point x="539" y="860" type="curve"/>
      <point x="562" y="907"/>
      <point x="587" y="960"/>
      <point x="587" y="1014" type="curve" smooth="yes"/>
      <point x="587" y="1094"/>
      <point x="524" y="1116"/>
      <point x="455" y="1116" type="curve" smooth="yes"/>
      <point x="399" y="1116"/>
      <point x="344" y="1102"/>
      <point x="291" y="1084" type="curve"/>
      <point x="275" y="1033"/>
      <point x="261" y="980"/>
      <point x="261" y="927" type="curve" smooth="yes"/>
      <point x="261" y="847"/>
      <point x="314" y="829"/>
    </contour>
  </outline>
</glyph>
<glyph name="semicolon" format="2">
  <advance width="714"/>
  <unicode hex="003B"/>
  <outline>
    <contour>
      <point x="124" y="-228" type="curve" smooth="yes"/>
      <point x="320" y="-228"/>
      <point x="573" y="-74"/>
      <point x="573" y="142" type="curve" smooth="yes"/>
      <point x="573" y="209"/>
      <point x="545" y="263"/>
      <point x="471" y="263" type="curve" smooth="yes"/>
      <point x="392" y="263"/>
      <point x="272" y="210"/>
      <point x="200" y="176" type="curve"/>
      <point x="262" y="177"/>
      <point x="358" y="98"/>
      <point x="358" y="34" type="curve" smooth="yes"/>
      <point x="358" y="-85"/>
      <point x="155" y="-98"/>
      <point x="71" y="-106" type="curve"/>
      <point x="47" y="-179"/>
      <point x="69" y="-228"/>
    </contour>
    <contour>
      <point x="409" y="829" type="curve" smooth="yes"/>
      <point x="462" y="829"/>
      <point x="515" y="844"/>
      <point x="565" y="860" type="curve"/>
      <point x="588" y="908"/>
      <point x="612" y="961"/>
      <point x="612" y="1015" type="curve" smooth="yes"/>
      <point x="612" y="1095"/>
      <point x="549" y="1116"/>
      <point x="480" y="1116" type="curve" smooth="yes"/>
      <point x="424" y="1116"/>
      <point x="369" y="1102"/>
      <point x="316" y="1084" type="curve"/>
      <point x="300" y="1033"/>
      <point x="286" y="980"/>
      <point x="286" y="927" type="curve" smooth="yes"/>
      <point x="286" y="847"/>
      <point x="339" y="829"/>
    </contour>
  </outline>
</glyph>
<glyph name="less" format="2">
  <advance width="1382"/>
  <unicode hex="003C"/>
  <outline>
    <contour>
      <point x="1178" y="346" type="curve" smooth="yes"/>
      <point x="1255" y="346"/>
      <point x="1276" y="473"/>
      <point x="1283" y="530" type="curve"/>
      <point x="1000" y="548"/>
      <point x="752" y="701"/>
      <point x="488" y="784" type="curve"/>
      <point x="489" y="776" type="line"/>
      <point x="651" y="820"/>
      <point x="817" y="850"/>
      <point x="982" y="880" type="curve" smooth="yes"/>
      <point x="1088" y="900"/>
      <point x="1264" y="912"/>
      <point x="1264" y="1052" type="curve" smooth="yes"/>
      <point x="1264" y="1091"/>
      <point x="1243" y="1127"/>
      <point x="1204" y="1137" type="curve"/>
      <point x="1118" y="1086"/>
      <point x="792" y="1020"/>
      <point x="678" y="996" type="curve" smooth="yes"/>
      <point x="533" y="965"/>
      <point x="150" y="917"/>
      <point x="153" y="699" type="curve"/>
      <point x="420" y="670"/>
      <point x="1080" y="346"/>
    </contour>
  </outline>
</glyph>
<glyph name="equal" format="2">
  <advance width="1382"/>
  <unicode hex="003D"/>
  <outline>
    <contour>
      <point x="204" y="522" type="curve" smooth="yes"/>
      <point x="204" y="489"/>
      <point x="217" y="456"/>
      <point x="234" y="428" type="curve"/>
      <point x="292" y="439"/>
      <point x="351" y="441"/>
      <point x="410" y="441" type="curve" smooth="yes"/>
      <point x="645" y="441"/>
      <point x="879" y="434"/>
      <point x="1114" y="434" type="curve" smooth="yes"/>
      <point x="1199" y="434"/>
      <point x="1376" y="453"/>
      <point x="1376" y="569" type="curve" smooth="yes"/>
      <point x="1376" y="592"/>
      <point x="1370" y="615"/>
      <point x="1360" y="636" type="curve"/>
      <point x="1248" y="623"/>
      <point x="1136" y="622"/>
      <point x="1024" y="622" type="curve" smooth="yes"/>
      <point x="790" y="622"/>
      <point x="556" y="638"/>
      <point x="322" y="638" type="curve" smooth="yes"/>
      <point x="254" y="638"/>
      <point x="204" y="591"/>
    </contour>
    <contour>
      <point x="185" y="919" type="curve" smooth="yes"/>
      <point x="185" y="887"/>
      <point x="198" y="857"/>
      <point x="217" y="832" type="curve"/>
      <point x="274" y="843"/>
      <point x="333" y="845"/>
      <point x="391" y="845" type="curve" smooth="yes"/>
      <point x="623" y="845"/>
      <point x="856" y="838"/>
      <point x="1088" y="838" type="curve" smooth="yes"/>
      <point x="1174" y="838"/>
      <point x="1358" y="856"/>
      <point x="1358" y="973" type="curve" smooth="yes"/>
      <point x="1358" y="996"/>
      <point x="1350" y="1019"/>
      <point x="1341" y="1040" type="curve"/>
      <point x="1215" y="1025"/>
      <point x="1088" y="1025"/>
      <point x="961" y="1025" type="curve" smooth="yes"/>
      <point x="742" y="1025"/>
      <point x="523" y="1042"/>
      <point x="304" y="1042" type="curve" smooth="yes"/>
      <point x="228" y="1042"/>
      <point x="185" y="994"/>
    </contour>
  </outline>
</glyph>
<glyph name="greater" format="2">
  <advance width="1382"/>
  <unicode hex="003E"/>
  <outline>
    <contour>
      <point x="398" y="346" type="curve" smooth="yes"/>
      <point x="428" y="346"/>
      <point x="697" y="464"/>
      <point x="747" y="485" type="curve" smooth="yes"/>
      <point x="945" y="569"/>
      <point x="1184" y="677"/>
      <point x="1398" y="701" type="curve"/>
      <point x="1388" y="909"/>
      <point x="1005" y="967"/>
      <point x="848" y="1000" type="curve" smooth="yes"/>
      <point x="717" y="1028"/>
      <point x="432" y="1080"/>
      <point x="324" y="1138" type="curve"/>
      <point x="303" y="1105"/>
      <point x="283" y="1065"/>
      <point x="283" y="1025" type="curve" smooth="yes"/>
      <point x="283" y="916"/>
      <point x="454" y="896"/>
      <point x="533" y="882" type="curve" smooth="yes"/>
      <point x="648" y="862"/>
      <point x="764" y="840"/>
      <point x="878" y="814" type="curve" smooth="yes"/>
      <point x="934" y="801"/>
      <point x="989" y="783"/>
      <point x="1047" y="777" type="curve"/>
      <point x="1047" y="782" type="line"/>
      <point x="1013" y="770"/>
      <point x="982" y="750"/>
      <point x="950" y="734" type="curve" smooth="yes"/>
      <point x="783" y="651"/>
      <point x="473" y="542"/>
      <point x="288" y="529" type="curve"/>
      <point x="295" y="473"/>
      <point x="325" y="346"/>
    </contour>
  </outline>
</glyph>
<glyph name="question" format="2">
  <advance width="1135"/>
  <unicode hex="003F"/>
  <outline>
    <contour>
      <point x="594" y="390" type="curve"/>
      <point x="819" y="551"/>
      <point x="1246" y="897"/>
      <point x="1246" y="1176" type="curve" smooth="yes"/>
      <point x="1246" y="1449"/>
      <point x="873" y="1510"/>
      <point x="664" y="1510" type="curve" smooth="yes"/>
      <point x="497" y="1510"/>
      <point x="157" y="1457"/>
      <point x="157" y="1235" type="curve" smooth="yes"/>
      <point x="157" y="1155"/>
      <point x="213" y="1104"/>
      <point x="288" y="1089" type="curve"/>
      <point x="287" y="1099"/>
      <point x="287" y="1108"/>
      <point x="287" y="1118" type="curve" smooth="yes"/>
      <point x="287" y="1323"/>
      <point x="480" y="1350"/>
      <point x="642" y="1350" type="curve" smooth="yes"/>
      <point x="779" y="1350"/>
      <point x="1027" y="1296"/>
      <point x="1027" y="1118" type="curve" smooth="yes"/>
      <point x="1027" y="929"/>
      <point x="651" y="583"/>
      <point x="507" y="464" type="curve"/>
      <point x="522" y="442"/>
      <point x="557" y="413"/>
    </contour>
    <contour>
      <point x="535" y="-25" type="curve" smooth="yes"/>
      <point x="588" y="-25"/>
      <point x="640" y="-8"/>
      <point x="689" y="11" type="curve"/>
      <point x="710" y="58"/>
      <point x="731" y="110"/>
      <point x="731" y="162" type="curve" smooth="yes"/>
      <point x="731" y="241"/>
      <point x="671" y="263"/>
      <point x="602" y="263" type="curve" smooth="yes"/>
      <point x="547" y="263"/>
      <point x="492" y="245"/>
      <point x="441" y="227" type="curve"/>
      <point x="428" y="177"/>
      <point x="413" y="126"/>
      <point x="413" y="74" type="curve" smooth="yes"/>
      <point x="413" y="-6"/>
      <point x="465" y="-25"/>
    </contour>
  </outline>
</glyph>
<glyph name="at" format="2">
  <advance width="1906"/>
  <unicode hex="0040"/>
  <outline>
    <contour>
      <point x="933" y="-169" type="curve" smooth="yes"/>
      <point x="1050" y="-169"/>
      <point x="1563" y="-136"/>
      <point x="1563" y="23" type="curve" smooth="yes"/>
      <point x="1563" y="63"/>
      <point x="1543" y="103"/>
      <point x="1514" y="130" type="curve"/>
      <point x="1339" y="40"/>
      <point x="1143" y="-12"/>
      <point x="946" y="-12" type="curve" smooth="yes"/>
      <point x="561" y="-12"/>
      <point x="342" y="169"/>
      <point x="342" y="565" type="curve" smooth="yes"/>
      <point x="342" y="1032"/>
      <point x="659" y="1422"/>
      <point x="1152" y="1422" type="curve" smooth="yes"/>
      <point x="1543" y="1422"/>
      <point x="1796" y="1268"/>
      <point x="1796" y="848" type="curve" smooth="yes"/>
      <point x="1796" y="657"/>
      <point x="1731" y="370"/>
      <point x="1491" y="370" type="curve" smooth="yes"/>
      <point x="1381" y="370"/>
      <point x="1359" y="467"/>
      <point x="1359" y="557" type="curve" smooth="yes"/>
      <point x="1359" y="738"/>
      <point x="1383" y="947"/>
      <point x="1446" y="1118" type="curve"/>
      <point x="1402" y="1141"/>
      <point x="1351" y="1162"/>
      <point x="1301" y="1167" type="curve"/>
      <point x="1292" y="1040"/>
      <point x="1247" y="904"/>
      <point x="1196" y="784" type="curve" smooth="yes"/>
      <point x="1157" y="692"/>
      <point x="1029" y="456"/>
      <point x="916" y="456" type="curve" smooth="yes"/>
      <point x="831" y="456"/>
      <point x="821" y="572"/>
      <point x="821" y="635" type="curve" smooth="yes"/>
      <point x="821" y="796"/>
      <point x="892" y="1027"/>
      <point x="1088" y="1027" type="curve" smooth="yes"/>
      <point x="1153" y="1027"/>
      <point x="1221" y="1009"/>
      <point x="1271" y="969" type="curve"/>
      <point x="1311" y="1071" type="line"/>
      <point x="1252" y="1128"/>
      <point x="1180" y="1179"/>
      <point x="1094" y="1179" type="curve" smooth="yes"/>
      <point x="805" y="1179"/>
      <point x="644" y="821"/>
      <point x="644" y="572" type="curve" smooth="yes"/>
      <point x="644" y="435"/>
      <point x="685" y="260"/>
      <point x="855" y="260" type="curve" smooth="yes"/>
      <point x="1012" y="260"/>
      <point x="1156" y="534"/>
      <point x="1226" y="669" type="curve"/>
      <point x="1208" y="669" type="line"/>
      <point x="1205" y="626"/>
      <point x="1202" y="582"/>
      <point x="1202" y="539" type="curve" smooth="yes"/>
      <point x="1202" y="349"/>
      <point x="1253" y="213"/>
      <point x="1468" y="213" type="curve" smooth="yes"/>
      <point x="1807" y="213"/>
      <point x="1972" y="620"/>
      <point x="1972" y="908" type="curve" smooth="yes"/>
      <point x="1972" y="1380"/>
      <point x="1642" y="1579"/>
      <point x="1206" y="1579" type="curve" smooth="yes"/>
      <point x="642" y="1579"/>
      <point x="166" y="1130"/>
      <point x="166" y="560" type="curve" smooth="yes"/>
      <point x="166" y="55"/>
      <point x="444" y="-169"/>
    </contour>
  </outline>
</glyph>
<glyph name="A" format="2">
  <advance width="1560"/>
  <unicode hex="0041"/>
  <anchor x="871" y="0" name="bottom"/>
  <anchor x="1563" y="17" name="ogonek"/>
  <anchor x="1065" y="1510" name="top"/>
  <outline>
    <contour>
      <point x="320" y="421" type="line"/>
      <point x="452" y="411"/>
      <point x="584" y="408"/>
      <point x="717" y="408" type="curve" smooth="yes"/>
      <point x="880" y="408"/>
      <point x="1045" y="410"/>
      <point x="1207" y="425" type="curve"/>
      <point x="1226" y="534" type="line"/>
      <point x="1076" y="534"/>
      <point x="923" y="539"/>
      <point x="774" y="539" type="curve" smooth="yes"/>
      <point x="635" y="539"/>
      <point x="498" y="540"/>
      <point x="363" y="543" type="curve"/>
    </contour>
    <contour>
      <point x="1526" y="-11" type="curve" smooth="yes"/>
      <point x="1582" y="-11"/>
      <point x="1639" y="45"/>
      <point x="1670" y="88" type="curve"/>
      <point x="1580" y="135"/>
      <point x="1483" y="197"/>
      <point x="1431" y="287" type="curve" smooth="yes"/>
      <point x="1341" y="445"/>
      <point x="1303" y="676"/>
      <point x="1277" y="856" type="curve" smooth="yes"/>
      <point x="1254" y="1014"/>
      <point x="1241" y="1228"/>
      <point x="1160" y="1366" type="curve" smooth="yes"/>
      <point x="1099" y="1470"/>
      <point x="1041" y="1511"/>
      <point x="918" y="1511" type="curve" smooth="yes"/>
      <point x="874" y="1511"/>
      <point x="817" y="1489"/>
      <point x="777" y="1471" type="curve"/>
      <point x="850" y="1404"/>
      <point x="929" y="1315"/>
      <point x="976" y="1226" type="curve" smooth="yes"/>
      <point x="1151" y="891"/>
      <point x="1058" y="509"/>
      <point x="1242" y="178" type="curve" smooth="yes"/>
      <point x="1310" y="55"/>
      <point x="1378" y="-11"/>
    </contour>
    <contour>
      <point x="243" y="179" type="curve" smooth="yes"/>
      <point x="243" y="343"/>
      <point x="548" y="712"/>
      <point x="649" y="854" type="curve" smooth="yes"/>
      <point x="756" y="1005"/>
      <point x="869" y="1158"/>
      <point x="945" y="1333" type="curve"/>
      <point x="913" y="1447" type="line"/>
      <point x="777" y="1471" type="line"/>
      <point x="787" y="1444"/>
      <point x="795" y="1416"/>
      <point x="795" y="1387" type="curve" smooth="yes"/>
      <point x="795" y="1237"/>
      <point x="640" y="1044"/>
      <point x="555" y="924" type="curve" smooth="yes"/>
      <point x="488" y="829"/>
      <point x="417" y="736"/>
      <point x="346" y="643" type="curve" smooth="yes"/>
      <point x="240" y="505"/>
      <point x="26" y="251"/>
      <point x="26" y="75" type="curve" smooth="yes"/>
      <point x="26" y="22"/>
      <point x="50" y="-11"/>
      <point x="106" y="-11" type="curve" smooth="yes"/>
      <point x="172" y="-11"/>
      <point x="247" y="37"/>
      <point x="291" y="74" type="curve"/>
      <point x="264" y="102"/>
      <point x="243" y="139"/>
    </contour>
  </outline>
</glyph>
<glyph name="B" format="2">
  <advance width="1544"/>
  <unicode hex="0042"/>
  <anchor x="905" y="0" name="bottom"/>
  <anchor x="876" y="756" name="center"/>
  <anchor x="850" y="1510" name="top"/>
  <outline>
    <contour>
      <point x="716" y="-20" type="curve" smooth="yes"/>
      <point x="1032" y="-20"/>
      <point x="1589" y="101"/>
      <point x="1589" y="516" type="curve" smooth="yes"/>
      <point x="1589" y="764"/>
      <point x="1277" y="822"/>
      <point x="1102" y="831" type="curve"/>
      <point x="1103" y="802" type="line"/>
      <point x="1243" y="845"/>
      <point x="1523" y="981"/>
      <point x="1523" y="1201" type="curve" smooth="yes"/>
      <point x="1523" y="1461"/>
      <point x="1073" y="1510"/>
      <point x="883" y="1510" type="curve" smooth="yes"/>
      <point x="707" y="1510"/>
      <point x="531" y="1494"/>
      <point x="356" y="1474" type="curve"/>
      <point x="402" y="1387"/>
      <point x="424" y="1289"/>
      <point x="424" y="1190" type="curve" smooth="yes"/>
      <point x="424" y="863"/>
      <point x="256" y="551"/>
      <point x="256" y="225" type="curve" smooth="yes"/>
      <point x="256" y="175"/>
      <point x="264" y="133"/>
      <point x="292" y="91" type="curve" smooth="yes"/>
      <point x="363" y="-17"/>
      <point x="600" y="-20"/>
    </contour>
    <contour>
      <point x="489" y="834" type="curve"/>
      <point x="469" y="701" type="line"/>
      <point x="573" y="717"/>
      <point x="678" y="728"/>
      <point x="784" y="728" type="curve" smooth="yes"/>
      <point x="954" y="728"/>
      <point x="1396" y="687"/>
      <point x="1396" y="449" type="curve" smooth="yes"/>
      <point x="1396" y="230"/>
      <point x="1069" y="142"/>
      <point x="797" y="142" type="curve" smooth="yes"/>
      <point x="675" y="142"/>
      <point x="564" y="154"/>
      <point x="498" y="168" type="curve"/>
      <point x="472" y="246"/>
      <point x="462" y="325"/>
      <point x="462" y="404" type="curve" smooth="yes"/>
      <point x="462" y="728"/>
      <point x="618" y="1029"/>
      <point x="635" y="1351" type="curve"/>
      <point x="704" y="1369"/>
      <point x="776" y="1369"/>
      <point x="847" y="1369" type="curve" smooth="yes"/>
      <point x="990" y="1369"/>
      <point x="1339" y="1332"/>
      <point x="1339" y="1136" type="curve" smooth="yes"/>
      <point x="1339" y="866"/>
      <point x="683" y="833"/>
    </contour>
  </outline>
</glyph>
<glyph name="C" format="2">
  <advance width="1450"/>
  <unicode hex="0043"/>
  <anchor x="914" y="0" name="bottom"/>
  <anchor x="1105" y="1510" name="top"/>
  <outline>
    <contour>
      <point x="952" y="-36" type="curve" smooth="yes"/>
      <point x="1161" y="-36"/>
      <point x="1506" y="28"/>
      <point x="1509" y="293" type="curve"/>
      <point x="1403" y="145"/>
      <point x="1195" y="124"/>
      <point x="1026" y="124" type="curve" smooth="yes"/>
      <point x="659" y="124"/>
      <point x="371" y="289"/>
      <point x="371" y="690" type="curve" smooth="yes"/>
      <point x="371" y="1082"/>
      <point x="624" y="1338"/>
      <point x="1015" y="1338" type="curve" smooth="yes"/>
      <point x="1171" y="1338"/>
      <point x="1383" y="1316"/>
      <point x="1487" y="1184" type="curve"/>
      <point x="1524" y="1209"/>
      <point x="1544" y="1287"/>
      <point x="1544" y="1331" type="curve" smooth="yes"/>
      <point x="1544" y="1489"/>
      <point x="1277" y="1510"/>
      <point x="1164" y="1510" type="curve" smooth="yes"/>
      <point x="645" y="1510"/>
      <point x="176" y="1129"/>
      <point x="176" y="585" type="curve" smooth="yes"/>
      <point x="176" y="317"/>
      <point x="318" y="115"/>
      <point x="569" y="22" type="curve" smooth="yes"/>
      <point x="689" y="-22"/>
      <point x="825" y="-36"/>
    </contour>
  </outline>
</glyph>
<glyph name="D" format="2">
  <advance width="1773"/>
  <unicode hex="0044"/>
  <anchor x="1045" y="0" name="bottom"/>
  <anchor x="1011" y="756" name="center"/>
  <anchor x="1146" y="1510" name="top"/>
  <outline>
    <contour>
      <point x="756" y="-20" type="curve" smooth="yes"/>
      <point x="1310" y="-20"/>
      <point x="1817" y="350"/>
      <point x="1817" y="941" type="curve" smooth="yes"/>
      <point x="1817" y="1424"/>
      <point x="1333" y="1498"/>
      <point x="952" y="1498" type="curve" smooth="yes"/>
      <point x="760" y="1498"/>
      <point x="568" y="1483"/>
      <point x="378" y="1458" type="curve"/>
      <point x="424" y="1367"/>
      <point x="450" y="1267"/>
      <point x="450" y="1165" type="curve" smooth="yes"/>
      <point x="450" y="844"/>
      <point x="280" y="548"/>
      <point x="280" y="229" type="curve" smooth="yes"/>
      <point x="280" y="-20"/>
      <point x="575" y="-20"/>
    </contour>
    <contour>
      <point x="665" y="1339" type="curve"/>
      <point x="757" y="1351"/>
      <point x="855" y="1359"/>
      <point x="953" y="1359" type="curve" smooth="yes"/>
      <point x="1296" y="1359"/>
      <point x="1629" y="1257"/>
      <point x="1629" y="835" type="curve" smooth="yes"/>
      <point x="1629" y="370"/>
      <point x="1223" y="131"/>
      <point x="810" y="131" type="curve" smooth="yes"/>
      <point x="715" y="131"/>
      <point x="619" y="143"/>
      <point x="528" y="169" type="curve"/>
      <point x="495" y="238"/>
      <point x="480" y="306"/>
      <point x="480" y="382" type="curve" smooth="yes"/>
      <point x="480" y="709"/>
      <point x="640" y="1021"/>
    </contour>
  </outline>
</glyph>
<glyph name="E" format="2">
  <advance width="1270"/>
  <unicode hex="0045"/>
  <anchor x="727" y="0" name="bottom"/>
  <anchor x="1314" y="17" name="ogonek"/>
  <anchor x="986" y="1510" name="top"/>
  <anchor x="33" y="1510" name="topleft"/>
  <outline>
    <contour>
      <point x="336" y="817" type="curve" smooth="yes"/>
      <point x="268" y="817"/>
      <point x="205" y="774"/>
      <point x="205" y="700" type="curve" smooth="yes"/>
      <point x="205" y="694"/>
      <point x="205" y="688"/>
      <point x="206" y="681" type="curve"/>
      <point x="401" y="685"/>
      <point x="596" y="684"/>
      <point x="848" y="684" type="curve" smooth="yes"/>
      <point x="962" y="684"/>
      <point x="1125" y="696"/>
      <point x="1107" y="853" type="curve"/>
      <point x="930" y="815"/>
      <point x="534" y="817"/>
    </contour>
    <contour>
      <point x="605" y="1323" type="line"/>
      <point x="801" y="1301"/>
      <point x="997" y="1281"/>
      <point x="1194" y="1281" type="curve" smooth="yes"/>
      <point x="1345" y="1281"/>
      <point x="1421" y="1329"/>
      <point x="1436" y="1487" type="curve"/>
      <point x="1378" y="1471"/>
      <point x="1262" y="1472"/>
      <point x="1199" y="1472" type="curve" smooth="yes"/>
      <point x="1029" y="1472"/>
      <point x="860" y="1476"/>
      <point x="690" y="1476" type="curve" smooth="yes"/>
      <point x="581" y="1476"/>
      <point x="465" y="1474"/>
      <point x="367" y="1421" type="curve"/>
      <point x="369" y="1416"/>
      <point x="371" y="1411"/>
      <point x="373" y="1406" type="curve"/>
    </contour>
    <contour>
      <point x="342" y="756" type="line"/>
      <point x="297" y="562"/>
      <point x="220" y="364"/>
      <point x="220" y="162" type="curve" smooth="yes"/>
      <point x="220" y="67"/>
      <point x="249" y="-15"/>
      <point x="359" y="-15" type="curve" smooth="yes"/>
      <point x="392" y="-15"/>
      <point x="436" y="-1"/>
      <point x="468" y="21" type="curve"/>
      <point x="600" y="-7"/>
      <point x="848" y="-19"/>
      <point x="984" y="-19" type="curve" smooth="yes"/>
      <point x="1151" y="-19"/>
      <point x="1285" y="-5"/>
      <point x="1305" y="196" type="curve"/>
      <point x="1230" y="171"/>
      <point x="1010" y="173"/>
      <point x="922" y="173" type="curve" smooth="yes"/>
      <point x="746" y="173"/>
      <point x="571" y="175"/>
      <point x="395" y="182" type="curve"/>
      <point x="429" y="161" type="line"/>
      <point x="426" y="190"/>
      <point x="425" y="219"/>
      <point x="425" y="248" type="curve" smooth="yes"/>
      <point x="425" y="418"/>
      <point x="474" y="590"/>
      <point x="509" y="756" type="curve"/>
    </contour>
    <contour>
      <point x="509" y="756" type="line"/>
      <point x="551" y="946"/>
      <point x="617" y="1136"/>
      <point x="620" y="1336" type="curve"/>
      <point x="380" y="1428" type="line"/>
      <point x="376" y="1426"/>
      <point x="372" y="1424"/>
      <point x="367" y="1421" type="curve"/>
      <point x="401" y="1345"/>
      <point x="414" y="1265"/>
      <point x="414" y="1185" type="curve" smooth="yes"/>
      <point x="414" y="1042"/>
      <point x="374" y="897"/>
      <point x="343" y="756" type="curve"/>
    </contour>
  </outline>
</glyph>
<glyph name="F" format="2">
  <advance width="1255"/>
  <unicode hex="0046"/>
  <anchor x="743" y="0" name="bottom"/>
  <anchor x="706" y="1510" name="top"/>
  <outline>
    <contour>
      <point x="528" y="756" type="line"/>
      <point x="570" y="946"/>
      <point x="636" y="1136"/>
      <point x="639" y="1336" type="curve"/>
      <point x="399" y="1428" type="line"/>
      <point x="395" y="1426"/>
      <point x="391" y="1424"/>
      <point x="386" y="1421" type="curve"/>
      <point x="420" y="1345"/>
      <point x="433" y="1265"/>
      <point x="433" y="1185" type="curve" smooth="yes"/>
      <point x="433" y="1042"/>
      <point x="393" y="897"/>
      <point x="362" y="756" type="curve"/>
    </contour>
    <contour>
      <point x="362" y="756" type="line"/>
      <point x="341" y="669"/>
      <point x="265" y="404"/>
      <point x="265" y="211" type="curve" smooth="yes"/>
      <point x="265" y="84"/>
      <point x="304" y="-13"/>
      <point x="433" y="-13" type="curve" smooth="yes"/>
      <point x="481" y="-13"/>
      <point x="565" y="46"/>
      <point x="603" y="75" type="curve"/>
      <point x="499" y="153"/>
      <point x="466" y="262"/>
      <point x="466" y="378" type="curve" smooth="yes"/>
      <point x="466" y="504"/>
      <point x="504" y="639"/>
      <point x="528" y="756" type="curve"/>
    </contour>
    <contour>
      <point x="624" y="1323" type="line"/>
      <point x="820" y="1301"/>
      <point x="1016" y="1281"/>
      <point x="1213" y="1281" type="curve" smooth="yes"/>
      <point x="1364" y="1281"/>
      <point x="1440" y="1329"/>
      <point x="1455" y="1487" type="curve"/>
      <point x="1397" y="1471"/>
      <point x="1281" y="1472"/>
      <point x="1218" y="1472" type="curve" smooth="yes"/>
      <point x="1048" y="1472"/>
      <point x="879" y="1476"/>
      <point x="709" y="1476" type="curve" smooth="yes"/>
      <point x="600" y="1476"/>
      <point x="484" y="1474"/>
      <point x="386" y="1421" type="curve"/>
      <point x="388" y="1416"/>
      <point x="390" y="1411"/>
      <point x="392" y="1406" type="curve"/>
    </contour>
    <contour>
      <point x="348.558" y="817" type="curve" smooth="yes"/>
      <point x="273.969" y="817"/>
      <point x="204.864" y="774"/>
      <point x="204.864" y="700" type="curve" smooth="yes"/>
      <point x="204.864" y="694"/>
      <point x="204.864" y="688"/>
      <point x="205.961" y="681" type="curve"/>
      <point x="419.857" y="685"/>
      <point x="633.752" y="684"/>
      <point x="910.171" y="684" type="curve" smooth="yes"/>
      <point x="1035.22" y="684"/>
      <point x="1214.01" y="696"/>
      <point x="1194.27" y="853" type="curve"/>
      <point x="1000.12" y="815"/>
      <point x="565.745" y="817"/>
    </contour>
  </outline>
</glyph>
<glyph name="G" format="2">
  <advance width="1469"/>
  <unicode hex="0047"/>
  <anchor x="826" y="0" name="bottom"/>
  <anchor x="1032" y="1510" name="top"/>
  <outline>
    <contour>
      <point x="715" y="-36" type="curve" smooth="yes"/>
      <point x="921" y="-36"/>
      <point x="1135" y="70"/>
      <point x="1273" y="172" type="curve"/>
      <point x="1263" y="279" type="line"/>
      <point x="1152" y="160"/>
      <point x="943" y="124"/>
      <point x="796" y="124" type="curve" smooth="yes"/>
      <point x="478" y="124"/>
      <point x="371" y="411"/>
      <point x="371" y="684" type="curve" smooth="yes"/>
      <point x="371" y="1019"/>
      <point x="554" y="1338"/>
      <point x="923" y="1338" type="curve" smooth="yes"/>
      <point x="1066" y="1338"/>
      <point x="1229" y="1311"/>
      <point x="1316" y="1185" type="curve"/>
      <point x="1365" y="1203"/>
      <point x="1387" y="1287"/>
      <point x="1387" y="1334" type="curve" smooth="yes"/>
      <point x="1387" y="1486"/>
      <point x="1167" y="1510"/>
      <point x="1055" y="1510" type="curve" smooth="yes"/>
      <point x="548" y="1510"/>
      <point x="176" y="1065"/>
      <point x="176" y="573" type="curve" smooth="yes"/>
      <point x="176" y="232"/>
      <point x="349" y="-36"/>
    </contour>
    <contour>
      <point x="1222" y="162.5" type="curve" smooth="yes"/>
      <point x="1222" y="4"/>
      <point x="1286" y="-12"/>
      <point x="1317.91" y="-12" type="curve" smooth="yes"/>
      <point x="1376" y="-12"/>
      <point x="1447" y="41"/>
      <point x="1478" y="66" type="curve"/>
      <point x="1423" y="112"/>
      <point x="1382" y="169"/>
      <point x="1382" y="243" type="curve" smooth="yes"/>
      <point x="1382" y="382"/>
      <point x="1461" y="519"/>
      <point x="1461" y="669" type="curve" smooth="yes"/>
      <point x="1461" y="737"/>
      <point x="1439" y="794"/>
      <point x="1361" y="794" type="curve" smooth="yes"/>
      <point x="1321" y="794"/>
      <point x="1268" y="771"/>
      <point x="1232" y="754" type="curve"/>
      <point x="1265" y="698"/>
      <point x="1286" y="634"/>
      <point x="1286" y="569" type="curve" smooth="yes"/>
      <point x="1286" y="429"/>
      <point x="1222" y="321"/>
    </contour>
  </outline>
</glyph>
<glyph name="H" format="2">
  <advance width="1771"/>
  <unicode hex="0048"/>
  <anchor x="1034" y="0" name="bottom"/>
  <anchor x="1015" y="756" name="center"/>
  <anchor x="1186" y="1510" name="top"/>
  <anchor x="15" y="1510" name="topleft"/>
  <outline>
    <contour>
      <point x="362" y="756" type="line"/>
      <point x="341" y="669"/>
      <point x="265" y="404"/>
      <point x="265" y="211" type="curve" smooth="yes"/>
      <point x="265" y="84"/>
      <point x="304" y="-13"/>
      <point x="433" y="-13" type="curve" smooth="yes"/>
      <point x="481" y="-13"/>
      <point x="565" y="46"/>
      <point x="603" y="75" type="curve"/>
      <point x="499" y="153"/>
      <point x="466" y="262"/>
      <point x="466" y="378" type="curve" smooth="yes"/>
      <point x="466" y="504"/>
      <point x="504" y="639"/>
      <point x="528" y="756" type="curve"/>
    </contour>
    <contour>
      <point x="528" y="756" type="line"/>
      <point x="565" y="897"/>
      <point x="640" y="1188"/>
      <point x="640" y="1329" type="curve" smooth="yes"/>
      <point x="640" y="1426"/>
      <point x="609" y="1513"/>
      <point x="496" y="1513" type="curve" smooth="yes"/>
      <point x="446" y="1513"/>
      <point x="382" y="1486"/>
      <point x="337" y="1464" type="curve"/>
      <point x="401" y="1378"/>
      <point x="420" y="1268"/>
      <point x="420" y="1163" type="curve" smooth="yes"/>
      <point x="420" y="1025"/>
      <point x="390" y="890"/>
      <point x="362" y="756" type="curve"/>
    </contour>
    <contour>
      <point x="1451" y="756" type="line"/>
      <point x="1430" y="669"/>
      <point x="1354" y="404"/>
      <point x="1354" y="211" type="curve" smooth="yes"/>
      <point x="1354" y="84"/>
      <point x="1393" y="-13"/>
      <point x="1522" y="-13" type="curve" smooth="yes"/>
      <point x="1570" y="-13"/>
      <point x="1654" y="46"/>
      <point x="1692" y="75" type="curve"/>
      <point x="1588" y="153"/>
      <point x="1555" y="262"/>
      <point x="1555" y="378" type="curve" smooth="yes"/>
      <point x="1555" y="504"/>
      <point x="1593" y="639"/>
      <point x="1617" y="756" type="curve"/>
    </contour>
    <contour>
      <point x="1617" y="756" type="line"/>
      <point x="1654" y="897"/>
      <point x="1729" y="1188"/>
      <point x="1729" y="1329" type="curve" smooth="yes"/>
      <point x="1729" y="1426"/>
      <point x="1698" y="1513"/>
      <point x="1585" y="1513" type="curve" smooth="yes"/>
      <point x="1535" y="1513"/>
      <point x="1471" y="1486"/>
      <point x="1426" y="1464" type="curve"/>
      <point x="1490" y="1378"/>
      <point x="1509" y="1268"/>
      <point x="1509" y="1163" type="curve" smooth="yes"/>
      <point x="1509" y="1025"/>
      <point x="1479" y="890"/>
      <point x="1451" y="756" type="curve"/>
    </contour>
    <contour>
      <point x="470.04" y="689" type="line"/>
      <point x="619.794" y="679"/>
      <point x="769.548" y="676"/>
      <point x="920.437" y="676" type="curve" smooth="yes"/>
      <point x="1105.36" y="676"/>
      <point x="1292.55" y="678"/>
      <point x="1476.34" y="693" type="curve"/>
      <point x="1497.9" y="802" type="line"/>
      <point x="1327.72" y="802"/>
      <point x="1154.14" y="807"/>
      <point x="985.103" y="807" type="curve" smooth="yes"/>
      <point x="827.408" y="807"/>
      <point x="671.981" y="808"/>
      <point x="518.823" y="811" type="curve"/>
    </contour>
  </outline>
</glyph>
<glyph name="I" format="2">
  <advance width="1117"/>
  <unicode hex="0049"/>
  <anchor x="855" y="0" name="bottom"/>
  <anchor x="1252" y="17" name="ogonek"/>
  <anchor x="941" y="1510" name="top"/>
  <anchor x="340" y="1510" name="topleft"/>
  <outline>
    <contour>
      <point x="488" y="72" type="curve"/>
      <point x="697" y="51" type="line"/>
      <point x="653" y="557"/>
      <point x="791" y="905"/>
      <point x="841" y="1380" type="curve"/>
      <point x="601" y="1420" type="line"/>
      <point x="703" y="1160"/>
      <point x="510" y="573"/>
    </contour>
    <contour>
      <point x="595" y="1470" type="curve" smooth="yes"/>
      <point x="413" y="1470"/>
      <point x="350" y="1421"/>
      <point x="350" y="1335" type="curve" smooth="yes"/>
      <point x="350" y="1315"/>
      <point x="350" y="1300"/>
      <point x="359" y="1283" type="curve"/>
      <point x="523" y="1330"/>
      <point x="626" y="1317"/>
      <point x="873" y="1317" type="curve" smooth="yes"/>
      <point x="987" y="1317"/>
      <point x="1150" y="1299"/>
      <point x="1132" y="1474" type="curve"/>
      <point x="945" y="1467"/>
      <point x="679" y="1470"/>
    </contour>
    <contour>
      <point x="326" y="151" type="curve" smooth="yes"/>
      <point x="258" y="151"/>
      <point x="195" y="102"/>
      <point x="195" y="16" type="curve" smooth="yes"/>
      <point x="195" y="10"/>
      <point x="195" y="4"/>
      <point x="196" y="-5" type="curve"/>
      <point x="336" y="-1"/>
      <point x="507" y="-2"/>
      <point x="759" y="-2" type="curve" smooth="yes"/>
      <point x="873" y="-2"/>
      <point x="1036" y="30"/>
      <point x="1018" y="187" type="curve"/>
      <point x="830" y="149"/>
      <point x="524" y="151"/>
    </contour>
  </outline>
</glyph>
<glyph name="J" format="2">
  <advance width="1105"/>
  <unicode hex="004A"/>
  <anchor x="1053" y="0" name="bottom"/>
  <anchor x="1192" y="1510" name="top"/>
  <outline>
    <contour>
      <point x="106" y="-382" type="curve" smooth="yes"/>
      <point x="327" y="-407"/>
      <point x="699" y="-290"/>
      <point x="831" y="58" type="curve" smooth="yes"/>
      <point x="949" y="366"/>
      <point x="875" y="724"/>
      <point x="1043" y="1355" type="curve"/>
      <point x="1084" y="1385"/>
      <point x="1112" y="1406"/>
      <point x="1112" y="1497" type="curve"/>
      <point x="904" y="1505"/>
      <point x="708" y="1506"/>
      <point x="551" y="1502" type="curve" smooth="yes"/>
      <point x="377" y="1497"/>
      <point x="323" y="1425"/>
      <point x="318" y="1272" type="curve"/>
      <point x="467" y="1333"/>
      <point x="647" y="1363"/>
      <point x="809" y="1358" type="curve"/>
      <point x="759" y="762"/>
      <point x="824" y="-204"/>
      <point x="210" y="-204" type="curve" smooth="yes"/>
      <point x="137" y="-204"/>
      <point x="-22" y="-190"/>
      <point x="-84" y="-6" type="curve"/>
      <point x="-121" y="-78"/>
      <point x="-146" y="-137"/>
      <point x="-146" y="-200" type="curve" smooth="yes"/>
      <point x="-146" y="-340"/>
      <point x="39" y="-375"/>
    </contour>
  </outline>
</glyph>
<glyph name="K" format="2">
  <advance width="1512"/>
  <unicode hex="004B"/>
  <anchor x="917" y="0" name="bottom"/>
  <anchor x="811" y="1510" name="top"/>
  <outline>
    <contour>
      <point x="1437" y="-18" type="curve" smooth="yes"/>
      <point x="1533" y="-18"/>
      <point x="1589" y="87"/>
      <point x="1604" y="170" type="curve"/>
      <point x="1402" y="191"/>
      <point x="1288" y="295"/>
      <point x="1162" y="443" type="curve" smooth="yes"/>
      <point x="1058" y="565"/>
      <point x="956" y="687"/>
      <point x="853" y="810" type="curve"/>
      <point x="705" y="717" type="line"/>
      <point x="846" y="540"/>
      <point x="987" y="361"/>
      <point x="1133" y="191" type="curve" smooth="yes"/>
      <point x="1205" y="107"/>
      <point x="1317" y="-18"/>
    </contour>
    <contour>
      <point x="476" y="593" type="line"/>
      <point x="695" y="683"/>
      <point x="892" y="813"/>
      <point x="1060.16" y="928.784" type="curve" smooth="yes"/>
      <point x="1319" y="1107"/>
      <point x="1638" y="1340"/>
      <point x="1638" y="1412" type="curve" smooth="yes"/>
      <point x="1638" y="1476"/>
      <point x="1546" y="1496"/>
      <point x="1497" y="1496" type="curve"/>
      <point x="1442" y="1378"/>
      <point x="1209" y="1189"/>
      <point x="1035.82" y="1060.45" type="curve" smooth="yes"/>
      <point x="852" y="924"/>
      <point x="712" y="802"/>
      <point x="495" y="741" type="curve"/>
    </contour>
    <contour>
      <point x="362" y="756" type="line"/>
      <point x="341" y="669"/>
      <point x="265" y="404"/>
      <point x="265" y="211" type="curve" smooth="yes"/>
      <point x="265" y="84"/>
      <point x="304" y="-13"/>
      <point x="433" y="-13" type="curve" smooth="yes"/>
      <point x="481" y="-13"/>
      <point x="565" y="46"/>
      <point x="603" y="75" type="curve"/>
      <point x="499" y="153"/>
      <point x="466" y="262"/>
      <point x="466" y="378" type="curve" smooth="yes"/>
      <point x="466" y="504"/>
      <point x="504" y="639"/>
      <point x="528" y="756" type="curve"/>
    </contour>
    <contour>
      <point x="531" y="756" type="line"/>
      <point x="570" y="942"/>
      <point x="640" y="1139"/>
      <point x="640" y="1329" type="curve" smooth="yes"/>
      <point x="640" y="1426"/>
      <point x="609" y="1513"/>
      <point x="496" y="1513" type="curve" smooth="yes"/>
      <point x="446" y="1513"/>
      <point x="382" y="1486"/>
      <point x="337" y="1464" type="curve"/>
      <point x="401" y="1378"/>
      <point x="420" y="1268"/>
      <point x="420" y="1163" type="curve" smooth="yes"/>
      <point x="420" y="1025"/>
      <point x="394" y="890"/>
      <point x="363" y="756" type="curve"/>
    </contour>
  </outline>
</glyph>
<glyph name="L" format="2">
  <advance width="1252"/>
  <unicode hex="004C"/>
  <anchor x="823" y="0" name="bottom"/>
  <anchor x="706" y="756" name="center"/>
  <anchor x="624" y="1510" name="top"/>
  <anchor x="1280" y="1426" name="topright"/>
  <outline>
    <contour>
      <point x="342" y="756" type="line"/>
      <point x="297" y="562"/>
      <point x="220" y="364"/>
      <point x="220" y="162" type="curve" smooth="yes"/>
      <point x="220" y="67"/>
      <point x="249" y="-15"/>
      <point x="359" y="-15" type="curve" smooth="yes"/>
      <point x="392" y="-15"/>
      <point x="436" y="-1"/>
      <point x="468" y="21" type="curve"/>
      <point x="482" y="18"/>
      <point x="504" y="15"/>
      <point x="522" y="13" type="curve" smooth="yes"/>
      <point x="676" y="-3"/>
      <point x="830" y="-19"/>
      <point x="984" y="-19" type="curve" smooth="yes"/>
      <point x="1151" y="-19"/>
      <point x="1285" y="-5"/>
      <point x="1305" y="196" type="curve"/>
      <point x="1230" y="171"/>
      <point x="1010" y="173"/>
      <point x="922" y="173" type="curve" smooth="yes"/>
      <point x="746" y="173"/>
      <point x="571" y="175"/>
      <point x="395" y="182" type="curve"/>
      <point x="429" y="161" type="line"/>
      <point x="426" y="190"/>
      <point x="425" y="219"/>
      <point x="425" y="248" type="curve" smooth="yes"/>
      <point x="425" y="418"/>
      <point x="474" y="586"/>
      <point x="509" y="752" type="curve"/>
      <point x="509" y="753"/>
      <point x="510" y="755"/>
      <point x="510" y="756" type="curve"/>
    </contour>
    <contour>
      <point x="510" y="756" type="line"/>
      <point x="549" y="942"/>
      <point x="619" y="1139"/>
      <point x="619" y="1329" type="curve" smooth="yes"/>
      <point x="619" y="1426"/>
      <point x="588" y="1513"/>
      <point x="475" y="1513" type="curve" smooth="yes"/>
      <point x="425" y="1513"/>
      <point x="361" y="1486"/>
      <point x="316" y="1464" type="curve"/>
      <point x="380" y="1378"/>
      <point x="399" y="1268"/>
      <point x="399" y="1163" type="curve" smooth="yes"/>
      <point x="399" y="1025"/>
      <point x="373" y="890"/>
      <point x="342" y="756" type="curve"/>
    </contour>
  </outline>
</glyph>
<glyph name="M" format="2">
  <advance width="1918"/>
  <unicode hex="004D"/>
  <anchor x="1096" y="0" name="bottom"/>
  <anchor x="1083" y="1510" name="top"/>
  <outline>
    <contour>
      <point x="386" y="-13" type="curve" smooth="yes"/>
      <point x="434" y="-13"/>
      <point x="482" y="50"/>
      <point x="501" y="89" type="curve"/>
      <point x="418" y="153"/>
      <point x="394" y="252"/>
      <point x="394" y="352" type="curve" smooth="yes"/>
      <point x="394" y="559"/>
      <point x="457" y="765"/>
      <point x="507" y="964" type="curve" smooth="yes"/>
      <point x="527" y="1044"/>
      <point x="543" y="1125"/>
      <point x="561" y="1205" type="curve" smooth="yes"/>
      <point x="570" y="1243"/>
      <point x="575" y="1282"/>
      <point x="587" y="1320" type="curve"/>
      <point x="553" y="1318" type="line"/>
      <point x="649" y="1162"/>
      <point x="705" y="986"/>
      <point x="760" y="812" type="curve" smooth="yes"/>
      <point x="800" y="685"/>
      <point x="848" y="525"/>
      <point x="926" y="416" type="curve" smooth="yes"/>
      <point x="965" y="362"/>
      <point x="1011" y="341"/>
      <point x="1077" y="341" type="curve" smooth="yes"/>
      <point x="1127" y="341"/>
      <point x="1177" y="356"/>
      <point x="1219" y="383" type="curve"/>
      <point x="1214" y="409"/>
      <point x="1210" y="435"/>
      <point x="1210" y="461" type="curve" smooth="yes"/>
      <point x="1210" y="655"/>
      <point x="1639" y="1174"/>
      <point x="1766" y="1361" type="curve"/>
      <point x="1735" y="1367" type="line"/>
      <point x="1739" y="1331"/>
      <point x="1741" y="1295"/>
      <point x="1741" y="1259" type="curve" smooth="yes"/>
      <point x="1741" y="896"/>
      <point x="1573" y="558"/>
      <point x="1573" y="197" type="curve" smooth="yes"/>
      <point x="1573" y="91"/>
      <point x="1603" y="-13"/>
      <point x="1729" y="-13" type="curve" smooth="yes"/>
      <point x="1778" y="-13"/>
      <point x="1854" y="43"/>
      <point x="1891" y="75" type="curve"/>
      <point x="1805" y="146"/>
      <point x="1773" y="251"/>
      <point x="1773" y="360" type="curve" smooth="yes"/>
      <point x="1773" y="584"/>
      <point x="1846" y="800"/>
      <point x="1900" y="1015" type="curve" smooth="yes"/>
      <point x="1927" y="1123"/>
      <point x="1952" y="1232"/>
      <point x="1952" y="1344" type="curve" smooth="yes"/>
      <point x="1952" y="1434"/>
      <point x="1923" y="1513"/>
      <point x="1819" y="1513" type="curve" smooth="yes"/>
      <point x="1754" y="1513"/>
      <point x="1688" y="1499"/>
      <point x="1630" y="1470" type="curve"/>
      <point x="1611" y="1305"/>
      <point x="1472" y="1166"/>
      <point x="1381" y="1034" type="curve" smooth="yes"/>
      <point x="1255" y="852"/>
      <point x="1143" y="658"/>
      <point x="1050" y="457" type="curve"/>
      <point x="1092" y="448" type="line"/>
      <point x="1020" y="677"/>
      <point x="936" y="901"/>
      <point x="852" y="1126" type="curve" smooth="yes"/>
      <point x="784" y="1308"/>
      <point x="714" y="1513"/>
      <point x="482" y="1513" type="curve" smooth="yes"/>
      <point x="429" y="1513"/>
      <point x="379" y="1489"/>
      <point x="336" y="1461" type="curve"/>
      <point x="389" y="1381"/>
      <point x="405" y="1283"/>
      <point x="405" y="1189" type="curve" smooth="yes"/>
      <point x="405" y="850"/>
      <point x="243" y="536"/>
      <point x="243" y="197" type="curve" smooth="yes"/>
      <point x="243" y="100"/>
      <point x="266" y="-13"/>
    </contour>
  </outline>
</glyph>
<glyph name="N" format="2">
  <advance width="1667"/>
  <unicode hex="004E"/>
  <anchor x="917" y="0" name="bottom"/>
  <anchor x="1163" y="1510" name="top"/>
  <outline>
    <contour>
      <point x="389" y="-13" type="curve" smooth="yes"/>
      <point x="437" y="-13"/>
      <point x="484" y="52"/>
      <point x="504" y="90" type="curve"/>
      <point x="418" y="156"/>
      <point x="394" y="260"/>
      <point x="394" y="363" type="curve" smooth="yes"/>
      <point x="394" y="668"/>
      <point x="533" y="966"/>
      <point x="584" y="1257" type="curve"/>
      <point x="551" y="1242" type="line"/>
      <point x="839" y="1028"/>
      <point x="1016" y="-14"/>
      <point x="1493" y="-13" type="curve" smooth="yes"/>
      <point x="1554" y="-13"/>
      <point x="1603" y="39"/>
      <point x="1630" y="89" type="curve"/>
      <point x="1541" y="156"/>
      <point x="1515" y="257"/>
      <point x="1515" y="364" type="curve" smooth="yes"/>
      <point x="1515" y="699"/>
      <point x="1695" y="1012"/>
      <point x="1695" y="1348" type="curve" smooth="yes"/>
      <point x="1695" y="1420"/>
      <point x="1680" y="1513"/>
      <point x="1589" y="1513" type="curve" smooth="yes"/>
      <point x="1549" y="1513"/>
      <point x="1488" y="1483"/>
      <point x="1453" y="1463" type="curve"/>
      <point x="1510" y="1379"/>
      <point x="1526" y="1275"/>
      <point x="1527" y="1175" type="curve" smooth="yes"/>
      <point x="1531" y="848"/>
      <point x="1412" y="561"/>
      <point x="1360" y="258" type="curve"/>
      <point x="1421" y="233" type="line"/>
      <point x="1170" y="453"/>
      <point x="1078" y="699"/>
      <point x="947" y="1004" type="curve" smooth="yes"/>
      <point x="863" y="1201"/>
      <point x="736" y="1513"/>
      <point x="480" y="1513" type="curve" smooth="yes"/>
      <point x="427" y="1513"/>
      <point x="377" y="1488"/>
      <point x="335" y="1457" type="curve"/>
      <point x="390" y="1377"/>
      <point x="406" y="1277"/>
      <point x="406" y="1181" type="curve" smooth="yes"/>
      <point x="406" y="846"/>
      <point x="244" y="531"/>
      <point x="244" y="198" type="curve" smooth="yes"/>
      <point x="244" y="99"/>
      <point x="267" y="-13"/>
    </contour>
  </outline>
</glyph>
<glyph name="O" format="2">
  <advance width="1770"/>
  <unicode hex="004F"/>
  <anchor x="1037" y="0" name="bottom"/>
  <anchor x="1012" y="756" name="center"/>
  <anchor x="1895" y="17" name="ogonek"/>
  <anchor x="1213" y="1510" name="top"/>
  <anchor x="-27" y="1510" name="topleft"/>
  <anchor x="2006" y="1510" name="topright"/>
  <outline>
    <contour>
      <point x="855" y="-36" type="curve" smooth="yes"/>
      <point x="1376" y="-36"/>
      <point x="1833" y="344"/>
      <point x="1833" y="878" type="curve" smooth="yes"/>
      <point x="1833" y="1288"/>
      <point x="1549" y="1513"/>
      <point x="1156" y="1513" type="curve" smooth="yes"/>
      <point x="635" y="1513"/>
      <point x="178" y="1131"/>
      <point x="178" y="597" type="curve" smooth="yes"/>
      <point x="178" y="186"/>
      <point x="462" y="-36"/>
    </contour>
    <contour>
      <point x="1022" y="137" type="curve" smooth="yes"/>
      <point x="663" y="137"/>
      <point x="372" y="305"/>
      <point x="372" y="698" type="curve" smooth="yes"/>
      <point x="372" y="1063"/>
      <point x="609" y="1338"/>
      <point x="989" y="1338" type="curve" smooth="yes"/>
      <point x="1348" y="1338"/>
      <point x="1640" y="1178"/>
      <point x="1640" y="783" type="curve" smooth="yes"/>
      <point x="1640" y="416"/>
      <point x="1406" y="137"/>
    </contour>
  </outline>
</glyph>
<glyph name="P" format="2">
  <advance width="1406"/>
  <unicode hex="0050"/>
  <anchor x="814" y="0" name="bottom"/>
  <anchor x="746" y="1510" name="top"/>
  <outline>
    <contour>
      <point x="639" y="1335" type="line"/>
      <point x="732" y="1358"/>
      <point x="828" y="1370"/>
      <point x="924" y="1370" type="curve" smooth="yes"/>
      <point x="1090" y="1370"/>
      <point x="1418" y="1322"/>
      <point x="1418" y="1102" type="curve" smooth="yes"/>
      <point x="1418" y="766"/>
      <point x="721" y="697"/>
      <point x="477" y="679" type="curve"/>
      <point x="449" y="555" type="line"/>
      <point x="922" y="579"/>
      <point x="1605" y="709"/>
      <point x="1605" y="1162" type="curve" smooth="yes"/>
      <point x="1605" y="1467"/>
      <point x="1193" y="1516"/>
      <point x="964" y="1516" type="curve" smooth="yes"/>
      <point x="762" y="1516"/>
      <point x="561" y="1483"/>
      <point x="360" y="1470" type="curve"/>
      <point x="407" y="1387"/>
      <point x="433" y="1292"/>
      <point x="433" y="1196" type="curve"/>
    </contour>
    <contour>
      <point x="528" y="756" type="line"/>
      <point x="570" y="946"/>
      <point x="636" y="1136"/>
      <point x="639" y="1336" type="curve"/>
      <point x="399" y="1428" type="line"/>
      <point x="395" y="1426"/>
      <point x="391" y="1424"/>
      <point x="386" y="1421" type="curve"/>
      <point x="420" y="1345"/>
      <point x="433" y="1265"/>
      <point x="433" y="1185" type="curve" smooth="yes"/>
      <point x="433" y="1042"/>
      <point x="393" y="897"/>
      <point x="362" y="756" type="curve"/>
    </contour>
    <contour>
      <point x="362" y="756" type="line"/>
      <point x="341" y="669"/>
      <point x="265" y="404"/>
      <point x="265" y="211" type="curve" smooth="yes"/>
      <point x="265" y="84"/>
      <point x="304" y="-13"/>
      <point x="433" y="-13" type="curve" smooth="yes"/>
      <point x="481" y="-13"/>
      <point x="565" y="46"/>
      <point x="603" y="75" type="curve"/>
      <point x="499" y="153"/>
      <point x="466" y="262"/>
      <point x="466" y="378" type="curve" smooth="yes"/>
      <point x="466" y="504"/>
      <point x="504" y="639"/>
      <point x="528" y="756" type="curve"/>
    </contour>
  </outline>
</glyph>
<glyph name="Q" format="2">
  <advance width="1766"/>
  <unicode hex="0051"/>
  <anchor x="977" y="0" name="bottom"/>
  <anchor x="948" y="1510" name="top"/>
  <outline>
    <component base="O"/>
    <contour>
      <point x="1633" y="-341" type="curve" smooth="yes"/>
      <point x="1750" y="-341"/>
      <point x="1860" y="-264"/>
      <point x="1860" y="-139" type="curve" smooth="yes"/>
      <point x="1860" y="-132" type="line"/>
      <point x="1839" y="-127"/>
      <point x="1818" y="-129"/>
      <point x="1796" y="-129" type="curve" smooth="yes"/>
      <point x="1558" y="-129"/>
      <point x="1327" y="-65"/>
      <point x="1107" y="21" type="curve"/>
      <point x="902" y="-19" type="line"/>
      <point x="1062" y="-131"/>
      <point x="1472" y="-341"/>
    </contour>
  </outline>
</glyph>
<glyph name="R" format="2">
  <advance width="1640"/>
  <unicode hex="0052"/>
  <anchor x="987" y="0" name="bottom"/>
  <anchor x="1140" y="1510" name="top"/>
  <outline>
    <component base="P"/>
    <contour>
      <point x="1520" y="-18" type="curve" smooth="yes"/>
      <point x="1618" y="-18"/>
      <point x="1676" y="86"/>
      <point x="1691" y="171" type="curve"/>
      <point x="1407" y="197"/>
      <point x="1129" y="428"/>
      <point x="1018" y="687" type="curve"/>
      <point x="837" y="632" type="line"/>
      <point x="950" y="468"/>
      <point x="1330" y="-18"/>
    </contour>
  </outline>
</glyph>
<glyph name="S" format="2">
  <advance width="1147"/>
  <unicode hex="0053"/>
  <anchor x="599" y="0" name="bottom"/>
  <anchor x="865" y="1510" name="top"/>
  <outline>
    <contour>
      <point x="586" y="-30" type="curve" smooth="yes"/>
      <point x="842" y="-30"/>
      <point x="1190" y="89"/>
      <point x="1190" y="396" type="curve" smooth="yes"/>
      <point x="1190" y="646"/>
      <point x="868" y="791"/>
      <point x="677" y="896" type="curve" smooth="yes"/>
      <point x="582" y="948"/>
      <point x="386" y="1039"/>
      <point x="386" y="1165" type="curve" smooth="yes"/>
      <point x="386" y="1310"/>
      <point x="597" y="1346"/>
      <point x="707" y="1346" type="curve" smooth="yes"/>
      <point x="846" y="1346"/>
      <point x="1053" y="1308"/>
      <point x="1130" y="1178" type="curve"/>
      <point x="1170" y="1209"/>
      <point x="1191" y="1274"/>
      <point x="1191" y="1324" type="curve" smooth="yes"/>
      <point x="1191" y="1480"/>
      <point x="946" y="1513"/>
      <point x="830" y="1513" type="curve" smooth="yes"/>
      <point x="571" y="1513"/>
      <point x="229" y="1412"/>
      <point x="229" y="1096" type="curve" smooth="yes"/>
      <point x="229" y="868"/>
      <point x="462" y="750"/>
      <point x="636" y="657" type="curve" smooth="yes"/>
      <point x="756" y="593"/>
      <point x="1018" y="471"/>
      <point x="1018" y="312" type="curve" smooth="yes"/>
      <point x="1018" y="155"/>
      <point x="772" y="124"/>
      <point x="655" y="124" type="curve" smooth="yes"/>
      <point x="466" y="124"/>
      <point x="227" y="173"/>
      <point x="158" y="376" type="curve"/>
      <point x="113" y="341"/>
      <point x="88" y="269"/>
      <point x="88" y="213" type="curve" smooth="yes"/>
      <point x="88" y="14"/>
      <point x="439" y="-30"/>
    </contour>
  </outline>
</glyph>
<glyph name="T" format="2">
  <advance width="1359"/>
  <unicode hex="0054"/>
  <anchor x="710" y="0" name="bottom"/>
  <anchor x="795" y="756" name="center"/>
  <anchor x="1030" y="1510" name="top"/>
  <outline>
    <contour>
      <point x="921" y="1309" type="line"/>
      <point x="1101" y="1290"/>
      <point x="1285" y="1282"/>
      <point x="1468" y="1282" type="curve" smooth="yes"/>
      <point x="1601" y="1282"/>
      <point x="1669" y="1336"/>
      <point x="1681" y="1470" type="curve"/>
      <point x="1655" y="1472"/>
      <point x="1628" y="1472"/>
      <point x="1601" y="1472" type="curve" smooth="yes"/>
      <point x="1371" y="1472"/>
      <point x="1141" y="1475"/>
      <point x="912" y="1477" type="curve"/>
    </contour>
    <contour>
      <point x="882" y="756" type="line"/>
      <point x="924" y="946"/>
      <point x="990" y="1136"/>
      <point x="993" y="1336" type="curve"/>
      <point x="753" y="1428" type="line"/>
      <point x="749" y="1426"/>
      <point x="745" y="1424"/>
      <point x="740" y="1421" type="curve"/>
      <point x="774" y="1345"/>
      <point x="787" y="1265"/>
      <point x="787" y="1185" type="curve" smooth="yes"/>
      <point x="787" y="1042"/>
      <point x="747" y="897"/>
      <point x="716" y="756" type="curve"/>
    </contour>
    <contour>
      <point x="716" y="756" type="line"/>
      <point x="695" y="669"/>
      <point x="619" y="404"/>
      <point x="619" y="211" type="curve" smooth="yes"/>
      <point x="619" y="84"/>
      <point x="658" y="-13"/>
      <point x="787" y="-13" type="curve" smooth="yes"/>
      <point x="835" y="-13"/>
      <point x="919" y="46"/>
      <point x="957" y="75" type="curve"/>
      <point x="853" y="153"/>
      <point x="820" y="262"/>
      <point x="820" y="378" type="curve" smooth="yes"/>
      <point x="820" y="504"/>
      <point x="858" y="639"/>
      <point x="882" y="756" type="curve"/>
    </contour>
    <contour>
      <point x="912" y="1477" type="line"/>
      <point x="733" y="1479"/>
      <point x="555" y="1480"/>
      <point x="376" y="1480" type="curve" smooth="yes"/>
      <point x="235" y="1480"/>
      <point x="167" y="1408"/>
      <point x="160" y="1269" type="curve"/>
      <point x="389" y="1314"/>
      <point x="623" y="1298"/>
      <point x="854" y="1306" type="curve"/>
      <point x="921" y="1309" type="line"/>
    </contour>
  </outline>
</glyph>
<glyph name="U" format="2">
  <advance width="1743"/>
  <unicode hex="0055"/>
  <anchor x="1011" y="0" name="bottom"/>
  <anchor x="1821" y="17" name="ogonek"/>
  <anchor x="1171" y="1510" name="top"/>
  <anchor x="1919" y="1510" name="topright"/>
  <outline>
    <contour>
      <point x="562" y="-28" type="curve" smooth="yes"/>
      <point x="822" y="-28"/>
      <point x="1208" y="283"/>
      <point x="1382" y="454" type="curve"/>
      <point x="1413" y="607" type="line"/>
      <point x="1263" y="439"/>
      <point x="879" y="175"/>
      <point x="642" y="175" type="curve" smooth="yes"/>
      <point x="503" y="175"/>
      <point x="453" y="203"/>
      <point x="453" y="349" type="curve" smooth="yes"/>
      <point x="453" y="685"/>
      <point x="637" y="1001"/>
      <point x="637" y="1336" type="curve" smooth="yes"/>
      <point x="637" y="1435"/>
      <point x="603" y="1513"/>
      <point x="492" y="1513" type="curve" smooth="yes"/>
      <point x="441" y="1513"/>
      <point x="376" y="1486"/>
      <point x="330" y="1465" type="curve"/>
      <point x="396" y="1378"/>
      <point x="417" y="1269"/>
      <point x="417" y="1162" type="curve" smooth="yes"/>
      <point x="417" y="851"/>
      <point x="270" y="551"/>
      <point x="270" y="267" type="curve" smooth="yes"/>
      <point x="270" y="71"/>
      <point x="362" y="-28"/>
    </contour>
    <contour>
      <point x="1450" y="756" type="line"/>
      <point x="1429" y="669"/>
      <point x="1353" y="404"/>
      <point x="1353" y="211" type="curve" smooth="yes"/>
      <point x="1353" y="84"/>
      <point x="1392" y="-13"/>
      <point x="1521" y="-13" type="curve" smooth="yes"/>
      <point x="1569" y="-13"/>
      <point x="1653" y="46"/>
      <point x="1691" y="75" type="curve"/>
      <point x="1587" y="153"/>
      <point x="1554" y="262"/>
      <point x="1554" y="378" type="curve" smooth="yes"/>
      <point x="1554" y="504"/>
      <point x="1592" y="639"/>
      <point x="1616" y="756" type="curve"/>
    </contour>
    <contour>
      <point x="1616" y="756" type="line"/>
      <point x="1653" y="897"/>
      <point x="1728" y="1188"/>
      <point x="1728" y="1329" type="curve" smooth="yes"/>
      <point x="1728" y="1426"/>
      <point x="1697" y="1513"/>
      <point x="1584" y="1513" type="curve" smooth="yes"/>
      <point x="1534" y="1513"/>
      <point x="1470" y="1486"/>
      <point x="1425" y="1464" type="curve"/>
      <point x="1489" y="1378"/>
      <point x="1508" y="1268"/>
      <point x="1508" y="1163" type="curve" smooth="yes"/>
      <point x="1508" y="1025"/>
      <point x="1478" y="890"/>
      <point x="1450" y="756" type="curve"/>
    </contour>
  </outline>
</glyph>
<glyph name="V" format="2">
  <advance width="1372"/>
  <unicode hex="0056"/>
  <anchor x="850" y="0" name="bottom"/>
  <anchor x="851" y="1510" name="top"/>
  <outline>
    <contour>
      <point x="772" y="-13" type="curve" smooth="yes"/>
      <point x="822" y="-13"/>
      <point x="870" y="5"/>
      <point x="911" y="33" type="curve"/>
      <point x="906" y="56"/>
      <point x="903" y="79"/>
      <point x="903" y="103" type="curve" smooth="yes"/>
      <point x="903" y="112"/>
      <point x="904" y="123"/>
      <point x="906" y="132" type="curve" smooth="yes"/>
      <point x="1004" y="538"/>
      <point x="1617" y="1136"/>
      <point x="1617" y="1425" type="curve" smooth="yes"/>
      <point x="1617" y="1474"/>
      <point x="1597" y="1513"/>
      <point x="1543" y="1513" type="curve" smooth="yes"/>
      <point x="1493" y="1513"/>
      <point x="1431" y="1463"/>
      <point x="1397" y="1429" type="curve"/>
      <point x="1420" y="1400"/>
      <point x="1437" y="1365"/>
      <point x="1437" y="1328" type="curve" smooth="yes"/>
      <point x="1437" y="1321"/>
      <point x="1436" y="1314"/>
      <point x="1435" y="1307" type="curve"/>
      <point x="1385" y="1078"/>
      <point x="1175" y="801"/>
      <point x="1037" y="610" type="curve" smooth="yes"/>
      <point x="956" y="498"/>
      <point x="875" y="386"/>
      <point x="805" y="268" type="curve"/>
      <point x="787" y="270"/>
      <point x="769" y="272"/>
      <point x="751" y="271" type="curve"/>
      <point x="669" y="478"/>
      <point x="642" y="702"/>
      <point x="619" y="922" type="curve" smooth="yes"/>
      <point x="598" y="1129"/>
      <point x="566" y="1513"/>
      <point x="284" y="1513" type="curve" smooth="yes"/>
      <point x="231" y="1513"/>
      <point x="168" y="1455"/>
      <point x="136" y="1417" type="curve"/>
      <point x="226" y="1363"/>
      <point x="301" y="1306"/>
      <point x="349" y="1210" type="curve" smooth="yes"/>
      <point x="435" y="1037"/>
      <point x="459" y="818"/>
      <point x="477" y="628" type="curve" smooth="yes"/>
      <point x="492" y="474"/>
      <point x="499" y="301"/>
      <point x="559" y="157" type="curve" smooth="yes"/>
      <point x="603" y="52"/>
      <point x="649" y="-13"/>
    </contour>
  </outline>
</glyph>
<glyph name="W" format="2">
  <advance width="1942"/>
  <unicode hex="0057"/>
  <anchor x="1154" y="0" name="bottom"/>
  <anchor x="1328" y="1510" name="top"/>
  <outline>
    <contour>
      <point x="1033" y="1266" type="curve"/>
      <point x="1200" y="1139"/>
      <point x="1215" y="891"/>
      <point x="1215" y="683" type="curve" smooth="yes"/>
      <point x="1215" y="505"/>
      <point x="1206" y="326"/>
      <point x="1270" y="157" type="curve" smooth="yes"/>
      <point x="1313" y="44"/>
      <point x="1352" y="-13"/>
      <point x="1482" y="-13" type="curve" smooth="yes"/>
      <point x="1528" y="-13"/>
      <point x="1573" y="9"/>
      <point x="1611" y="33" type="curve"/>
      <point x="1604" y="57"/>
      <point x="1600" y="83"/>
      <point x="1600" y="108" type="curve" smooth="yes"/>
      <point x="1600" y="117"/>
      <point x="1600" y="127"/>
      <point x="1602" y="136" type="curve" smooth="yes"/>
      <point x="1652" y="384"/>
      <point x="1864" y="700"/>
      <point x="2001" y="915" type="curve" smooth="yes"/>
      <point x="2082" y="1043"/>
      <point x="2230" y="1276"/>
      <point x="2230" y="1427" type="curve" smooth="yes"/>
      <point x="2230" y="1477"/>
      <point x="2209" y="1513"/>
      <point x="2155" y="1513" type="curve" smooth="yes"/>
      <point x="2105" y="1513"/>
      <point x="2045" y="1463"/>
      <point x="2012" y="1429" type="curve"/>
      <point x="2033" y="1400"/>
      <point x="2049" y="1365"/>
      <point x="2049" y="1328" type="curve" smooth="yes"/>
      <point x="2049" y="1319"/>
      <point x="2048" y="1311"/>
      <point x="2046" y="1302" type="curve" smooth="yes"/>
      <point x="1994" y="1064"/>
      <point x="1821" y="818"/>
      <point x="1696" y="609" type="curve" smooth="yes"/>
      <point x="1620" y="482"/>
      <point x="1548" y="353"/>
      <point x="1468" y="228" type="curve"/>
      <point x="1478" y="226" type="line"/>
      <point x="1403" y="440"/>
      <point x="1386" y="671"/>
      <point x="1378" y="897" type="curve" smooth="yes"/>
      <point x="1374" y="1003"/>
      <point x="1382" y="1386"/>
      <point x="1226" y="1386" type="curve" smooth="yes"/>
      <point x="1156" y="1386"/>
      <point x="1076" y="1317"/>
    </contour>
    <contour>
      <point x="683" y="-13" type="curve" smooth="yes"/>
      <point x="728" y="-13"/>
      <point x="772" y="7"/>
      <point x="809" y="32" type="curve"/>
      <point x="805" y="55"/>
      <point x="803" y="79"/>
      <point x="803" y="103" type="curve" smooth="yes"/>
      <point x="803" y="357"/>
      <point x="1112" y="711"/>
      <point x="1265" y="1090" type="curve"/>
      <point x="1211" y="1177" type="line"/>
      <point x="1070" y="856"/>
      <point x="828" y="525"/>
      <point x="667" y="209" type="curve"/>
      <point x="674" y="208" type="line"/>
      <point x="643" y="357"/>
      <point x="617" y="506"/>
      <point x="600" y="657" type="curve" smooth="yes"/>
      <point x="590" y="744"/>
      <point x="583" y="831"/>
      <point x="579" y="918" type="curve" smooth="yes"/>
      <point x="570" y="1112"/>
      <point x="561" y="1513"/>
      <point x="287" y="1513" type="curve" smooth="yes"/>
      <point x="232" y="1513"/>
      <point x="171" y="1457"/>
      <point x="137" y="1418" type="curve"/>
      <point x="220" y="1365"/>
      <point x="293" y="1304"/>
      <point x="331" y="1211" type="curve" smooth="yes"/>
      <point x="404" y="1032"/>
      <point x="415" y="821"/>
      <point x="421" y="630" type="curve" smooth="yes"/>
      <point x="426" y="473"/>
      <point x="418" y="307"/>
      <point x="472" y="157" type="curve" smooth="yes"/>
      <point x="513" y="45"/>
      <point x="556" y="-13"/>
    </contour>
  </outline>
</glyph>
<glyph name="X" format="2">
  <advance width="1402"/>
  <unicode hex="0058"/>
  <anchor x="796" y="0" name="bottom"/>
  <anchor x="778" y="1510" name="top"/>
  <outline>
    <contour>
      <point x="376" y="1021" type="curve" smooth="yes"/>
      <point x="508" y="769"/>
      <point x="694" y="467"/>
      <point x="894" y="265" type="curve" smooth="yes"/>
      <point x="1042" y="114"/>
      <point x="1232" y="-23"/>
      <point x="1360" y="-23" type="curve" smooth="yes"/>
      <point x="1444" y="-23"/>
      <point x="1485" y="63"/>
      <point x="1497" y="135" type="curve"/>
      <point x="1347" y="178"/>
      <point x="1190" y="307"/>
      <point x="1055" y="445" type="curve" smooth="yes"/>
      <point x="861" y="647"/>
      <point x="685" y="885"/>
      <point x="545" y="1128" type="curve" smooth="yes"/>
      <point x="480" y="1239"/>
      <point x="427" y="1360"/>
      <point x="407" y="1471" type="curve"/>
      <point x="325" y="1462"/>
      <point x="277" y="1388"/>
      <point x="277" y="1310" type="curve" smooth="yes"/>
      <point x="277" y="1234"/>
      <point x="320" y="1128"/>
    </contour>
    <contour>
      <point x="779" y="637" type="line"/>
      <point x="914" y="764"/>
      <point x="1052" y="887"/>
      <point x="1180" y="1021" type="curve" smooth="yes"/>
      <point x="1313" y="1160"/>
      <point x="1430" y="1306"/>
      <point x="1430" y="1390" type="curve" smooth="yes"/>
      <point x="1430" y="1437"/>
      <point x="1408" y="1480"/>
      <point x="1355" y="1480" type="curve" smooth="yes"/>
      <point x="1306" y="1480"/>
      <point x="1239" y="1436"/>
      <point x="1201" y="1407" type="curve"/>
      <point x="1214" y="1391"/>
      <point x="1244" y="1353"/>
      <point x="1244" y="1333" type="curve" smooth="yes"/>
      <point x="1244" y="1290"/>
      <point x="1167" y="1193"/>
      <point x="1089" y="1105" type="curve" smooth="yes"/>
      <point x="968" y="970"/>
      <point x="840" y="841"/>
      <point x="712" y="713" type="curve"/>
    </contour>
    <contour>
      <point x="180" y="-23" type="curve" smooth="yes"/>
      <point x="230" y="-23"/>
      <point x="296" y="19"/>
      <point x="336" y="49" type="curve"/>
      <point x="322" y="65"/>
      <point x="292" y="103"/>
      <point x="292" y="124" type="curve" smooth="yes"/>
      <point x="292" y="209"/>
      <point x="655" y="570"/>
      <point x="732" y="651" type="curve"/>
      <point x="663" y="732" type="line"/>
      <point x="535" y="617"/>
      <point x="107" y="227"/>
      <point x="107" y="66" type="curve" smooth="yes"/>
      <point x="107" y="21"/>
      <point x="129" y="-23"/>
    </contour>
  </outline>
</glyph>
<glyph name="Y" format="2">
  <advance width="1196"/>
  <unicode hex="0059"/>
  <anchor x="753" y="0" name="bottom"/>
  <anchor x="919" y="1510" name="top"/>
  <anchor x="123" y="1510" name="topleft"/>
  <outline>
    <contour>
      <point x="718" y="-13" type="curve" smooth="yes"/>
      <point x="768" y="-13"/>
      <point x="844" y="43"/>
      <point x="882" y="75" type="curve"/>
      <point x="801" y="141"/>
      <point x="771" y="231"/>
      <point x="771" y="333" type="curve" smooth="yes"/>
      <point x="771" y="563"/>
      <point x="896" y="695"/>
      <point x="999.438" y="812.919" type="curve" smooth="yes"/>
      <point x="1146" y="980"/>
      <point x="1418" y="1269"/>
      <point x="1418" y="1433" type="curve" smooth="yes"/>
      <point x="1418" y="1471"/>
      <point x="1406" y="1511"/>
      <point x="1361" y="1511" type="curve" smooth="yes"/>
      <point x="1314" y="1511"/>
      <point x="1227" y="1453"/>
      <point x="1189" y="1424" type="curve"/>
      <point x="1207" y="1396"/>
      <point x="1227" y="1359"/>
      <point x="1227" y="1325" type="curve" smooth="yes"/>
      <point x="1227" y="1190"/>
      <point x="915" y="866"/>
      <point x="769.127" y="695.511" type="curve" smooth="yes"/>
      <point x="755" y="679"/>
      <point x="698" y="612"/>
      <point x="640" y="544" type="curve"/>
      <point x="602" y="436"/>
      <point x="571" y="304"/>
      <point x="571" y="185" type="curve" smooth="yes"/>
      <point x="571" y="85"/>
      <point x="599" y="-13"/>
    </contour>
    <contour>
      <point x="779" y="636" type="line"/>
      <point x="716" y="811"/>
      <point x="537" y="1513"/>
      <point x="318" y="1513" type="curve" smooth="yes"/>
      <point x="238" y="1513"/>
      <point x="167" y="1424"/>
      <point x="136" y="1358" type="curve"/>
      <point x="422" y="1344"/>
      <point x="584" y="693"/>
      <point x="647" y="467" type="curve"/>
    </contour>
  </outline>
</glyph>
<glyph name="Z" format="2">
  <advance width="1313"/>
  <unicode hex="005A"/>
  <anchor x="743" y="0" name="bottom"/>
  <anchor x="731" y="756" name="center"/>
  <anchor x="947" y="1510" name="top"/>
  <outline>
    <contour>
      <point x="215" y="-9" type="curve"/>
      <point x="180" y="-19"/>
      <point x="161" y="-28"/>
      <point x="154" y="-36" type="curve"/>
      <point x="111" y="-33"/>
      <point x="75" y="5"/>
      <point x="52" y="39" type="curve"/>
      <point x="227" y="303"/>
      <point x="1031" y="1475"/>
      <point x="1269" y="1475" type="curve" smooth="yes"/>
      <point x="1379" y="1475"/>
      <point x="1414" y="1394"/>
      <point x="1414" y="1298" type="curve"/>
      <point x="1031" y="1230"/>
      <point x="431" y="318"/>
    </contour>
    <contour>
      <point x="215" y="-9" type="curve"/>
      <point x="288" y="153" type="line"/>
      <point x="539" y="208"/>
      <point x="796" y="236"/>
      <point x="1053" y="236" type="curve" smooth="yes"/>
      <point x="1262" y="236"/>
      <point x="1338" y="185"/>
      <point x="1308" y="-22" type="curve"/>
      <point x="1035" y="37"/>
      <point x="483" y="60"/>
    </contour>
    <contour>
      <point x="1018" y="1243" type="line"/>
      <point x="730" y="1218"/>
      <point x="237" y="1136"/>
      <point x="237" y="1358" type="curve" smooth="yes"/>
      <point x="237" y="1396"/>
      <point x="251" y="1455"/>
      <point x="282" y="1480" type="curve"/>
      <point x="516" y="1394"/>
      <point x="975" y="1388"/>
      <point x="1227" y="1434" type="curve"/>
    </contour>
  </outline>
</glyph>
<glyph name="bracketleft" format="2">
  <advance width="1113"/>
  <unicode hex="005B"/>
  <outline>
    <contour>
      <point x="967" y="-9" type="curve"/>
      <point x="810" y="-46"/>
      <point x="648" y="-48"/>
      <point x="488" y="-64" type="curve"/>
      <point x="479" y="-28"/>
      <point x="471" y="8"/>
      <point x="471" y="45" type="curve" smooth="yes"/>
      <point x="471" y="452"/>
      <point x="596" y="849"/>
      <point x="669" y="1247" type="curve" smooth="yes"/>
      <point x="683" y="1325"/>
      <point x="690" y="1406"/>
      <point x="715" y="1482" type="curve"/>
      <point x="799" y="1442"/>
      <point x="893" y="1422"/>
      <point x="986" y="1422" type="curve" smooth="yes"/>
      <point x="1121" y="1422"/>
      <point x="1234" y="1504"/>
      <point x="1222" y="1617" type="curve"/>
      <point x="1083" y="1612"/>
      <point x="944" y="1616"/>
      <point x="805" y="1616" type="curve" smooth="yes"/>
      <point x="674" y="1616"/>
      <point x="537" y="1615"/>
      <point x="415" y="1564" type="curve"/>
      <point x="466" y="1478"/>
      <point x="487" y="1379"/>
      <point x="487" y="1280" type="curve" smooth="yes"/>
      <point x="487" y="1195"/>
      <point x="472" y="1111"/>
      <point x="456" y="1028" type="curve" smooth="yes"/>
      <point x="397" y="721"/>
      <point x="328" y="416"/>
      <point x="269" y="109" type="curve" smooth="yes"/>
      <point x="261" y="66"/>
      <point x="252" y="24"/>
      <point x="252" y="-20" type="curve" smooth="yes"/>
      <point x="252" y="-139"/>
      <point x="351" y="-210"/>
      <point x="463" y="-210" type="curve" smooth="yes"/>
      <point x="610" y="-210"/>
      <point x="991" y="-249"/>
    </contour>
  </outline>
</glyph>
<glyph name="backslash" format="2">
  <advance width="1012"/>
  <unicode hex="005C"/>
  <outline>
    <contour>
      <point x="969" y="-213" type="curve" smooth="yes"/>
      <point x="1012" y="-213"/>
      <point x="1083" y="-169"/>
      <point x="1118" y="-144" type="curve"/>
      <point x="1021" y="-64"/>
      <point x="937" y="26"/>
      <point x="878" y="138" type="curve" smooth="yes"/>
      <point x="754" y="372"/>
      <point x="679" y="632"/>
      <point x="609" y="886" type="curve" smooth="yes"/>
      <point x="555" y="1081"/>
      <point x="423" y="1609"/>
      <point x="167" y="1609" type="curve" smooth="yes"/>
      <point x="100" y="1609"/>
      <point x="66" y="1541"/>
      <point x="66" y="1482" type="curve"/>
      <point x="201" y="1433"/>
      <point x="266" y="1355"/>
      <point x="328" y="1230" type="curve" smooth="yes"/>
      <point x="459" y="967"/>
      <point x="540" y="679"/>
      <point x="618" y="396" type="curve" smooth="yes"/>
      <point x="659" y="246"/>
      <point x="698" y="94"/>
      <point x="777" y="-42" type="curve" smooth="yes"/>
      <point x="816" y="-109"/>
      <point x="881" y="-213"/>
    </contour>
  </outline>
</glyph>
<glyph name="bracketright" format="2">
  <advance width="1113"/>
  <unicode hex="005D"/>
  <outline>
    <contour>
      <point x="1101" y="1565" type="curve"/>
      <point x="963" y="1629"/>
      <point x="758" y="1615"/>
      <point x="608" y="1615" type="curve" smooth="yes"/>
      <point x="546" y="1615"/>
      <point x="484" y="1616"/>
      <point x="422" y="1616" type="curve" smooth="yes"/>
      <point x="382" y="1616"/>
      <point x="344" y="1616"/>
      <point x="304" y="1614" type="curve"/>
      <point x="297" y="1599"/>
      <point x="295" y="1579"/>
      <point x="295" y="1562" type="curve" smooth="yes"/>
      <point x="295" y="1459"/>
      <point x="398" y="1422"/>
      <point x="485" y="1422" type="curve" smooth="yes"/>
      <point x="589" y="1422"/>
      <point x="693" y="1444"/>
      <point x="789" y="1482" type="curve"/>
      <point x="758" y="1210"/>
      <point x="740" y="939"/>
      <point x="725" y="667" type="curve" smooth="yes"/>
      <point x="713" y="456"/>
      <point x="714" y="120"/>
      <point x="575" y="-52" type="curve"/>
      <point x="573" y="-52" type="line"/>
      <point x="443" y="-46"/>
      <point x="277" y="-26"/>
      <point x="131" y="-1" type="curve"/>
      <point x="131" y="-29" type="line" smooth="yes"/>
      <point x="131" y="-85"/>
      <point x="131" y="-128"/>
      <point x="184" y="-159" type="curve" smooth="yes"/>
      <point x="266" y="-207"/>
      <point x="495" y="-207"/>
      <point x="594" y="-207" type="curve" smooth="yes"/>
      <point x="867" y="-207"/>
      <point x="881" y="344"/>
      <point x="886" y="534" type="curve" smooth="yes"/>
      <point x="893" y="776"/>
      <point x="902" y="1020"/>
      <point x="950" y="1258" type="curve" smooth="yes"/>
      <point x="974" y="1379"/>
      <point x="1012" y="1476"/>
    </contour>
  </outline>
</glyph>
<glyph name="asciicircum" format="2">
  <advance width="1382"/>
  <unicode hex="005E"/>
  <outline>
    <contour>
      <point x="1230" y="691" type="curve" smooth="yes"/>
      <point x="1312" y="691"/>
      <point x="1386" y="780"/>
      <point x="1421" y="847" type="curve"/>
      <point x="1167" y="855"/>
      <point x="996" y="1168"/>
      <point x="920" y="1377" type="curve" smooth="yes"/>
      <point x="907" y="1412"/>
      <point x="897" y="1445"/>
      <point x="878" y="1476" type="curve" smooth="yes"/>
      <point x="857" y="1511"/>
      <point x="827" y="1558"/>
      <point x="781" y="1558" type="curve" smooth="yes"/>
      <point x="761" y="1558"/>
      <point x="692" y="1512"/>
      <point x="678" y="1487" type="curve"/>
      <point x="638" y="1410"/>
      <point x="497" y="1250"/>
      <point x="431" y="1184" type="curve" smooth="yes"/>
      <point x="328" y="1083"/>
      <point x="163" y="938"/>
      <point x="163" y="784" type="curve" smooth="yes"/>
      <point x="163" y="736"/>
      <point x="187" y="696"/>
      <point x="239" y="696" type="curve" smooth="yes"/>
      <point x="287" y="696"/>
      <point x="354" y="738"/>
      <point x="392" y="765" type="curve"/>
      <point x="368" y="792"/>
      <point x="332" y="835"/>
      <point x="332" y="873" type="curve" smooth="yes"/>
      <point x="332" y="988"/>
      <point x="672" y="1356"/>
      <point x="705" y="1356" type="curve"/>
      <point x="766" y="1247"/>
      <point x="862" y="1136"/>
      <point x="913" y="1022" type="curve" smooth="yes"/>
      <point x="973" y="890"/>
      <point x="1058" y="691"/>
    </contour>
  </outline>
</glyph>
<glyph name="underscore" format="2">
  <advance width="1024"/>
  <unicode hex="005F"/>
  <outline>
    <contour>
      <point x="-64" y="-170" type="curve"/>
      <point x="29" y="-144"/>
      <point x="162" y="-141"/>
      <point x="265" y="-141" type="curve" smooth="yes"/>
      <point x="486" y="-141"/>
      <point x="703" y="-146"/>
      <point x="832" y="-146" type="curve" smooth="yes"/>
      <point x="895" y="-146"/>
      <point x="1039" y="-141"/>
      <point x="1056" y="-61" type="curve" smooth="yes"/>
      <point x="1064" y="-25"/>
      <point x="1058" y="10"/>
      <point x="1037" y="36" type="curve"/>
      <point x="971" y="7"/>
      <point x="838" y="0"/>
      <point x="769" y="0" type="curve" smooth="yes"/>
      <point x="625" y="0"/>
      <point x="373" y="17"/>
      <point x="114" y="17" type="curve" smooth="yes"/>
      <point x="37" y="17"/>
      <point x="-70" y="-1"/>
      <point x="-88" y="-49" type="curve" smooth="yes"/>
      <point x="-102" y="-86"/>
      <point x="-87" y="-122"/>
      <point x="-73" y="-153" type="curve" smooth="yes"/>
      <point x="-70" y="-159"/>
      <point x="-67" y="-164"/>
    </contour>
  </outline>
</glyph>
<glyph name="grave" format="2">
  <advance width="1382"/>
  <unicode hex="0060"/>
  <anchor x="675" y="1559" name="top"/>
  <outline>
    <contour>
      <point x="875" y="1223" type="curve"/>
      <point x="890" y="1253"/>
      <point x="910" y="1281"/>
      <point x="930" y="1308" type="curve"/>
      <point x="818" y="1371"/>
      <point x="613" y="1463"/>
      <point x="533" y="1557" type="curve"/>
      <point x="509" y="1561"/>
      <point x="485" y="1561"/>
      <point x="461" y="1561" type="curve" smooth="yes"/>
      <point x="410" y="1561"/>
      <point x="354" y="1540"/>
      <point x="354" y="1480" type="curve" smooth="yes"/>
      <point x="354" y="1444"/>
      <point x="380" y="1428"/>
      <point x="408" y="1413" type="curve" smooth="yes"/>
      <point x="484" y="1372"/>
      <point x="805" y="1224"/>
    </contour>
  </outline>
</glyph>
<glyph name="a" format="2">
  <advance width="1621"/>
  <unicode hex="0061"/>
  <anchor x="936" y="0" name="bottom"/>
  <anchor x="1719" y="17" name="ogonek"/>
  <anchor x="1034" y="1170" name="top"/>
  <outline>
    <contour>
      <point x="1285" y="886" type="line"/>
      <point x="1245" y="694"/>
      <point x="905" y="193"/>
      <point x="610" y="193" type="curve" smooth="yes"/>
      <point x="415" y="193"/>
      <point x="337" y="334"/>
      <point x="337" y="512" type="curve" smooth="yes"/>
      <point x="337" y="830"/>
      <point x="580" y="1004"/>
      <point x="884" y="1004" type="curve" smooth="yes"/>
      <point x="1025" y="1004"/>
      <point x="1204" y="993"/>
      <point x="1301" y="891" type="curve"/>
      <point x="1332" y="996" type="line"/>
      <point x="1246" y="1082"/>
      <point x="1041" y="1161"/>
      <point x="877" y="1161" type="curve" smooth="yes"/>
      <point x="452" y="1161"/>
      <point x="147" y="820"/>
      <point x="147" y="407" type="curve" smooth="yes"/>
      <point x="147" y="175"/>
      <point x="261" y="-25"/>
      <point x="515" y="-25" type="curve" smooth="yes"/>
      <point x="865" y="-25"/>
      <point x="1202" y="476"/>
      <point x="1272" y="591" type="curve"/>
    </contour>
    <contour>
      <point x="1293" y="953" type="curve" smooth="yes"/>
      <point x="1268" y="830"/>
      <point x="1241" y="708"/>
      <point x="1224" y="583" type="curve"/>
      <point x="1224" y="500"/>
      <point x="1224" y="416"/>
      <point x="1224" y="333" type="curve" smooth="yes"/>
      <point x="1224" y="201"/>
      <point x="1246" y="-13"/>
      <point x="1421" y="-13" type="curve" smooth="yes"/>
      <point x="1469" y="-13"/>
      <point x="1547" y="43"/>
      <point x="1584" y="73" type="curve"/>
      <point x="1437" y="214"/>
      <point x="1415" y="349"/>
      <point x="1415" y="545" type="curve" smooth="yes"/>
      <point x="1415" y="727"/>
      <point x="1435" y="940"/>
      <point x="1525" y="1101" type="curve"/>
      <point x="1495" y="1121"/>
      <point x="1454" y="1145"/>
      <point x="1417" y="1145" type="curve" smooth="yes"/>
      <point x="1342" y="1145"/>
      <point x="1312" y="1046"/>
    </contour>
  </outline>
</glyph>
<glyph name="b" format="2">
  <advance width="1346"/>
  <unicode hex="0062"/>
  <anchor x="812" y="0" name="bottom"/>
  <anchor x="813" y="587" name="center"/>
  <anchor x="812" y="1170" name="top"/>
  <outline>
    <contour>
      <point x="465" y="584" type="line"/>
      <point x="506" y="805"/>
      <point x="551" y="1012"/>
      <point x="595" y="1233" type="curve" smooth="yes"/>
      <point x="606" y="1289"/>
      <point x="616" y="1346"/>
      <point x="616" y="1404" type="curve" smooth="yes"/>
      <point x="616" y="1490"/>
      <point x="590" y="1575"/>
      <point x="488" y="1575" type="curve" smooth="yes"/>
      <point x="439" y="1575"/>
      <point x="381" y="1549"/>
      <point x="338" y="1526" type="curve"/>
      <point x="386" y="1456"/>
      <point x="406" y="1386"/>
      <point x="406" y="1301" type="curve" smooth="yes"/>
      <point x="406" y="1138"/>
      <point x="382" y="977"/>
      <point x="358" y="816" type="curve" smooth="yes"/>
      <point x="319" y="552"/>
      <point x="280" y="288"/>
      <point x="223" y="28" type="curve"/>
      <point x="250" y="6"/>
      <point x="287" y="-15"/>
      <point x="322" y="-15" type="curve" smooth="yes"/>
      <point x="408" y="-15"/>
      <point x="423" y="145"/>
      <point x="427" y="162" type="curve"/>
    </contour>
    <contour>
      <point x="427" y="162" type="line"/>
      <point x="414" y="196"/>
      <point x="635" y="943"/>
      <point x="946" y="943" type="curve" smooth="yes"/>
      <point x="1126" y="943"/>
      <point x="1163" y="733"/>
      <point x="1163" y="593" type="curve" smooth="yes"/>
      <point x="1163" y="340"/>
      <point x="1024" y="131"/>
      <point x="753" y="131" type="curve" smooth="yes"/>
      <point x="647" y="131"/>
      <point x="519" y="173"/>
      <point x="424" y="222" type="curve"/>
      <point x="400" y="117" type="line"/>
      <point x="511" y="50"/>
      <point x="625" y="-25"/>
      <point x="763" y="-25" type="curve" smooth="yes"/>
      <point x="1150" y="-25"/>
      <point x="1346" y="345"/>
      <point x="1346" y="690" type="curve" smooth="yes"/>
      <point x="1346" y="903"/>
      <point x="1280" y="1160"/>
      <point x="1005" y="1160" type="curve" smooth="yes"/>
      <point x="814" y="1160"/>
      <point x="626" y="879"/>
      <point x="543" y="741" type="curve" smooth="yes"/>
      <point x="512" y="689"/>
      <point x="493" y="649"/>
      <point x="465" y="584" type="curve"/>
    </contour>
  </outline>
</glyph>
<glyph name="c" format="2">
  <advance width="1170"/>
  <unicode hex="0063"/>
  <anchor x="715" y="0" name="bottom"/>
  <anchor x="921" y="1170" name="top"/>
  <outline>
    <contour>
      <point x="749" y="-29" type="curve" smooth="yes"/>
      <point x="966" y="-29"/>
      <point x="1204" y="45"/>
      <point x="1167" y="255" type="curve"/>
      <point x="1120" y="207"/>
      <point x="1059" y="136"/>
      <point x="803" y="136" type="curve" smooth="yes"/>
      <point x="544" y="136"/>
      <point x="341" y="250"/>
      <point x="341" y="534" type="curve" smooth="yes"/>
      <point x="341" y="820"/>
      <point x="525" y="994"/>
      <point x="807" y="994" type="curve" smooth="yes"/>
      <point x="938" y="994"/>
      <point x="1110" y="979"/>
      <point x="1201" y="872" type="curve"/>
      <point x="1234" y="893"/>
      <point x="1250" y="968"/>
      <point x="1250" y="1006" type="curve" smooth="yes"/>
      <point x="1250" y="1152"/>
      <point x="1039" y="1161"/>
      <point x="935" y="1161" type="curve" smooth="yes"/>
      <point x="533" y="1161"/>
      <point x="148" y="851"/>
      <point x="148" y="441" type="curve" smooth="yes"/>
      <point x="148" y="96"/>
      <point x="449" y="-29"/>
    </contour>
  </outline>
</glyph>
<glyph name="d" format="2">
  <advance width="1615"/>
  <unicode hex="0064"/>
  <anchor x="937" y="0" name="bottom"/>
  <anchor x="914" y="587" name="center"/>
  <anchor x="860" y="1945" name="top"/>
  <anchor x="2281" y="1426" name="topright"/>
  <outline>
    <contour>
      <point x="1314" y="1147" type="curve" smooth="yes"/>
      <point x="1302" y="874"/>
      <point x="1212" y="609"/>
      <point x="1212" y="334" type="curve" smooth="yes"/>
      <point x="1212" y="206"/>
      <point x="1233" y="-13"/>
      <point x="1405" y="-13" type="curve" smooth="yes"/>
      <point x="1453" y="-13"/>
      <point x="1530" y="43"/>
      <point x="1566" y="73" type="curve"/>
      <point x="1440" y="199"/>
      <point x="1398" y="373"/>
      <point x="1398" y="547" type="curve" smooth="yes"/>
      <point x="1398" y="713"/>
      <point x="1433" y="876"/>
      <point x="1468" y="1037" type="curve" smooth="yes"/>
      <point x="1492" y="1148"/>
      <point x="1519" y="1259"/>
      <point x="1519" y="1373" type="curve" smooth="yes"/>
      <point x="1519" y="1469"/>
      <point x="1486" y="1575"/>
      <point x="1372" y="1575" type="curve" smooth="yes"/>
      <point x="1321" y="1575"/>
      <point x="1256" y="1550"/>
      <point x="1209" y="1530" type="curve"/>
      <point x="1287" y="1433"/>
      <point x="1319" y="1269"/>
    </contour>
    <contour>
      <point x="1285" y="886" type="line"/>
      <point x="1245" y="694"/>
      <point x="905" y="193"/>
      <point x="610" y="193" type="curve" smooth="yes"/>
      <point x="415" y="193"/>
      <point x="337" y="334"/>
      <point x="337" y="512" type="curve" smooth="yes"/>
      <point x="337" y="830"/>
      <point x="580" y="1004"/>
      <point x="884" y="1004" type="curve" smooth="yes"/>
      <point x="1025" y="1004"/>
      <point x="1204" y="993"/>
      <point x="1301" y="891" type="curve"/>
      <point x="1332" y="996" type="line"/>
      <point x="1246" y="1082"/>
      <point x="1041" y="1161"/>
      <point x="877" y="1161" type="curve" smooth="yes"/>
      <point x="452" y="1161"/>
      <point x="147" y="820"/>
      <point x="147" y="407" type="curve" smooth="yes"/>
      <point x="147" y="175"/>
      <point x="261" y="-25"/>
      <point x="515" y="-25" type="curve" smooth="yes"/>
      <point x="865" y="-25"/>
      <point x="1202" y="476"/>
      <point x="1272" y="591" type="curve"/>
    </contour>
  </outline>
</glyph>
<glyph name="e" format="2">
  <advance width="1198"/>
  <unicode hex="0065"/>
  <anchor x="716" y="0" name="bottom"/>
  <anchor x="1306" y="17" name="ogonek"/>
  <anchor x="950" y="1170" name="top"/>
  <outline>
    <contour>
      <point x="264" y="618" type="curve"/>
      <point x="252" y="472" type="line"/>
      <point x="531" y="441"/>
      <point x="1242" y="499"/>
      <point x="1242" y="924" type="curve" smooth="yes"/>
      <point x="1242" y="1108"/>
      <point x="1050" y="1161"/>
      <point x="899" y="1161" type="curve" smooth="yes"/>
      <point x="628" y="1161"/>
      <point x="398" y="1029"/>
      <point x="256" y="798" type="curve" smooth="yes"/>
      <point x="190" y="690"/>
      <point x="148" y="561"/>
      <point x="148" y="434" type="curve" smooth="yes"/>
      <point x="148" y="100"/>
      <point x="420" y="-29"/>
      <point x="717" y="-29" type="curve" smooth="yes"/>
      <point x="878" y="-29"/>
      <point x="1152" y="23"/>
      <point x="1152" y="229" type="curve" smooth="yes"/>
      <point x="1152" y="239"/>
      <point x="1151" y="249"/>
      <point x="1144" y="256" type="curve"/>
      <point x="1031" y="95"/>
      <point x="453" y="42"/>
      <point x="356" y="304" type="curve" smooth="yes"/>
      <point x="321" y="398"/>
      <point x="338" y="595"/>
      <point x="362" y="686" type="curve" smooth="yes"/>
      <point x="416" y="892"/>
      <point x="568" y="994"/>
      <point x="777" y="994" type="curve" smooth="yes"/>
      <point x="865" y="994"/>
      <point x="1058" y="970"/>
      <point x="1058" y="851" type="curve" smooth="yes"/>
      <point x="1058" y="608"/>
      <point x="459" y="589"/>
    </contour>
  </outline>
</glyph>
<glyph name="f" format="2">
  <advance width="740"/>
  <unicode hex="0066"/>
  <anchor x="429" y="0" name="bottom"/>
  <anchor x="457" y="1945" name="top"/>
  <outline>
    <contour>
      <point x="204" y="-132" type="curve" smooth="yes"/>
      <point x="197" y="-227"/>
      <point x="217" y="-366"/>
      <point x="342" y="-366" type="curve" smooth="yes"/>
      <point x="391" y="-366"/>
      <point x="456" y="-312"/>
      <point x="491" y="-279" type="curve"/>
      <point x="324" y="-201"/>
      <point x="398" y="101"/>
      <point x="440" y="432" type="curve" smooth="yes"/>
      <point x="486" y="799"/>
      <point x="581" y="1190"/>
      <point x="648" y="1301" type="curve" smooth="yes"/>
      <point x="706" y="1398"/>
      <point x="793" y="1458"/>
      <point x="931" y="1458" type="curve" smooth="yes"/>
      <point x="1020" y="1458"/>
      <point x="1136" y="1433"/>
      <point x="1167" y="1323" type="curve"/>
      <point x="1211" y="1348"/>
      <point x="1230" y="1421"/>
      <point x="1230" y="1468" type="curve" smooth="yes"/>
      <point x="1230" y="1603"/>
      <point x="1062" y="1624"/>
      <point x="957" y="1624" type="curve" smooth="yes"/>
      <point x="747" y="1624"/>
      <point x="620" y="1540"/>
      <point x="535" y="1408" type="curve" smooth="yes"/>
      <point x="355" y="1131"/>
      <point x="230" y="204"/>
    </contour>
    <contour>
      <point x="894" y="1091" type="curve"/>
      <point x="780" y="1053"/>
      <point x="558" y="1062"/>
      <point x="431" y="1062" type="curve" smooth="yes"/>
      <point x="275" y="1062"/>
      <point x="127" y="1077"/>
      <point x="129" y="873" type="curve"/>
      <point x="254" y="912"/>
      <point x="393" y="902"/>
      <point x="521" y="902" type="curve" smooth="yes"/>
      <point x="692" y="902"/>
      <point x="858" y="878"/>
    </contour>
  </outline>
</glyph>
<glyph name="g" format="2">
  <advance width="1462"/>
  <unicode hex="0067"/>
  <anchor x="898" y="-465" name="bottom"/>
  <anchor x="1009" y="1170" name="top"/>
  <outline>
    <contour>
      <point x="676" y="-417" type="curve" smooth="yes"/>
      <point x="1095" y="-417"/>
      <point x="1367" y="-154"/>
      <point x="1367" y="267" type="curve" smooth="yes"/>
      <point x="1367" y="412"/>
      <point x="1362" y="556"/>
      <point x="1362" y="701" type="curve" smooth="yes"/>
      <point x="1362" y="925"/>
      <point x="1378" y="945"/>
      <point x="1526" y="1108" type="curve"/>
      <point x="1476" y="1129"/>
      <point x="1422" y="1145"/>
      <point x="1367" y="1145" type="curve" smooth="yes"/>
      <point x="1306" y="1145"/>
      <point x="1275" y="1079"/>
      <point x="1266" y="1028" type="curve"/>
      <point x="1237" y="941" type="line"/>
      <point x="1239" y="920"/>
      <point x="1234" y="849"/>
      <point x="1224" y="764" type="curve"/>
      <point x="1178" y="544" type="line"/>
      <point x="1181" y="521"/>
      <point x="1185" y="498"/>
      <point x="1185" y="475" type="curve" smooth="yes"/>
      <point x="1185" y="371"/>
      <point x="1184" y="266"/>
      <point x="1179" y="162" type="curve" smooth="yes"/>
      <point x="1177" y="109"/>
      <point x="1175" y="55"/>
      <point x="1164" y="3" type="curve" smooth="yes"/>
      <point x="1123" y="-196"/>
      <point x="968" y="-252"/>
      <point x="783" y="-252" type="curve" smooth="yes"/>
      <point x="644" y="-252"/>
      <point x="434" y="-229"/>
      <point x="330" y="-129" type="curve"/>
      <point x="310" y="-151"/>
      <point x="297" y="-217"/>
      <point x="297" y="-247" type="curve" smooth="yes"/>
      <point x="297" y="-401"/>
      <point x="566" y="-417"/>
    </contour>
    <contour>
      <point x="1236" y="886" type="line"/>
      <point x="1196" y="694"/>
      <point x="874" y="193"/>
      <point x="595" y="193" type="curve" smooth="yes"/>
      <point x="411" y="193"/>
      <point x="337" y="334"/>
      <point x="337" y="512" type="curve" smooth="yes"/>
      <point x="337" y="830"/>
      <point x="572" y="1004"/>
      <point x="865" y="1004" type="curve" smooth="yes"/>
      <point x="1001" y="1004"/>
      <point x="1174" y="993"/>
      <point x="1271" y="891" type="curve"/>
      <point x="1302" y="996" type="line"/>
      <point x="1216" y="1082"/>
      <point x="1016" y="1161"/>
      <point x="857" y="1161" type="curve" smooth="yes"/>
      <point x="444" y="1161"/>
      <point x="147" y="820"/>
      <point x="147" y="407" type="curve" smooth="yes"/>
      <point x="147" y="175"/>
      <point x="256" y="-25"/>
      <point x="497" y="-25" type="curve" smooth="yes"/>
      <point x="832" y="-25"/>
      <point x="1153" y="476"/>
      <point x="1223" y="591" type="curve"/>
    </contour>
  </outline>
</glyph>
<glyph name="h" format="2">
  <advance width="1535"/>
  <unicode hex="0068"/>
  <anchor x="899" y="0" name="bottom"/>
  <anchor x="871" y="974" name="center"/>
  <anchor x="581" y="1563" name="top"/>
  <outline>
    <contour>
      <point x="516" y="14" type="curve"/>
      <point x="472" y="66"/>
      <point x="434" y="131"/>
      <point x="434" y="201" type="curve" smooth="yes"/>
      <point x="434" y="257"/>
      <point x="458" y="312"/>
      <point x="481" y="368" type="curve"/>
      <point x="415" y="359" type="line"/>
      <point x="445" y="699"/>
      <point x="624" y="1020"/>
      <point x="624" y="1363" type="curve" smooth="yes"/>
      <point x="624" y="1458"/>
      <point x="610" y="1575"/>
      <point x="488" y="1575" type="curve" smooth="yes"/>
      <point x="438" y="1575"/>
      <point x="377" y="1550"/>
      <point x="332" y="1528" type="curve"/>
      <point x="399" y="1439"/>
      <point x="416" y="1323"/>
      <point x="416" y="1214" type="curve" smooth="yes"/>
      <point x="416" y="1017"/>
      <point x="366" y="825"/>
      <point x="318" y="635" type="curve" smooth="yes"/>
      <point x="281" y="490"/>
      <point x="236" y="342"/>
      <point x="236" y="191" type="curve" smooth="yes"/>
      <point x="236" y="103"/>
      <point x="243" y="-13"/>
      <point x="359" y="-13" type="curve" smooth="yes"/>
      <point x="412" y="-13"/>
      <point x="464" y="7"/>
    </contour>
    <contour>
      <point x="412" y="159" type="line"/>
      <point x="456" y="404"/>
      <point x="757" y="937"/>
      <point x="1040" y="937" type="curve" smooth="yes"/>
      <point x="1126" y="937"/>
      <point x="1230" y="920"/>
      <point x="1230" y="811" type="curve" smooth="yes"/>
      <point x="1230" y="667"/>
      <point x="1155" y="493"/>
      <point x="1155" y="296" type="curve" smooth="yes"/>
      <point x="1155" y="176"/>
      <point x="1176" y="-13"/>
      <point x="1335" y="-13" type="curve" smooth="yes"/>
      <point x="1383" y="-13"/>
      <point x="1468" y="44"/>
      <point x="1507" y="72" type="curve"/>
      <point x="1396" y="157"/>
      <point x="1357" y="284"/>
      <point x="1357" y="419" type="curve" smooth="yes"/>
      <point x="1357" y="566"/>
      <point x="1403" y="710"/>
      <point x="1403" y="857" type="curve" smooth="yes"/>
      <point x="1403" y="1036"/>
      <point x="1333" y="1156"/>
      <point x="1140" y="1155" type="curve" smooth="yes"/>
      <point x="817" y="1153"/>
      <point x="484" y="617"/>
      <point x="349" y="364" type="curve"/>
    </contour>
  </outline>
</glyph>
<glyph name="j" format="2">
  <advance width="584"/>
  <unicode hex="006A"/>
  <outline>
    <contour>
      <point x="557" y="906" type="curve" smooth="yes"/>
      <point x="570" y="1000"/>
      <point x="586" y="1143"/>
      <point x="444" y="1143" type="curve" smooth="yes"/>
      <point x="321" y="1143"/>
      <point x="224" y="1110"/>
      <point x="72" y="1115" type="curve"/>
      <point x="132" y="917"/>
      <point x="293" y="978"/>
      <point x="380" y="1019" type="curve"/>
      <point x="369" y="900"/>
      <point x="362" y="733"/>
      <point x="331" y="519" type="curve" smooth="yes"/>
      <point x="261" y="41"/>
      <point x="297" y="-252"/>
      <point x="-91" y="-252" type="curve" smooth="yes"/>
      <point x="-226" y="-252"/>
      <point x="-296" y="-197"/>
      <point x="-320" y="-129" type="curve"/>
      <point x="-378" y="-161"/>
      <point x="-400" y="-216"/>
      <point x="-396" y="-278" type="curve" smooth="yes"/>
      <point x="-389" y="-396"/>
      <point x="-260" y="-431"/>
      <point x="-128" y="-432" type="curve" smooth="yes"/>
      <point x="228" y="-435"/>
      <point x="389" y="-103"/>
      <point x="440" y="94" type="curve" smooth="yes"/>
      <point x="476" y="231"/>
      <point x="494" y="373"/>
      <point x="511" y="515" type="curve" smooth="yes"/>
      <point x="527" y="646"/>
      <point x="540" y="778"/>
    </contour>
    <contour>
      <point x="463" y="1234" type="curve" smooth="yes"/>
      <point x="515" y="1234"/>
      <point x="566" y="1248"/>
      <point x="616" y="1267" type="curve"/>
      <point x="638" y="1319"/>
      <point x="661" y="1374"/>
      <point x="661" y="1434" type="curve" smooth="yes"/>
      <point x="661" y="1531"/>
      <point x="593" y="1553"/>
      <point x="528" y="1553" type="curve" smooth="yes"/>
      <point x="473" y="1553"/>
      <point x="420" y="1537"/>
      <point x="368" y="1518" type="curve"/>
      <point x="354" y="1463"/>
      <point x="340" y="1408"/>
      <point x="340" y="1350" type="curve" smooth="yes"/>
      <point x="340" y="1252"/>
      <point x="395" y="1234"/>
    </contour>
  </outline>
</glyph>
<glyph name="k" format="2">
  <advance width="1328"/>
  <unicode hex="006B"/>
  <anchor x="803" y="0" name="bottom"/>
  <anchor x="746" y="1945" name="top"/>
  <outline>
    <contour>
      <point x="622" y="1399" type="curve" smooth="yes"/>
      <point x="622" y="1492"/>
      <point x="592" y="1575"/>
      <point x="484" y="1575" type="curve" smooth="yes"/>
      <point x="431" y="1575"/>
      <point x="378" y="1553"/>
      <point x="332" y="1528" type="curve"/>
      <point x="394" y="1438"/>
      <point x="407" y="1325"/>
      <point x="407" y="1219" type="curve" smooth="yes"/>
      <point x="407" y="866"/>
      <point x="245" y="484"/>
      <point x="245" y="202" type="curve" smooth="yes"/>
      <point x="245" y="94"/>
      <point x="276" y="-13"/>
      <point x="404" y="-13" type="curve" smooth="yes"/>
      <point x="453" y="-13"/>
      <point x="530" y="44"/>
      <point x="568" y="74" type="curve"/>
      <point x="491" y="130"/>
      <point x="438" y="209"/>
      <point x="438" y="306" type="curve" smooth="yes"/>
      <point x="438" y="488"/>
      <point x="508" y="801"/>
      <point x="549" y="985" type="curve" smooth="yes"/>
      <point x="579" y="1122"/>
      <point x="622" y="1258"/>
    </contour>
    <contour>
      <point x="1240" y="-18" type="curve" smooth="yes"/>
      <point x="1342" y="-18"/>
      <point x="1387" y="87"/>
      <point x="1387" y="175" type="curve"/>
      <point x="1227" y="192"/>
      <point x="803" y="472"/>
      <point x="759" y="645" type="curve"/>
      <point x="606" y="554" type="line"/>
      <point x="671" y="398"/>
      <point x="1097" y="-18"/>
    </contour>
    <contour>
      <point x="418" y="424" type="line"/>
      <point x="548" y="514"/>
      <point x="1294" y="921"/>
      <point x="1294" y="1051" type="curve" smooth="yes"/>
      <point x="1294" y="1115"/>
      <point x="1202" y="1134"/>
      <point x="1153" y="1134" type="curve"/>
      <point x="964" y="895"/>
      <point x="694" y="727"/>
      <point x="424" y="594" type="curve"/>
    </contour>
  </outline>
</glyph>
<glyph name="l" format="2">
  <advance width="832"/>
  <unicode hex="006C"/>
  <anchor x="524" y="0" name="bottom"/>
  <anchor x="478" y="974" name="center"/>
  <anchor x="436" y="1945" name="top"/>
  <anchor x="1404" y="1426" name="topright"/>
  <outline>
    <contour>
      <point x="503" y="-13" type="curve" smooth="yes"/>
      <point x="550" y="-13"/>
      <point x="642" y="47"/>
      <point x="681" y="75" type="curve"/>
      <point x="563" y="152"/>
      <point x="527" y="215"/>
      <point x="527" y="356" type="curve" smooth="yes"/>
      <point x="527" y="558"/>
      <point x="577" y="757"/>
      <point x="622" y="953" type="curve" smooth="yes"/>
      <point x="655" y="1096"/>
      <point x="701" y="1241"/>
      <point x="701" y="1389" type="curve" smooth="yes"/>
      <point x="701" y="1491"/>
      <point x="665" y="1575"/>
      <point x="550" y="1575" type="curve" smooth="yes"/>
      <point x="497" y="1575"/>
      <point x="432" y="1551"/>
      <point x="383" y="1530" type="curve"/>
      <point x="461" y="1434"/>
      <point x="480" y="1306"/>
      <point x="480" y="1186" type="curve" smooth="yes"/>
      <point x="480" y="995"/>
      <point x="436" y="807"/>
      <point x="394" y="621" type="curve" smooth="yes"/>
      <point x="364" y="487"/>
      <point x="326" y="352"/>
      <point x="326" y="213" type="curve" smooth="yes"/>
      <point x="326" y="93"/>
      <point x="364" y="-13"/>
    </contour>
  </outline>
</glyph>
<glyph name="m" format="2">
  <advance width="2201"/>
  <unicode hex="006D"/>
  <anchor x="1265" y="0" name="bottom"/>
  <anchor x="1246" y="1170" name="top"/>
  <outline>
    <contour>
      <point x="356" y="-13" type="curve" smooth="yes"/>
      <point x="408" y="-13"/>
      <point x="459" y="0"/>
      <point x="508" y="15" type="curve"/>
      <point x="420" y="148"/>
      <point x="428" y="254"/>
      <point x="484" y="390" type="curve" smooth="yes"/>
      <point x="555" y="562"/>
      <point x="762" y="937"/>
      <point x="975" y="937" type="curve" smooth="yes"/>
      <point x="1099" y="937"/>
      <point x="1139" y="920"/>
      <point x="1139" y="788" type="curve" smooth="yes"/>
      <point x="1139" y="581"/>
      <point x="1058" y="384"/>
      <point x="1058" y="180" type="curve" smooth="yes"/>
      <point x="1058" y="97"/>
      <point x="1067" y="-13"/>
      <point x="1176" y="-13" type="curve" smooth="yes"/>
      <point x="1228" y="-13"/>
      <point x="1279" y="0"/>
      <point x="1329" y="15" type="curve"/>
      <point x="1241" y="141"/>
      <point x="1251" y="261"/>
      <point x="1305" y="392" type="curve" smooth="yes"/>
      <point x="1375" y="566"/>
      <point x="1580" y="937"/>
      <point x="1794" y="937" type="curve" smooth="yes"/>
      <point x="1878" y="937"/>
      <point x="1958" y="914"/>
      <point x="1960" y="814" type="curve" smooth="yes"/>
      <point x="1963" y="696"/>
      <point x="1884" y="526"/>
      <point x="1886" y="290" type="curve" smooth="yes"/>
      <point x="1887" y="176"/>
      <point x="1904" y="-13"/>
      <point x="2056" y="-13" type="curve" smooth="yes"/>
      <point x="2106" y="-13"/>
      <point x="2181" y="42"/>
      <point x="2220" y="73" type="curve"/>
      <point x="2118" y="156"/>
      <point x="2089" y="272"/>
      <point x="2089" y="398" type="curve" smooth="yes"/>
      <point x="2089" y="555"/>
      <point x="2126" y="709"/>
      <point x="2126" y="866" type="curve" smooth="yes"/>
      <point x="2126" y="1028"/>
      <point x="2082" y="1155"/>
      <point x="1896" y="1155" type="curve" smooth="yes"/>
      <point x="1646" y="1155"/>
      <point x="1395" y="760"/>
      <point x="1300" y="575" type="curve"/>
      <point x="1319" y="664"/>
      <point x="1316" y="757"/>
      <point x="1316" y="848" type="curve" smooth="yes"/>
      <point x="1316" y="1012"/>
      <point x="1264" y="1155"/>
      <point x="1075" y="1155" type="curve" smooth="yes"/>
      <point x="851" y="1155"/>
      <point x="583" y="724"/>
      <point x="479" y="559" type="curve"/>
      <point x="500" y="694"/>
      <point x="531" y="827"/>
      <point x="531" y="965" type="curve" smooth="yes"/>
      <point x="531" y="1058"/>
      <point x="501" y="1143"/>
      <point x="393" y="1143" type="curve" smooth="yes"/>
      <point x="341" y="1143"/>
      <point x="285" y="1120"/>
      <point x="241" y="1093" type="curve"/>
      <point x="300" y="1012"/>
      <point x="318" y="911"/>
      <point x="318" y="813" type="curve" smooth="yes"/>
      <point x="318" y="599"/>
      <point x="237" y="395"/>
      <point x="237" y="181" type="curve" smooth="yes"/>
      <point x="237" y="96"/>
      <point x="245" y="-13"/>
    </contour>
  </outline>
</glyph>
<glyph name="n" format="2">
  <advance width="1652"/>
  <unicode hex="006E"/>
  <anchor x="971" y="0" name="bottom"/>
  <anchor x="1031" y="1170" name="top"/>
  <outline>
    <contour>
      <point x="548" y="933" type="curve" smooth="yes"/>
      <point x="548" y="1031"/>
      <point x="524" y="1143"/>
      <point x="404" y="1143" type="curve" smooth="yes"/>
      <point x="353" y="1143"/>
      <point x="288" y="1116"/>
      <point x="242" y="1094" type="curve"/>
      <point x="315" y="1006"/>
      <point x="338" y="899"/>
      <point x="338" y="787" type="curve" smooth="yes"/>
      <point x="338" y="583"/>
      <point x="263" y="386"/>
      <point x="263" y="188" type="curve" smooth="yes"/>
      <point x="263" y="101"/>
      <point x="280" y="-13"/>
      <point x="391" y="-13" type="curve" smooth="yes"/>
      <point x="447" y="-13"/>
      <point x="502" y="0"/>
      <point x="556" y="13" type="curve"/>
      <point x="511" y="64"/>
      <point x="465" y="136"/>
      <point x="463" y="206" type="curve" smooth="yes"/>
      <point x="455" y="475"/>
      <point x="548" y="691"/>
    </contour>
    <contour>
      <point x="467" y="169" type="line"/>
      <point x="432" y="429"/>
      <point x="831" y="937"/>
      <point x="1130" y="937" type="curve" smooth="yes"/>
      <point x="1216" y="937"/>
      <point x="1320" y="920"/>
      <point x="1320" y="811" type="curve" smooth="yes"/>
      <point x="1320" y="667"/>
      <point x="1245" y="493"/>
      <point x="1245" y="296" type="curve" smooth="yes"/>
      <point x="1245" y="176"/>
      <point x="1266" y="-13"/>
      <point x="1425" y="-13" type="curve" smooth="yes"/>
      <point x="1473" y="-13"/>
      <point x="1558" y="44"/>
      <point x="1597" y="72" type="curve"/>
      <point x="1486" y="157"/>
      <point x="1447" y="284"/>
      <point x="1447" y="419" type="curve" smooth="yes"/>
      <point x="1447" y="566"/>
      <point x="1493" y="710"/>
      <point x="1493" y="857" type="curve" smooth="yes"/>
      <point x="1493" y="1036"/>
      <point x="1423" y="1156"/>
      <point x="1230" y="1155" type="curve" smooth="yes"/>
      <point x="863" y="1153"/>
      <point x="496" y="619"/>
      <point x="376" y="364" type="curve"/>
    </contour>
  </outline>
</glyph>
<glyph name="o" format="2">
  <advance width="1373"/>
  <unicode hex="006F"/>
  <anchor x="822" y="0" name="bottom"/>
  <anchor x="816" y="587" name="center"/>
  <anchor x="1495" y="17" name="ogonek"/>
  <anchor x="956" y="1170" name="top"/>
  <anchor x="1599" y="1170" name="topright"/>
  <outline>
    <contour>
      <point x="636" y="-29" type="curve" smooth="yes"/>
      <point x="1032" y="-29"/>
      <point x="1375" y="303"/>
      <point x="1375" y="702" type="curve" smooth="yes"/>
      <point x="1375" y="990"/>
      <point x="1166" y="1161"/>
      <point x="888" y="1161" type="curve" smooth="yes"/>
      <point x="493" y="1161"/>
      <point x="147" y="829"/>
      <point x="147" y="430" type="curve" smooth="yes"/>
      <point x="147" y="142"/>
      <point x="357" y="-29"/>
    </contour>
    <contour>
      <point x="760" y="136" type="curve" smooth="yes"/>
      <point x="510" y="136"/>
      <point x="341" y="271"/>
      <point x="341" y="531" type="curve" smooth="yes"/>
      <point x="341" y="782"/>
      <point x="491" y="994"/>
      <point x="756" y="994" type="curve" smooth="yes"/>
      <point x="998" y="994"/>
      <point x="1183" y="869"/>
      <point x="1183" y="612" type="curve" smooth="yes"/>
      <point x="1183" y="353"/>
      <point x="1036" y="136"/>
    </contour>
  </outline>
</glyph>
<glyph name="p" format="2">
  <advance width="1252"/>
  <unicode hex="0070"/>
  <anchor x="748" y="0" name="bottom"/>
  <anchor x="771" y="1170" name="top"/>
  <outline>
    <contour>
      <point x="416" y="559" type="line"/>
      <point x="451" y="694"/>
      <point x="500" y="828"/>
      <point x="500" y="969" type="curve" smooth="yes"/>
      <point x="500" y="1051"/>
      <point x="478" y="1143"/>
      <point x="378" y="1143" type="curve" smooth="yes"/>
      <point x="331" y="1143"/>
      <point x="281" y="1117"/>
      <point x="242" y="1093" type="curve"/>
      <point x="283" y="1007"/>
      <point x="289" y="910"/>
      <point x="289" y="817" type="curve" smooth="yes"/>
      <point x="289" y="577"/>
      <point x="245" y="341"/>
      <point x="200" y="106" type="curve" smooth="yes"/>
      <point x="180" y="4"/>
      <point x="160" y="-99"/>
      <point x="160" y="-204" type="curve" smooth="yes"/>
      <point x="160" y="-306"/>
      <point x="180" y="-445"/>
      <point x="311" y="-445" type="curve" smooth="yes"/>
      <point x="360" y="-445"/>
      <point x="422" y="-390"/>
      <point x="455" y="-357" type="curve"/>
      <point x="373" y="-287"/>
      <point x="345" y="-190"/>
      <point x="345" y="-85" type="curve" smooth="yes"/>
      <point x="345" y="-55"/>
      <point x="358" y="43"/>
      <point x="362" y="79" type="curve" smooth="yes"/>
      <point x="368" y="134" type="line"/>
    </contour>
    <contour>
      <point x="367" y="162" type="line"/>
      <point x="354" y="196"/>
      <point x="565" y="943"/>
      <point x="864" y="943" type="curve" smooth="yes"/>
      <point x="1037" y="943"/>
      <point x="1073" y="733"/>
      <point x="1073" y="593" type="curve" smooth="yes"/>
      <point x="1073" y="340"/>
      <point x="940" y="131"/>
      <point x="681" y="131" type="curve" smooth="yes"/>
      <point x="581" y="131"/>
      <point x="459" y="173"/>
      <point x="364" y="222" type="curve"/>
      <point x="340" y="117" type="line"/>
      <point x="451" y="50"/>
      <point x="561" y="-25"/>
      <point x="694" y="-25" type="curve" smooth="yes"/>
      <point x="1067" y="-25"/>
      <point x="1256" y="345"/>
      <point x="1256" y="690" type="curve" smooth="yes"/>
      <point x="1256" y="903"/>
      <point x="1192" y="1160"/>
      <point x="926" y="1160" type="curve" smooth="yes"/>
      <point x="742" y="1160"/>
      <point x="560" y="879"/>
      <point x="481" y="741" type="curve" smooth="yes"/>
      <point x="451" y="689"/>
      <point x="433" y="649"/>
      <point x="405" y="584" type="curve"/>
    </contour>
  </outline>
</glyph>
<glyph name="q" format="2">
  <advance width="1302"/>
  <unicode hex="0071"/>
  <anchor x="754" y="0" name="bottom"/>
  <anchor x="759" y="1170" name="top"/>
  <outline>
    <contour>
      <point x="1011" y="-450" type="curve" smooth="yes"/>
      <point x="1060" y="-450"/>
      <point x="1114" y="-423"/>
      <point x="1155" y="-399" type="curve"/>
      <point x="1104" y="-314"/>
      <point x="1100" y="-194"/>
      <point x="1100" y="-97" type="curve" smooth="yes"/>
      <point x="1100" y="306"/>
      <point x="1201" y="708"/>
      <point x="1308" y="1093" type="curve"/>
      <point x="1285" y="1116"/>
      <point x="1247" y="1145"/>
      <point x="1212" y="1145" type="curve" smooth="yes"/>
      <point x="1155" y="1145"/>
      <point x="1127" y="1093"/>
      <point x="1115" y="1045" type="curve" smooth="yes"/>
      <point x="1103" y="994"/>
      <point x="1096" y="943"/>
      <point x="1081" y="893" type="curve" smooth="yes"/>
      <point x="1059" y="817"/>
      <point x="1033" y="741"/>
      <point x="998" y="669" type="curve" smooth="yes"/>
      <point x="929" y="525"/>
      <point x="701" y="193"/>
      <point x="526" y="193" type="curve" smooth="yes"/>
      <point x="368" y="193"/>
      <point x="333" y="355"/>
      <point x="333" y="482" type="curve" smooth="yes"/>
      <point x="333" y="750"/>
      <point x="484" y="1004"/>
      <point x="777" y="1004" type="curve" smooth="yes"/>
      <point x="891" y="1004"/>
      <point x="1007" y="977"/>
      <point x="1102" y="911" type="curve"/>
      <point x="1125" y="1021" type="line"/>
      <point x="1021" y="1092"/>
      <point x="908" y="1161"/>
      <point x="778" y="1161" type="curve" smooth="yes"/>
      <point x="371" y="1161"/>
      <point x="146" y="748"/>
      <point x="146" y="384" type="curve" smooth="yes"/>
      <point x="146" y="191"/>
      <point x="209" y="-25"/>
      <point x="441" y="-25" type="curve" smooth="yes"/>
      <point x="727" y="-25"/>
      <point x="923" y="326"/>
      <point x="1035" y="548" type="curve"/>
      <point x="993" y="330"/>
      <point x="945" y="113"/>
      <point x="903" y="-105" type="curve" smooth="yes"/>
      <point x="892" y="-161"/>
      <point x="882" y="-218"/>
      <point x="882" y="-276" type="curve" smooth="yes"/>
      <point x="882" y="-363"/>
      <point x="907" y="-450"/>
    </contour>
  </outline>
</glyph>
<glyph name="r" format="2">
  <advance width="1108"/>
  <unicode hex="0072"/>
  <anchor x="446" y="0" name="bottom"/>
  <anchor x="880" y="1170" name="top"/>
  <outline>
    <contour>
      <point x="439" y="-13" type="curve" smooth="yes"/>
      <point x="491" y="-13"/>
      <point x="574" y="45"/>
      <point x="615" y="75" type="curve"/>
      <point x="534" y="129"/>
      <point x="466" y="212"/>
      <point x="466" y="313" type="curve" smooth="yes"/>
      <point x="466" y="389"/>
      <point x="513" y="469"/>
      <point x="556" y="529" type="curve" smooth="yes"/>
      <point x="757" y="805"/>
      <point x="1021" y="925"/>
      <point x="1237" y="920" type="curve"/>
      <point x="1250" y="955"/>
      <point x="1257" y="993"/>
      <point x="1257" y="1030" type="curve" smooth="yes"/>
      <point x="1257" y="1087"/>
      <point x="1241" y="1161"/>
      <point x="1170" y="1161" type="curve" smooth="yes"/>
      <point x="889" y="1161"/>
      <point x="656" y="849"/>
      <point x="503" y="647" type="curve"/>
      <point x="543" y="737"/>
      <point x="569" y="877"/>
      <point x="569" y="997" type="curve" smooth="yes"/>
      <point x="569" y="1090"/>
      <point x="527" y="1143"/>
      <point x="431" y="1143" type="curve" smooth="yes"/>
      <point x="374" y="1143"/>
      <point x="316" y="1118"/>
      <point x="266" y="1093" type="curve"/>
      <point x="334" y="1017"/>
      <point x="360" y="919"/>
      <point x="360" y="819" type="curve" smooth="yes"/>
      <point x="360" y="613"/>
      <point x="266" y="420"/>
      <point x="266" y="214" type="curve" smooth="yes"/>
      <point x="266" y="98"/>
      <point x="303" y="-13"/>
    </contour>
  </outline>
</glyph>
<glyph name="s" format="2">
  <advance width="879"/>
  <unicode hex="0073"/>
  <anchor x="442" y="0" name="bottom"/>
  <anchor x="674" y="1170" name="top"/>
  <outline>
    <contour>
      <point x="424" y="-23" type="curve" smooth="yes"/>
      <point x="644" y="-23"/>
      <point x="850" y="87"/>
      <point x="850" y="332" type="curve" smooth="yes"/>
      <point x="850" y="503"/>
      <point x="713" y="589"/>
      <point x="587" y="674" type="curve" smooth="yes"/>
      <point x="519" y="720"/>
      <point x="376" y="811"/>
      <point x="376" y="902" type="curve" smooth="yes"/>
      <point x="376" y="984"/>
      <point x="497" y="1002"/>
      <point x="559" y="1002" type="curve" smooth="yes"/>
      <point x="667" y="1002"/>
      <point x="773" y="965"/>
      <point x="821" y="861" type="curve"/>
      <point x="874" y="883"/>
      <point x="897" y="957"/>
      <point x="897" y="1010" type="curve" smooth="yes"/>
      <point x="897" y="1135"/>
      <point x="759" y="1161"/>
      <point x="660" y="1161" type="curve" smooth="yes"/>
      <point x="441" y="1161"/>
      <point x="216" y="1071"/>
      <point x="216" y="817" type="curve" smooth="yes"/>
      <point x="216" y="649"/>
      <point x="347" y="565"/>
      <point x="472" y="482" type="curve" smooth="yes"/>
      <point x="545" y="433"/>
      <point x="685" y="345"/>
      <point x="685" y="247" type="curve" smooth="yes"/>
      <point x="685" y="152"/>
      <point x="545" y="128"/>
      <point x="472" y="128" type="curve" smooth="yes"/>
      <point x="341" y="128"/>
      <point x="205" y="191"/>
      <point x="167" y="326" type="curve"/>
      <point x="114" y="300"/>
      <point x="91" y="231"/>
      <point x="91" y="175" type="curve" smooth="yes"/>
      <point x="91" y="18"/>
      <point x="302" y="-23"/>
    </contour>
  </outline>
</glyph>
<glyph name="t" format="2">
  <advance width="900"/>
  <unicode hex="0074"/>
  <anchor x="480" y="0" name="bottom"/>
  <anchor x="547" y="587" name="center"/>
  <anchor x="535" y="1170" name="top"/>
  <anchor x="1391" y="1493" name="topright"/>
  <outline>
    <contour>
      <point x="397" y="1356" type="curve"/>
      <point x="596" y="1041"/>
      <point x="333" y="578"/>
      <point x="333" y="228" type="curve" smooth="yes"/>
      <point x="333" y="48"/>
      <point x="432" y="-26"/>
      <point x="605" y="-26" type="curve" smooth="yes"/>
      <point x="752" y="-26"/>
      <point x="932" y="24"/>
      <point x="932" y="203" type="curve"/>
      <point x="864" y="140"/>
      <point x="726" y="137"/>
      <point x="638" y="137" type="curve" smooth="yes"/>
      <point x="520" y="137"/>
      <point x="518" y="199"/>
      <point x="518" y="297" type="curve" smooth="yes"/>
      <point x="518" y="622"/>
      <point x="684" y="925"/>
      <point x="684" y="1243" type="curve" smooth="yes"/>
      <point x="684" y="1333"/>
      <point x="651" y="1406"/>
      <point x="550" y="1406" type="curve" smooth="yes"/>
      <point x="496" y="1406"/>
      <point x="444" y="1380"/>
    </contour>
    <contour>
      <point x="402" y="1066" type="curve" smooth="yes"/>
      <point x="271" y="1066"/>
      <point x="128" y="1043"/>
      <point x="128" y="886" type="curve"/>
      <point x="177" y="894"/>
      <point x="227" y="894"/>
      <point x="276" y="894" type="curve" smooth="yes"/>
      <point x="531" y="894"/>
      <point x="1048" y="830"/>
      <point x="1050" y="1076" type="curve"/>
      <point x="835" y="1069"/>
      <point x="617" y="1066"/>
    </contour>
  </outline>
</glyph>
<glyph name="u" format="2">
  <advance width="1599"/>
  <unicode hex="0075"/>
  <anchor x="946" y="0" name="bottom"/>
  <anchor x="1693" y="17" name="ogonek"/>
  <anchor x="1043" y="1170" name="top"/>
  <anchor x="1785" y="1170" name="topright"/>
  <outline>
    <contour>
      <point x="536" y="-28" type="curve" smooth="yes"/>
      <point x="800" y="-28"/>
      <point x="1114" y="428"/>
      <point x="1243" y="629" type="curve"/>
      <point x="1218" y="463"/>
      <point x="1146" y="-13"/>
      <point x="1406" y="-13" type="curve" smooth="yes"/>
      <point x="1453" y="-13"/>
      <point x="1531" y="43"/>
      <point x="1567" y="72" type="curve"/>
      <point x="1458" y="179"/>
      <point x="1404" y="324"/>
      <point x="1404" y="476" type="curve" smooth="yes"/>
      <point x="1404" y="654"/>
      <point x="1491" y="825"/>
      <point x="1491" y="994" type="curve" smooth="yes"/>
      <point x="1491" y="1088"/>
      <point x="1451" y="1143"/>
      <point x="1352" y="1143" type="curve" smooth="yes"/>
      <point x="1302" y="1143"/>
      <point x="1238" y="1117"/>
      <point x="1193" y="1096" type="curve"/>
      <point x="1228" y="1047"/>
      <point x="1261" y="987"/>
      <point x="1261" y="926" type="curve" smooth="yes"/>
      <point x="1261" y="858"/>
      <point x="1200" y="733"/>
      <point x="1168" y="672" type="curve" smooth="yes"/>
      <point x="1071" y="489"/>
      <point x="855" y="173"/>
      <point x="624" y="173" type="curve" smooth="yes"/>
      <point x="491" y="173"/>
      <point x="438" y="204"/>
      <point x="438" y="344" type="curve" smooth="yes"/>
      <point x="438" y="512"/>
      <point x="496" y="707"/>
      <point x="528" y="874" type="curve" smooth="yes"/>
      <point x="536" y="916"/>
      <point x="544" y="959"/>
      <point x="544" y="1002" type="curve" smooth="yes"/>
      <point x="544" y="1093"/>
      <point x="504" y="1143"/>
      <point x="409" y="1143" type="curve" smooth="yes"/>
      <point x="356" y="1143"/>
      <point x="293" y="1116"/>
      <point x="246" y="1093" type="curve"/>
      <point x="310" y="1017"/>
      <point x="335" y="930"/>
      <point x="335" y="832" type="curve" smooth="yes"/>
      <point x="335" y="640"/>
      <point x="257" y="456"/>
      <point x="257" y="264" type="curve" smooth="yes"/>
      <point x="257" y="75"/>
      <point x="339" y="-28"/>
    </contour>
  </outline>
</glyph>
<glyph name="v" format="2">
  <advance width="1156"/>
  <unicode hex="0076"/>
  <anchor x="746" y="0" name="bottom"/>
  <anchor x="742" y="1170" name="top"/>
  <outline>
    <contour>
      <point x="670" y="-18" type="curve" smooth="yes"/>
      <point x="724" y="-18"/>
      <point x="745" y="0"/>
      <point x="771" y="45" type="curve" smooth="yes"/>
      <point x="855" y="194"/>
      <point x="935" y="339"/>
      <point x="1006" y="495" type="curve" smooth="yes"/>
      <point x="1037" y="562"/>
      <point x="1231" y="1014"/>
      <point x="1231" y="1048" type="curve" smooth="yes"/>
      <point x="1231" y="1099"/>
      <point x="1213" y="1133"/>
      <point x="1157" y="1133" type="curve" smooth="yes"/>
      <point x="1101" y="1133"/>
      <point x="1043" y="1087"/>
      <point x="1006" y="1048" type="curve"/>
      <point x="1029" y="1016"/>
      <point x="1043" y="977"/>
      <point x="1043" y="937" type="curve" smooth="yes"/>
      <point x="1043" y="800"/>
      <point x="931" y="573"/>
      <point x="866" y="449" type="curve" smooth="yes"/>
      <point x="844" y="407"/>
      <point x="745" y="230"/>
      <point x="718" y="208" type="curve"/>
      <point x="654" y="390"/>
      <point x="591" y="573"/>
      <point x="532" y="757" type="curve" smooth="yes"/>
      <point x="494" y="876"/>
      <point x="400" y="1138"/>
      <point x="247" y="1138" type="curve" smooth="yes"/>
      <point x="169" y="1138"/>
      <point x="101" y="1048"/>
      <point x="72" y="984" type="curve"/>
      <point x="289" y="967"/>
      <point x="438" y="471"/>
      <point x="498" y="295" type="curve" smooth="yes"/>
      <point x="524" y="218"/>
      <point x="545" y="137"/>
      <point x="581" y="64" type="curve" smooth="yes"/>
      <point x="599" y="27"/>
      <point x="623" y="-18"/>
    </contour>
  </outline>
</glyph>
<glyph name="w" format="2">
  <advance width="1715"/>
  <unicode hex="0077"/>
  <anchor x="1043" y="0" name="bottom"/>
  <anchor x="1121" y="1170" name="top"/>
  <outline>
    <contour>
      <point x="822" y="909" type="curve"/>
      <point x="1001" y="815"/>
      <point x="1044" y="572"/>
      <point x="1092" y="395" type="curve" smooth="yes"/>
      <point x="1123" y="283"/>
      <point x="1151" y="170"/>
      <point x="1201" y="64" type="curve" smooth="yes"/>
      <point x="1219" y="25"/>
      <point x="1240" y="-18"/>
      <point x="1290" y="-18" type="curve" smooth="yes"/>
      <point x="1308" y="-18"/>
      <point x="1387" y="2"/>
      <point x="1399" y="14" type="curve"/>
      <point x="1400" y="39"/>
      <point x="1403" y="69"/>
      <point x="1411" y="93" type="curve" smooth="yes"/>
      <point x="1421" y="122"/>
      <point x="1445" y="149"/>
      <point x="1461" y="175" type="curve" smooth="yes"/>
      <point x="1614" y="416"/>
      <point x="1766" y="687"/>
      <point x="1822" y="969" type="curve" smooth="yes"/>
      <point x="1827" y="995"/>
      <point x="1832" y="1021"/>
      <point x="1832" y="1048" type="curve" smooth="yes"/>
      <point x="1832" y="1097"/>
      <point x="1815" y="1133"/>
      <point x="1760" y="1133" type="curve" smooth="yes"/>
      <point x="1703" y="1133"/>
      <point x="1648" y="1086"/>
      <point x="1610" y="1047" type="curve"/>
      <point x="1633" y="1016"/>
      <point x="1647" y="978"/>
      <point x="1647" y="939" type="curve" smooth="yes"/>
      <point x="1647" y="758"/>
      <point x="1456" y="338"/>
      <point x="1345" y="190" type="curve"/>
      <point x="1318" y="341"/>
      <point x="1190" y="1030"/>
      <point x="995" y="1030" type="curve" smooth="yes"/>
      <point x="928" y="1030"/>
      <point x="860" y="958"/>
    </contour>
    <contour>
      <point x="627" y="-18" type="curve" smooth="yes"/>
      <point x="661" y="-18"/>
      <point x="697" y="-15"/>
      <point x="729" y="-3" type="curve"/>
      <point x="728" y="54" type="line"/>
      <point x="854" y="251"/>
      <point x="975" y="458"/>
      <point x="1055" y="679" type="curve"/>
      <point x="978" y="789" type="line"/>
      <point x="911" y="581"/>
      <point x="807" y="372"/>
      <point x="686" y="191" type="curve"/>
      <point x="636" y="382"/>
      <point x="486" y="1138"/>
      <point x="243" y="1138" type="curve" smooth="yes"/>
      <point x="165" y="1138"/>
      <point x="101" y="1049"/>
      <point x="72" y="985" type="curve"/>
      <point x="327" y="961"/>
      <point x="451" y="264"/>
      <point x="541" y="65" type="curve" smooth="yes"/>
      <point x="558" y="28"/>
      <point x="577" y="-18"/>
    </contour>
  </outline>
</glyph>
<glyph name="x" format="2">
  <advance width="1317"/>
  <unicode hex="0078"/>
  <anchor x="765" y="0" name="bottom"/>
  <anchor x="718" y="1170" name="top"/>
  <outline>
    <contour>
      <point x="358" y="1124" type="curve"/>
      <point x="286" y="1113"/>
      <point x="219" y="1068"/>
      <point x="219" y="989" type="curve" smooth="yes"/>
      <point x="219" y="822"/>
      <point x="614" y="411"/>
      <point x="737" y="279" type="curve" smooth="yes"/>
      <point x="832" y="177"/>
      <point x="1064" y="-18"/>
      <point x="1207" y="-18" type="curve" smooth="yes"/>
      <point x="1297" y="-18"/>
      <point x="1351" y="52"/>
      <point x="1370" y="134" type="curve"/>
      <point x="1192" y="173"/>
      <point x="1014" y="309"/>
      <point x="882" y="430" type="curve" smooth="yes"/>
      <point x="735" y="564"/>
      <point x="404" y="935"/>
    </contour>
    <contour>
      <point x="121" y="60" type="curve" smooth="yes"/>
      <point x="121" y="4"/>
      <point x="163" y="-16"/>
      <point x="213" y="-16" type="curve" smooth="yes"/>
      <point x="249" y="-16"/>
      <point x="321" y="28"/>
      <point x="353" y="47" type="curve"/>
      <point x="342" y="58"/>
      <point x="300" y="100"/>
      <point x="300" y="114" type="curve" smooth="yes"/>
      <point x="300" y="158"/>
      <point x="466" y="310"/>
      <point x="499" y="340" type="curve" smooth="yes"/>
      <point x="660" y="486"/>
      <point x="1266" y="849"/>
      <point x="1266" y="1055" type="curve" smooth="yes"/>
      <point x="1266" y="1111"/>
      <point x="1226" y="1133"/>
      <point x="1175" y="1133" type="curve" smooth="yes"/>
      <point x="1139" y="1133"/>
      <point x="1067" y="1091"/>
      <point x="1036" y="1071" type="curve"/>
      <point x="1047" y="1060"/>
      <point x="1088" y="1016"/>
      <point x="1088" y="1002" type="curve" smooth="yes"/>
      <point x="1088" y="926"/>
      <point x="898" y="769"/>
      <point x="841" y="724" type="curve" smooth="yes"/>
      <point x="682" y="598"/>
      <point x="121" y="262"/>
    </contour>
  </outline>
</glyph>
<glyph name="y" format="2">
  <advance width="1178"/>
  <unicode hex="0079"/>
  <anchor x="762" y="0" name="bottom"/>
  <anchor x="851" y="1170" name="top"/>
  <outline>
    <contour>
      <point x="182" y="-417" type="curve" smooth="yes"/>
      <point x="362" y="-417"/>
      <point x="539" y="-286"/>
      <point x="659" y="-163" type="curve" smooth="yes"/>
      <point x="892" y="77"/>
      <point x="1050" y="428"/>
      <point x="1163" y="713" type="curve" smooth="yes"/>
      <point x="1200" y="807"/>
      <point x="1253" y="946"/>
      <point x="1253" y="1046" type="curve" smooth="yes"/>
      <point x="1253" y="1097"/>
      <point x="1233" y="1133"/>
      <point x="1177" y="1133" type="curve" smooth="yes"/>
      <point x="1121" y="1133"/>
      <point x="1062" y="1086"/>
      <point x="1025" y="1048" type="curve"/>
      <point x="1091" y="951"/>
      <point x="1056" y="835"/>
      <point x="1025" y="732" type="curve" smooth="yes"/>
      <point x="946" y="473"/>
      <point x="804" y="75"/>
      <point x="599" y="-112" type="curve" smooth="yes"/>
      <point x="499" y="-202"/>
      <point x="366" y="-235"/>
      <point x="220" y="-235" type="curve" smooth="yes"/>
      <point x="113" y="-235"/>
      <point x="-10" y="-222"/>
      <point x="-84" y="-162" type="curve"/>
      <point x="-96" y="-188"/>
      <point x="-106" y="-240"/>
      <point x="-106" y="-255" type="curve" smooth="yes"/>
      <point x="-106" y="-396"/>
      <point x="76" y="-417"/>
    </contour>
    <contour>
      <point x="749" y="5" type="curve"/>
      <point x="783" y="77" type="line"/>
      <point x="714" y="323"/>
      <point x="455" y="1138"/>
      <point x="242.88" y="1138" type="curve" smooth="yes"/>
      <point x="172" y="1138"/>
      <point x="101" y="1047"/>
      <point x="72" y="983" type="curve"/>
      <point x="229" y="969"/>
      <point x="377" y="662"/>
      <point x="431.386" y="534.887" type="curve" smooth="yes"/>
      <point x="549" y="260"/>
      <point x="561" y="50"/>
    </contour>
  </outline>
</glyph>
<glyph name="z" format="2">
  <advance width="1273"/>
  <unicode hex="007A"/>
  <anchor x="729" y="0" name="bottom"/>
  <anchor x="708" y="587" name="center"/>
  <anchor x="852" y="1170" name="top"/>
  <outline>
    <contour>
      <point x="1283" y="985" type="curve"/>
      <point x="1275" y="1068"/>
      <point x="1229" y="1143"/>
      <point x="1138" y="1143" type="curve" smooth="yes"/>
      <point x="972" y="1143"/>
      <point x="872" y="960"/>
      <point x="772" y="853" type="curve" smooth="yes"/>
      <point x="711" y="788"/>
      <point x="651" y="723"/>
      <point x="591" y="658" type="curve" smooth="yes"/>
      <point x="405" y="456"/>
      <point x="224" y="250"/>
      <point x="56" y="32" type="curve"/>
      <point x="80" y="-1"/>
      <point x="115" y="-32"/>
      <point x="159" y="-32" type="curve" smooth="yes"/>
      <point x="238" y="-32"/>
      <point x="282" y="50"/>
      <point x="323" y="104" type="curve" smooth="yes"/>
      <point x="446" y="267"/>
      <point x="573" y="427"/>
      <point x="711" y="577" type="curve" smooth="yes"/>
      <point x="903" y="785"/>
      <point x="1113" y="965"/>
    </contour>
    <contour>
      <point x="254" y="25" type="line"/>
      <point x="378" y="26"/>
      <point x="502" y="30"/>
      <point x="626" y="30" type="curve" smooth="yes"/>
      <point x="822" y="30"/>
      <point x="1019" y="21"/>
      <point x="1212" y="-15" type="curve"/>
      <point x="1209" y="28"/>
      <point x="1207" y="93"/>
      <point x="1186" y="131" type="curve" smooth="yes"/>
      <point x="1141" y="212"/>
      <point x="1002" y="214"/>
      <point x="921" y="214" type="curve" smooth="yes"/>
      <point x="733" y="214"/>
      <point x="546" y="193"/>
      <point x="359" y="170" type="curve"/>
    </contour>
    <contour>
      <point x="995" y="1064" type="line"/>
      <point x="742" y="1080"/>
      <point x="482" y="1055"/>
      <point x="237" y="1132" type="curve"/>
      <point x="210" y="1105"/>
      <point x="201" y="1065"/>
      <point x="201" y="1028" type="curve" smooth="yes"/>
      <point x="201" y="897"/>
      <point x="399" y="893"/>
      <point x="491" y="893" type="curve" smooth="yes"/>
      <point x="614" y="893"/>
      <point x="718" y="904"/>
      <point x="839" y="921" type="curve"/>
    </contour>
    <contour>
      <point x="1212" y="-15" type="line"/>
      <point x="1214" y="-15" type="line"/>
    </contour>
  </outline>
</glyph>
<glyph name="braceleft" format="2">
  <advance width="1147"/>
  <unicode hex="007B"/>
  <outline>
    <contour>
      <point x="996" y="-10" type="curve"/>
      <point x="839" y="-47"/>
      <point x="676" y="-48"/>
      <point x="516" y="-64" type="curve"/>
      <point x="506" y="-44"/>
      <point x="498" y="-20"/>
      <point x="498" y="3" type="curve" smooth="yes"/>
      <point x="498" y="167"/>
      <point x="588" y="317"/>
      <point x="588" y="481" type="curve" smooth="yes"/>
      <point x="588" y="579"/>
      <point x="556" y="666"/>
      <point x="471" y="722" type="curve"/>
      <point x="662" y="818"/>
      <point x="702" y="1063"/>
      <point x="715" y="1255" type="curve" smooth="yes"/>
      <point x="719" y="1308"/>
      <point x="725" y="1438"/>
      <point x="743" y="1482" type="curve"/>
      <point x="827" y="1442"/>
      <point x="921" y="1422"/>
      <point x="1014" y="1422" type="curve" smooth="yes"/>
      <point x="1142" y="1422"/>
      <point x="1252" y="1493"/>
      <point x="1252" y="1631" type="curve"/>
      <point x="1174" y="1631"/>
      <point x="1095" y="1630"/>
      <point x="1017" y="1624" type="curve" smooth="yes"/>
      <point x="831" y="1611"/>
      <point x="473" y="1633"/>
      <point x="505" y="1420" type="curve"/>
      <point x="505" y="1378"/>
      <point x="518" y="1337"/>
      <point x="530" y="1297" type="curve" smooth="yes"/>
      <point x="548" y="1237"/>
      <point x="563" y="1177"/>
      <point x="563" y="1113" type="curve" smooth="yes"/>
      <point x="563" y="924"/>
      <point x="388" y="808"/>
      <point x="233" y="741" type="curve"/>
      <point x="243" y="707"/>
      <point x="255" y="673"/>
      <point x="274" y="643" type="curve"/>
      <point x="359" y="663" type="line"/>
      <point x="414" y="612"/>
      <point x="460" y="553"/>
      <point x="460" y="475" type="curve" smooth="yes"/>
      <point x="460" y="295"/>
      <point x="312" y="131"/>
      <point x="312" y="-63" type="curve" smooth="yes"/>
      <point x="312" y="-225"/>
      <point x="506" y="-211"/>
      <point x="619" y="-211" type="curve" smooth="yes"/>
      <point x="752" y="-211"/>
      <point x="999" y="-206"/>
      <point x="999" y="-20" type="curve" smooth="yes"/>
      <point x="999" y="-19"/>
      <point x="998" y="-12"/>
    </contour>
  </outline>
</glyph>
<glyph name="bar" format="2">
  <advance width="617"/>
  <unicode hex="007C"/>
  <outline>
    <contour>
      <point x="341" y="-213" type="curve" smooth="yes"/>
      <point x="395" y="-213"/>
      <point x="438" y="-147"/>
      <point x="455" y="-103" type="curve"/>
      <point x="390" y="-31"/>
      <point x="377" y="75"/>
      <point x="377" y="168" type="curve" smooth="yes"/>
      <point x="377" y="280"/>
      <point x="397" y="391"/>
      <point x="418" y="501" type="curve" smooth="yes"/>
      <point x="465" y="744"/>
      <point x="526" y="984"/>
      <point x="573" y="1227" type="curve" smooth="yes"/>
      <point x="587" y="1297"/>
      <point x="598" y="1369"/>
      <point x="598" y="1441" type="curve" smooth="yes"/>
      <point x="598" y="1506"/>
      <point x="587" y="1609"/>
      <point x="501" y="1609" type="curve" smooth="yes"/>
      <point x="459" y="1609"/>
      <point x="403" y="1572"/>
      <point x="371" y="1547" type="curve"/>
      <point x="409" y="1471"/>
      <point x="418" y="1384"/>
      <point x="418" y="1300" type="curve" smooth="yes"/>
      <point x="418" y="1168"/>
      <point x="394" y="1038"/>
      <point x="369" y="909" type="curve" smooth="yes"/>
      <point x="329" y="701"/>
      <point x="283" y="494"/>
      <point x="243" y="286" type="curve" smooth="yes"/>
      <point x="225" y="195"/>
      <point x="209" y="103"/>
      <point x="209" y="10" type="curve" smooth="yes"/>
      <point x="209" y="-78"/>
      <point x="225" y="-213"/>
    </contour>
  </outline>
</glyph>
<glyph name="braceright" format="2">
  <advance width="871"/>
  <unicode hex="007D"/>
  <outline>
    <contour>
      <point x="605" y="91" type="curve" smooth="yes"/>
      <point x="605" y="192"/>
      <point x="583" y="291"/>
      <point x="583" y="392" type="curve" smooth="yes"/>
      <point x="583" y="535"/>
      <point x="627" y="570"/>
      <point x="722" y="665" type="curve"/>
      <point x="807" y="645" type="line"/>
      <point x="870" y="741" type="line"/>
      <point x="751" y="802"/>
      <point x="658" y="898"/>
      <point x="658" y="1039" type="curve" smooth="yes"/>
      <point x="658" y="1216"/>
      <point x="809" y="1381"/>
      <point x="809" y="1489" type="curve" smooth="yes"/>
      <point x="809" y="1625"/>
      <point x="483" y="1619"/>
      <point x="391" y="1623" type="curve" smooth="yes"/>
      <point x="318" y="1626"/>
      <point x="246" y="1631"/>
      <point x="173" y="1631" type="curve"/>
      <point x="167" y="1610"/>
      <point x="164" y="1588"/>
      <point x="164" y="1566" type="curve" smooth="yes"/>
      <point x="164" y="1468"/>
      <point x="243" y="1422"/>
      <point x="332" y="1422" type="curve" smooth="yes"/>
      <point x="407" y="1422"/>
      <point x="555" y="1454"/>
      <point x="601" y="1479" type="curve"/>
      <point x="601" y="1479"/>
      <point x="602" y="1459"/>
      <point x="602" y="1446" type="curve" smooth="yes"/>
      <point x="602" y="1425"/>
      <point x="591" y="1405"/>
      <point x="585" y="1385" type="curve" smooth="yes"/>
      <point x="546" y="1255"/>
      <point x="520" y="1115"/>
      <point x="520" y="979" type="curve" smooth="yes"/>
      <point x="520" y="880"/>
      <point x="544" y="775"/>
      <point x="634" y="719" type="curve"/>
      <point x="327" y="523"/>
      <point x="521" y="19"/>
      <point x="368" y="-45" type="curve"/>
      <point x="239" y="-44"/>
      <point x="107" y="-39"/>
      <point x="-18" y="-4" type="curve"/>
      <point x="-30" y="-31"/>
      <point x="-39" y="-60"/>
      <point x="-39" y="-89" type="curve" smooth="yes"/>
      <point x="-39" y="-210"/>
      <point x="183" y="-210"/>
      <point x="265" y="-210" type="curve" smooth="yes"/>
      <point x="430" y="-210"/>
      <point x="553" y="-213"/>
      <point x="595" y="-23" type="curve" smooth="yes"/>
      <point x="603" y="14"/>
      <point x="605" y="53"/>
    </contour>
  </outline>
</glyph>
<glyph name="asciitilde" format="2">
  <advance width="1382"/>
  <unicode hex="007E"/>
  <outline>
    <contour>
      <point x="304" y="619" type="curve"/>
      <point x="329" y="677"/>
      <point x="382" y="693"/>
      <point x="441" y="693" type="curve" smooth="yes"/>
      <point x="560" y="693"/>
      <point x="625" y="686"/>
      <point x="737" y="643" type="curve" smooth="yes"/>
      <point x="808" y="616"/>
      <point x="937" y="568"/>
      <point x="1011" y="568" type="curve" smooth="yes"/>
      <point x="1139" y="568"/>
      <point x="1278" y="677"/>
      <point x="1278" y="811" type="curve" smooth="yes"/>
      <point x="1278" y="847"/>
      <point x="1261" y="873"/>
      <point x="1229" y="831" type="curve"/>
      <point x="1204" y="773"/>
      <point x="1152" y="758"/>
      <point x="1094" y="758" type="curve" smooth="yes"/>
      <point x="978" y="758"/>
      <point x="907" y="765"/>
      <point x="797" y="807" type="curve" smooth="yes"/>
      <point x="718" y="837"/>
      <point x="605" y="883"/>
      <point x="522" y="883" type="curve" smooth="yes"/>
      <point x="395" y="883"/>
      <point x="256" y="772"/>
      <point x="256" y="639" type="curve" smooth="yes"/>
      <point x="256" y="603"/>
      <point x="273" y="577"/>
    </contour>
    <contour>
      <point x="1223" y="882" type="curve"/>
      <point x="1215" y="881"/>
      <point x="1205" y="881"/>
    </contour>
  </outline>
</glyph>
<glyph name="exclamdown" format="2">
  <advance width="786"/>
  <unicode hex="00A1"/>
  <outline>
    <contour>
      <point x="323" y="-362" type="curve" smooth="yes"/>
      <point x="381" y="-362"/>
      <point x="448" y="-337"/>
      <point x="500" y="-314" type="curve"/>
      <point x="418" y="-219"/>
      <point x="401" y="-83"/>
      <point x="401" y="38" type="curve" smooth="yes"/>
      <point x="401" y="164"/>
      <point x="419" y="290"/>
      <point x="444" y="413" type="curve" smooth="yes"/>
      <point x="461" y="499"/>
      <point x="489" y="585"/>
      <point x="489" y="673" type="curve" smooth="yes"/>
      <point x="489" y="707"/>
      <point x="482" y="749"/>
      <point x="439" y="749" type="curve" smooth="yes"/>
      <point x="407" y="749"/>
      <point x="366" y="732"/>
      <point x="337" y="719" type="curve"/>
      <point x="350" y="690"/>
      <point x="361" y="658"/>
      <point x="361" y="626" type="curve" smooth="yes"/>
      <point x="361" y="550"/>
      <point x="295" y="352"/>
      <point x="270" y="270" type="curve" smooth="yes"/>
      <point x="230" y="138"/>
      <point x="167" y="-55"/>
      <point x="167" y="-191" type="curve" smooth="yes"/>
      <point x="167" y="-296"/>
      <point x="212" y="-362"/>
    </contour>
    <contour>
      <point x="441" y="885" type="curve" smooth="yes"/>
      <point x="497" y="885"/>
      <point x="552" y="900"/>
      <point x="605" y="917" type="curve"/>
      <point x="618" y="969"/>
      <point x="634" y="1020"/>
      <point x="634" y="1074" type="curve" smooth="yes"/>
      <point x="634" y="1155"/>
      <point x="580" y="1172"/>
      <point x="510" y="1172" type="curve" smooth="yes"/>
      <point x="456" y="1172"/>
      <point x="404" y="1157"/>
      <point x="353" y="1140" type="curve"/>
      <point x="333" y="1092"/>
      <point x="310" y="1039"/>
      <point x="310" y="986" type="curve" smooth="yes"/>
      <point x="310" y="906"/>
      <point x="372" y="885"/>
    </contour>
  </outline>
</glyph>
<glyph name="cent" format="2">
  <advance width="1382"/>
  <unicode hex="00A2"/>
  <outline>
    <contour>
      <point x="1085" y="1353" type="curve" smooth="yes"/>
      <point x="904" y="1353"/>
      <point x="709" y="1297"/>
      <point x="571" y="1210" type="curve" smooth="yes"/>
      <point x="375" y="1085"/>
      <point x="224" y="866"/>
      <point x="224" y="630" type="curve" smooth="yes"/>
      <point x="224" y="272"/>
      <point x="544" y="152"/>
      <point x="855" y="152" type="curve" smooth="yes"/>
      <point x="994" y="152"/>
      <point x="1279" y="179"/>
      <point x="1322" y="347" type="curve" smooth="yes"/>
      <point x="1328" y="369"/>
      <point x="1332" y="392"/>
      <point x="1338" y="414" type="curve"/>
      <point x="1263" y="325"/>
      <point x="1052" y="304"/>
      <point x="940" y="304" type="curve" smooth="yes"/>
      <point x="670" y="304"/>
      <point x="420" y="432"/>
      <point x="420" y="729" type="curve" smooth="yes"/>
      <point x="420" y="1021"/>
      <point x="653" y="1199"/>
      <point x="929" y="1199" type="curve" smooth="yes"/>
      <point x="1050" y="1199"/>
      <point x="1266" y="1148"/>
      <point x="1360" y="1069" type="curve"/>
      <point x="1388" y="1077"/>
      <point x="1405" y="1172"/>
      <point x="1405" y="1198" type="curve" smooth="yes"/>
      <point x="1405" y="1335"/>
      <point x="1185" y="1353"/>
    </contour>
    <contour>
      <point x="1034" y="1674" type="curve" smooth="yes"/>
      <point x="876" y="1674"/>
      <point x="857" y="1389"/>
      <point x="857" y="1196" type="curve" smooth="yes"/>
      <point x="857" y="1134"/>
      <point x="859" y="1082"/>
      <point x="859" y="1051" type="curve" smooth="yes"/>
      <point x="859" y="828"/>
      <point x="856" y="605"/>
      <point x="839" y="383" type="curve" smooth="yes"/>
      <point x="830" y="268"/>
      <point x="831" y="122"/>
      <point x="760" y="25" type="curve" smooth="yes"/>
      <point x="733" y="-12"/>
      <point x="695" y="-42"/>
      <point x="642" y="-71" type="curve"/>
      <point x="645" y="-91"/>
      <point x="663" y="-175"/>
      <point x="688" y="-175" type="curve" smooth="yes"/>
      <point x="785" y="-175"/>
      <point x="838" y="-101"/>
      <point x="868" y="-18" type="curve" smooth="yes"/>
      <point x="939" y="172"/>
      <point x="934" y="791"/>
      <point x="947" y="1024" type="curve" smooth="yes"/>
      <point x="957" y="1225"/>
      <point x="940" y="1490"/>
      <point x="1121" y="1618" type="curve"/>
      <point x="1103" y="1635"/>
      <point x="1059" y="1674"/>
    </contour>
  </outline>
</glyph>
